<svg xmlns="http://www.w3.org/2000/svg" width="30" height="24" viewBox="0 0 30 24">
  <path fill="#19724d" d="M0 24h30V0H0z"/>
  <path fill="#fff" d="m14.62 14.7-1.53 4.18.85-4.38-2.57 3.65 1.95-4L9.91 17l2.92-3.37-4.05 1.88 3.7-2.5-4.4.77 4.22-1.46-4.44-.4 4.45-.3-4.2-1.54 4.39.85-3.65-2.57 4 1.95L10 6.91l3.37 2.92-1.88-4.05 2.5 3.7-.77-4.4 1.46 4.22.4-4.44.3 4.45 1.54-4.2-.85 4.39 2.57-3.65-1.95 4L20.09 7l-2.92 3.37 4.05-1.88-3.7 2.5 4.4-.77-4.22 1.46 4.44.4-4.45.3 4.2 1.54-4.39-.85 3.65 2.57-4-1.95 2.85 3.4-3.37-2.92 1.88 4.05-2.5-3.7.77 4.4-1.46-4.22-.4 4.44z"/>
  <path fill="#19724d" d="m15.8 18.26-.36.17-.25-.36v-.18l-.19-.42-.3-.35-.12-.86-.37-.63-.04-.07-.05-.17v-.22l.1-.32.15-.38v-.76l-.16-.52-.44-.42-.21-.33.21-.39.16-.34-.37-.24h-.42l-.43-.4-.6.2-.73.2h-.91l-.4-.4-.22-.5-.4-.5-.16-.25.16-.36V8.4l.25-.26.37-.7.4-.35.34-.32.15-.32.42-.49.38-.22v.22h.36l1.81-.4v.64l.77.42.74.15v-.32l1.27.32.9-.15v.64l.47.88.38.76.21.37.33.35.54.44v.21h.53l.64-.2v.5l-.34.9-.68.57-.85 1.14v.52l.16.76-.16.7-.94.58v1.08h-.46v.52l-1.03.91zm3.61-1.55-.21-.12-.07-.18-.05-.45.36-.4-.07-.44.11-.23.2-.07.47-.13.35-.55.21.1-.03.58-.9 1.77z"/>
  <path fill="#fff" d="M14.24 5.18q.19.15.2.4v.33l.44.25.14.03a.5.5 0 0 1 .54-.21l1.17.3.8-.14a.5.5 0 0 1 .59.5v.51l.4.77.38.75.18.31.27.28.5.43.1.1h.04l.57-.2a.5.5 0 0 1 .65.48v.5l-.03.18-.34.9-.14.2-.64.55-.72.96v.3l.15.7.06-.02.28-.08.24-.39a.5.5 0 0 1 .61-.2l.22.1c.2.08.32.27.31.49l-.03.59-.05.2-.9 1.77a.5.5 0 0 1-.29.24l-.37.13a.5.5 0 0 1-.42-.05l-.2-.12a.5.5 0 0 1-.21-.24l-.08-.18-.03-.14-.05-.45v-.1l-.18.12v.8a.5.5 0 0 1-.46.5v.02a.5.5 0 0 1-.17.37l-1.03.91a.5.5 0 0 1-.33.13h-.5l-.26.12a.5.5 0 0 1-.62-.16l-.25-.36a.5.5 0 0 1-.1-.29V18l-.1-.25-.26-.29-.11-.25-.11-.77-.32-.55-.04-.06-.05-.12-.05-.16-.02-.15v-.22q0-.08.02-.14l.1-.32.01-.06.12-.29v-.57l-.1-.32-.35-.34-.07-.09-.21-.32a.5.5 0 0 1-.02-.52l.13-.23h-.11a.5.5 0 0 1-.35-.14l-.2-.2-.3.1-.04.02-.74.2-.13.02h-.9a.5.5 0 0 1-.37-.15l-.4-.41-.1-.15-.19-.42-.36-.45-.03-.05-.17-.25a.5.5 0 0 1-.03-.48l.12-.26V8.4a.5.5 0 0 1 .14-.34l.2-.22.34-.63.1-.13.4-.36.27-.25.1-.22.08-.12.42-.5.13-.1.38-.22a.5.5 0 0 1 .65.13l1.66-.37a.5.5 0 0 1 .42.1m-2.62 1.27-.24.28-.1.26-.13.16-.34.32-.34.3-.33.61-.08.11-.11.12v.85l-.05.2-.05.12.4.48.06.11.18.4.2.2h.62l.66-.18.58-.2a.5.5 0 0 1 .5.11l.29.27h.22q.15 0 .27.08l.37.24c.21.14.29.4.18.63l-.15.35-.02.02-.07.13.02.03.4.38q.09.09.13.21l.16.52.02.15v.76l-.04.2-.15.34-.06.23v.11l.03.03.36.63.06.18.1.72.2.23.09.12.19.43.03.08.12-.01h.42l.72-.63v-.3c0-.26.2-.48.46-.5v-.58a.5.5 0 0 1 .23-.43l.77-.47.1-.39-.15-.64-.01-.11v-.52q0-.16.1-.3l.86-1.14.07-.07.58-.5.15-.4h-.56a.5.5 0 0 1-.5-.47l-.35-.3-.05-.03-.33-.35-.07-.1-.21-.37-.02-.03-.38-.75-.46-.87-.05-.24v-.05l-.33.06-.2-.01-.75-.19a.5.5 0 0 1-.5.2l-.74-.16-.14-.05-.77-.42a.5.5 0 0 1-.26-.44v-.02l-1.2.27-.11.01h-.36z"/>
  <path fill="#feca00" d="m15 3.6-.63.34.12-.7-.5-.5.7-.1L15 2l.31.64.7.1-.5.5.12.7z"/>
  <path fill="#feca00" d="m17.17 3.9-.7.15.3-.65-.36-.6.7.08.48-.54.14.7.65.28-.62.35-.07.7z"/>
  <path fill="#feca00" d="m19.2 4.73-.71-.03.45-.54-.2-.69.67.26.59-.39-.05.71.56.44-.69.18-.24.66z"/>
  <path fill="#feca00" d="m20.93 6.07-.67-.22.58-.4-.01-.72.57.43.67-.23-.23.67.43.57h-.71l-.41.57z"/>
  <path fill="#feca00" d="m22.27 7.8-.6-.38.66-.24.18-.7.44.57.71-.05-.4.6.27.65-.69-.19-.54.45z"/>
  <path fill="#feca00" d="m23.1 9.83-.48-.52.71-.07.35-.62.28.65.7.14-.54.47.09.7-.61-.36-.65.3z"/>
  <path fill="#feca00" d="m23.4 12-.34-.63.7.12.5-.5.1.7.64.31-.64.31-.1.7-.5-.5-.7.12z"/>
  <path fill="#feca00" d="m23.1 14.17-.15-.7.65.3.6-.36-.08.7.54.48-.7.14-.28.65-.35-.62-.7-.07z"/>
  <path fill="#feca00" d="m22.27 16.2.03-.71.54.45.69-.2-.26.67.39.59-.71-.05-.44.56-.18-.69-.66-.24z"/>
  <path fill="#feca00" d="m20.93 17.93-.67.22.58.4-.01.72.57-.43.67.23-.23-.67.43-.57h-.71l-.41-.57z"/>
  <path fill="#feca00" d="m19.2 19.27-.71.03.45.54-.2.69.67-.26.59.39-.05-.71.56-.44-.69-.18-.24-.66z"/>
  <path fill="#feca00" d="m17.17 20.1.52-.48.07.71.62.35-.65.28-.14.7-.47-.54-.7.09.36-.61-.3-.65z"/>
  <path fill="#feca00" d="m15 20.4.63-.34-.12.7.5.5-.7.1L15 22l-.31-.64-.7-.1.5-.5-.12-.7z"/>
  <path fill="#feca00" d="m12.83 20.1.7-.15-.3.65.36.6-.7-.08-.48.54-.14-.7-.65-.28.62-.35.07-.7z"/>
  <path fill="#feca00" d="m10.8 19.27.71.03-.45.54.2.69-.67-.26-.59.39.05-.71-.56-.44.69-.18.24-.66z"/>
  <path fill="#feca00" d="m9.07 17.93.67.22-.58.4.01.72-.57-.43-.67.23.23-.67-.43-.57h.71l.41-.57z"/>
  <path fill="#feca00" d="m7.73 16.2.6.38-.66.24-.18.7-.44-.57-.71.05.4-.6-.27-.65.69.19.54-.45z"/>
  <path fill="#feca00" d="m6.9 14.17.48.52-.71.07-.35.62-.28-.65-.7-.14.54-.47-.09-.7.61.36.65-.3z"/>
  <path fill="#feca00" d="m6.6 12 .34.63-.7-.12-.5.5-.1-.7L5 12l.64-.31.1-.7.5.5.7-.12z"/>
  <path fill="#feca00" d="m6.9 9.83.15.7-.65-.3-.6.36.08-.7-.54-.48.7-.14.28-.65.35.62.7.07z"/>
  <path fill="#feca00" d="m7.73 7.8-.03.71-.54-.45-.69.2.26-.67L6.34 7l.71.05.44-.56.18.69.66.24z"/>
  <path fill="#feca00" d="m9.07 6.07-.22.67-.4-.58-.72.01.43-.57-.23-.67.67.23.57-.43v.71l.57.41z"/>
  <path fill="#feca00" d="m10.8 4.73-.38.6-.24-.66-.7-.18.57-.44-.05-.71.6.4.65-.27-.19.69.45.54z"/>
  <path fill="#feca00" d="m12.83 3.9-.52.48-.07-.71-.62-.35.65-.28.14-.7.47.54.7-.09-.36.61.3.65z"/>
</svg>
