<svg xmlns="http://www.w3.org/2000/svg" width="30" height="24" viewBox="0 0 30 24">
  <path fill="#006233" d="M0 24h30V0H0z"/>
  <path fill="#fff" d="M16.33 9.59q-.11-.05-.17-.17 0-.65-.06-1.27l-.02.04-.09.12c.05.31.06.8.07 1.22q.16.25.36.3h-.03l.03.15h.03v-.14h.09c.17 0 .36-.1.58-.21q.22-.12.52-.23c.03-.01.13-.13.03-.17l-.23-.05-.29-.07-.15-.05q-.16-.07-.36-.09c-.19-.02-.4.11-.37.33q.01.13.07.26l.01.04zm.3.03c-.21.05-.22-.07-.23-.18v-.06c-.03-.14 0-.29.18-.26q.37.1.7.23z"/>
  <path fill="#fff" d="M15.05 9.36q.26-.03.32-.2-.11-.22-.49-.21c-.32 0-.49.13-.51.29h.09c.11 0 .21 0 .25.1q-.4.17-.92.16c-.49.02-.61-.15-.74-.33L13 9.1l-.09-.03c-.08 0-.16.13-.23.26-.08.14-.16.29-.26.28-.14-.02-.15-.18-.17-.35q0-.11-.03-.19c-.05.29.06 1.39.66.2q.03-.05.06 0c.16.33.49.45.84.46q.45.01 1.07-.31l.04.04c.09.09.18.19.37.21q.12 0 .23-.03h.02v.08l.02-.09h.01q.24-.11.32-.32c.03-.11.04-.33-.09-.33s-.24.22-.27.48a.4.4 0 0 1-.48-.09zm.03-.16q-.1.03-.15.07l-.07-.04-.1-.06c.12-.05.23-.07.32.04m.55.18c.02-.11.04-.19.14-.25.02.12.03.19-.15.27z"/>
  <path fill="#fff" d="M15.26 12.55c0-.73-.02-1.56-.09-2.08.18-.18.12-.25.04-.36a1 1 0 0 1-.14-.25l-.04.12c-.05.14-.11.29-.03.4q.08 1.17.1 2.35c.06 0 .13-.14.16-.18"/>
  <path fill="#fff" d="m17.55 9.9.02-.03zm0 0-.14.19.08.63q.16 1.06.19 2.16c-.62.56-.95-.13-.93-.67.85-.25.61-1.78-.08-1.17-.31.38-.02.49.55.45-.04.16-.26.36-.53.51a3 3 0 0 0-.3-.65l-.13.22.22.54q-.22.1-.42.13 0-.86-.08-1.7c.18-.2.1-.28.01-.38l-.14-.23-.04.13c-.04.14-.1.29-.01.4q.1.89.11 1.79c-.33-.01-.52-.26-.25-.96-.5.57-.27 1.2.25 1.23v.28q-.34.26-.63.38-.06-.18.05-.56-.21.35-.19.62l-.22.07c.24-.66-.29-.91-.82-.91-.13 0-.52.02-.73-.05q.17-.19.36-.29h.01c.36.38.89-.02 1.02-.31 0-.28 0-.75-.07-1.21.18-.2.11-.27.02-.38l-.13-.23c-.12.34-.08.7-.03 1.07q.07.37.05.76a1 1 0 0 1-.65.18c1.25-.51-.71-.89-.91-.13.21-.08.36 0 .51.1-.12.15-.27.4-.27.4l-.17-.2-.07-.1-.03.09a.4.4 0 0 0-.05.18l.06.09.03.05.09.12q-.15.27-.2.49c-.42.37-1.33.42-.96-.57-.66.91.32 1.4.93.85.05 1 1.42.98 1.87.27q.2-.03.41-.11c.19.32.8.26 1.45-.67 1.28 1.91 1.33-1.48.98-2.37 1.48 2.28.11 3.24-1.92 3.7 2.64.07 3.48-2.26 1.85-4.24M13 13.21c.18-.16.33-.38.33-.62q.21.08.64.08c-.18.58.14.87.61.88v.01c-.45.46-1.54.34-1.58-.35m.19-.59q.02.17-.12.28.04-.16.12-.28m3.35-.31v.03q.06.17.07.36c-.46.5-.94.76-1.19.64q.38-.19.63-.49v-.36l.01.01q.21-.04.48-.19m-2.7-.52-.22-.13c.07-.06.31-.1.4 0zm2.98-.71c-.29.13.16.22.19.12.03-.07-.09-.12-.19-.12m-2.77 1.59c-.06.43.25.71.72.65.34-.53-.26-.72-.72-.65"/>
  <path fill="#fff" d="M14.21 10.31c.07.13.09.22.1.35-.04.17-.2.33-.37.34-.1 0-.22-.02-.3-.17q-.02-.05-.09-.04-.26.4-.48.39c-.18 0-.23-.08-.29-.16a.4.4 0 0 0-.25-.19c-.13 0-.33.11-.44.34-.41 1.05-.77 0-.62-.49.02.47.15.74.27.73.07 0 .14-.13.22-.28l.07-.13c.09-.16.31-.44.54-.44q.12.01.15.13c.05.1.1.22.35.22q.3 0 .58-.43.04.01.06.07v.02c.03.1.21.36.46.12v-.04q0-.08-.06-.12z"/>
  <path fill="#fff" d="M12.55 11.28h-.04l-.13.12-.01.03.01.03.14.11h.04l.14-.11.01-.03.13.1h.04l.14-.11.01-.03-.01-.03-.15-.11h-.04l-.13.12-.01.03z"/>
  <path fill="#fff" d="M11.98 10.01h-.04l-.13.12-.01.03.01.03.14.11h.04l.14-.11.01-.03-.01-.03z"/>
  <path fill="#fff" d="M12.04 10.36H12l-.13.12-.01.03.01.03.14.11h.04l.14-.11.01-.03-.01-.03z"/>
  <path fill="#fff" d="M14.36 10.98h-.04l-.12.09-.01.03.01.03.1.1h.04l.12-.08.02-.03-.01-.03z"/>
  <path fill="#fff" d="M12.77 8.75h-.04l-.08.08-.01.03.01.03.09.07h.04l.09-.07.07.05h.04l.09-.07.01-.03-.01-.03-.1-.08h-.05l-.08.08z"/>
  <path fill="#fff" d="M17.27 9.62h-.04l-.08.06-.02.03.01.03.08.07h.04l.08-.06.01-.03-.01-.03z"/>
  <path fill="#fff" d="M15 16.3c4.14.14 6.34-5 3.04-7.45 2.24 2.32.24 6.17-3.04 6.07-3.27.1-5.28-3.75-3.04-6.07-3.3 2.45-1.1 7.59 3.04 7.45"/>
  <path fill="#fff" d="M15 4.64c-.24-.25-.31-.24-.2.12l-.04.02c-.28-.28-.73-.44-.99-.65-.37-.34 0 .5.14.63-.28-.11-.65-.15-.86-.25-.23-.14-.2 0-.12.21q.18.37.56.56c-.2.05-.42.15-.61.39-.03-.13-.15-.14-.27.03-.12.16-.42.29-.73.44-.52.25-1.24.56-1.02 1.02-.07.05-.15.12.14.19q-.21.07-.47.12c.24-.25.43-1.2-.03-.75-.46.35-.98.5-1.29 1.41 0-.2-.13-.6-.31-.25-.27.32-.71.54-.71 1.24-.43.3-1.08.96-.51 2.35.13.3.19-.02.29-.14 0 .14-.06.82.21.38.34-.45.92-.92.95-1.58.05-.53-.73.18-.86.4.04-.37 0-.69-.02-1.02.08.44.22.13.42-.08-.06.13-.41.86.03.59.45-.24 1.53-.86 1.26-1.53.49-.15 1.24-.57 1.38-1.1.49.02 1.53-.19 1.81-.72a2.4 2.4 0 0 0 1.58-.42c.08-.05.18-.18-.04-.13-.15.03-.41-.07-.61-.09l.09-.04c.58.13 1.09.13 1.66 0l.09.04c-.19.02-.45.12-.61.09-.21-.05-.12.07-.03.13.49.31 1.07.5 1.58.42.28.53 1.32.74 1.81.72.14.53.88.95 1.38 1.1-.26.67.81 1.29 1.26 1.53.44.27.09-.46.03-.59.2.21.34.53.42.08-.01.33-.06.65-.02 1.02-1.37-1.51-.86.3-.16.89q.16.16.24.3c.27.44.21-.24.21-.38.1.12.16.44.29.14.57-1.38-.08-2.05-.51-2.35 0-.7-.43-.92-.71-1.24-.19-.35-.31.05-.31.25-.3-.91-.83-1.06-1.29-1.41-.46-.45-.28.5-.03.75L19 7.36c.29-.07.21-.14.14-.19.31-.72-1.4-1.01-1.75-1.46-.12-.16-.24-.16-.27-.03a1 1 0 0 0-.61-.39c.24-.13.46-.31.56-.56.08-.21.12-.35-.12-.21-.22.1-.59.14-.86.25.13-.13.51-.97.14-.63-.26.2-.71.36-.99.65l-.04-.02c.11-.37.04-.37-.2-.12zM9.58 8.69c-.17.06-.41.14-.63.36q.13-.21.21-.47c.15.07.49.02.72-.06-.09.07-.16.13-.31.17zm3.02-2.1h-.24l.27-.24q.05.05.16.01c-.16.11-.17.14.03.22zm1.32-.57a2 2 0 0 0-.49.04q.17-.1.31-.22l.16.07zm2.31-.17-.13.06-.01.11q.22-.02.49.04-.17-.1-.31-.22zm3.88 2.67c.28.24.61.2.94.53q-.14-.21-.21-.47c-.15.07-.49.02-.72-.06zm-2.93-1.94h.46l-.27-.24q-.05.05-.16.01c.16.11.17.14-.03.22z"/>
  <path fill="#fff" d="M13.53 17.89c.13-.67 1.01-.16 1.47-.18.47.02 1.34-.5 1.47.18.69-.73 1.45-.87 2.14-1.25.28-.2.32-.08.31.04a3 3 0 0 1 1.19-1.12c.03-.46.2-1.01.61-1.38.12-.11.25-.18.22.12-.01.59.34 1.01-.18 1.65.28-.04 1.31-.7 1.05-.25-.37 1.05-1.49 1.75-2.38 1.55q-.17.12-.4.23c.17-.07 1.61-.11 1.1.12-.86.41-1.68 1.38-3.15.96-.22.08-1.11.31-1.01.01l-.19.13.01.03c1 .38 2.2.24 3.23-.37q.08-.04.02.13c-.12.31-.21.55.14 1.01.15.2-.02.23-.28.21a15 15 0 0 1-3.16-.59q-.02.06-.06.1c.41.15 1.08.32 1.85.44.32.04.3.22-.26.29-.55.05-1.25-.29-1.7-.61-.32.3-.52.27-.55-.21 0-.05-.05-.11-.07-.03q-.05.72-.55.24c-.45.32-1.15.66-1.7.61-.56-.06-.57-.24-.26-.29.76-.12 1.44-.3 1.85-.44l-.06-.1c-.64.22-1.89.47-3.16.59-.26.02-.43-.01-.28-.21.35-.46.26-.7.14-1.01q-.06-.17.02-.13c1.03.6 2.23.75 3.23.37l.01-.03-.19-.13c.1.3-.79.07-1.01-.01-1.47.42-2.29-.55-3.15-.96-.51-.23.93-.19 1.1-.12l-.4-.23c-.88.2-2.01-.49-2.38-1.55-.26-.45.78.21 1.05.25-.52-.65-.17-1.06-.18-1.65-.02-.3.11-.22.22-.12.41.37.58.92.61 1.38.52.29.96.68 1.19 1.12-.01-.12.03-.23.31-.04.68.38 1.44.52 2.14 1.25zm1.84.25c-.31.17-1.8-.37-1.02.36.24-.27 1.08-.27 1.31 0 .5-.39.06-.46-.28-.36m-4.14-1.07c.03.12.05.38 0 .45l.39.1a3 3 0 0 1-.39-.55m7.16.55q.24-.26.39-.55c-.03.12-.04.38 0 .45zm1.71-1.3.05-.19.04.13zm-10.25-.2.05.19-.09-.07z"/>
  <path fill="#fff" d="M21.95 12.09c.13-.46 1.16-1.3.96-.77q-.08.2-.1.57c-.02.56-.19 1.3-.69 1.78-.2.34-.25-.03-.3-.23l-.05-.07q.05.39.01.82c.19-.16.42-.31.58-.47.27-.28.23-.09.22.03 0 .85-.57 1.54-1.18 1.75-.58.27-.24-.36-.17-.6a1.8 1.8 0 0 1 .19-2c-.29-.5-.21-1.11-.34-1.58-.17-.47.77.3.87.75z"/>
  <path fill="#fff" d="M7.39 11.29c.14.08.46.35.66.8.1-.46 1.04-1.22.87-.75-.13.47-.05 1.07-.34 1.58.53.65.51 1.47.19 2 .06.24.41.87-.17.6a1.9 1.9 0 0 1-1.18-1.75c0-.12-.04-.31.22-.03.15.16.39.31.58.47q-.03-.45.01-.82l-.05.07c-.05.19-.11.57-.3.23a2.6 2.6 0 0 1-.69-1.78c.04-.38-.42-1.03.21-.6z"/>
  <path fill="#f7c608" d="M14.51 6.87c7.26-.77 8.12 9.93.98 10.27-7.28.8-8.24-9.92-.98-10.27m.97 10.06c6.93-.82 5.84-10.3-.97-9.81-6.88.55-5.94 10.26.97 9.81"/>
</svg>
