<svg xmlns="http://www.w3.org/2000/svg" width="30" height="24" viewBox="0 0 30 24">
  <path fill="#4189dd" d="M0 0h30v24H0z"/>
  <path fill="#f9d616" d="m0 15 30 .08v1.97H0v1.98h30V21H0z"/>
  <path fill="#fff" d="M6.25 1.19a.26.26 0 0 1 .5 0l.96 3.1 3.1.96c.23.07.25.36.07.47l-.07.03-3.1.96-.96 3.1a.27.27 0 0 1-.47.07l-.03-.07-.96-3.1-3.1-.96a.27.27 0 0 1-.07-.47l.07-.03 3.1-.96z"/>
  <path fill="#d21034" d="m6.5 2.5-.67 2.17a.2.2 0 0 1-.16.16L3.5 5.5l2.17.67q.08.03.14.1l.02.06.67 2.17.67-2.17q.03-.08.1-.14l.06-.02L9.5 5.5l-2.17-.67a.2.2 0 0 1-.13-.1l-.03-.06z"/>
</svg>
