<svg xmlns="http://www.w3.org/2000/svg" width="30" height="24" viewBox="0 0 30 24">
  <path fill="#071b65" d="M0 0h30v24H0z"/>
  <path fill="#288548" d="M23.25 9.15 22 12.3l-1.25-3.15L22 6z"/>
  <path fill="#fff" d="M19.33 10.24s.23.48.74.48c.52 0 .82-.37.82-.37l.52.66s-.34.22-.34.47c0 0-.22-.21-.14-.4 0 0-.15.15-.26.19 0 0-.04-.22.03-.33 0 0-.25.14-.59.14s-.66-.21-.74-.4c-.07-.18-.04-.44-.04-.44m2.08-.47a.2.2 0 0 1-.14.2l-.09.02H21a.2.2 0 0 1-.21-.22.2.2 0 0 1 .21-.22h.18a.22.22 0 0 1 .23.22m1.15-.3q-.02.21-.23.23h-.18a.2.2 0 0 1-.22-.22c0-.12.1-.22.22-.22h.18q.21.02.23.22"/>
  <path fill="#297f47" d="M22 10.15q-.1.07-.17.04-.1-.03-.14-.14l-.08-.2-.03-.24q0-.13.1-.21l.03-.03q.07-.08.17-.05.08.04.14.15l.07.19.03.25q0 .12-.1.21zm1.08.16c-.12 0-.22-.16-.21-.34v-.23c0-.18.11-.33.23-.32h.04c.12.01.22.16.21.35v.22c0 .19-.1.33-.23.32z"/>
  <path fill="#689f9e" d="M22 9.55c.48-.02 1.18 1.35 1.22 1.53s-.22.7-.4.8c-.2.11-1.04.22-1.27.04s-.25-.66-.3-.8c-.03-.15-.4-.66-.4-.66l-.4-.07.14-.15.48.04.04-.15h-.22s.33-.54 1.11-.58"/>
  <path fill="#fff" d="M22 11.74h-2.22v1.93c0 1.32.5 2.01.9 2.38.41.36 1.32.69 1.32.69s.9-.33 1.31-.7.91-1.05.91-2.37v-1.93z"/>
  <path fill="#3ab1d6" d="M23.63 15.46c-.3 0-.52.33-.81.33s-.52-.3-.78-.3-.48.3-.78.3-.52-.33-.82-.33l-.2.05q.22.34.45.53c.4.37 1.31.7 1.31.7s.9-.33 1.32-.7q.22-.2.45-.55zm0-1.57c-.3 0-.52.33-.81.33s-.52-.3-.78-.3-.48.3-.78.3-.52-.33-.82-.33c-.2 0-.46.21-.63.3q.04.35.12.63c.14-.1.3-.2.48-.2.37 0 .63.33.89.33s.48-.25.74-.25.48.25.74.25.52-.33.89-.33c.15 0 .29.08.41.16q.09-.3.12-.63c-.17-.1-.4-.26-.57-.26m0-1.57c-.3 0-.52.33-.81.33s-.52-.29-.78-.29-.48.3-.78.3-.52-.34-.82-.34c-.21 0-.49.23-.66.32v.72c.2-.12.38-.3.63-.3.37 0 .63.32.89.32s.48-.25.74-.25.48.25.74.25.52-.33.89-.33c.21 0 .38.14.55.26v-.71c-.17-.1-.4-.28-.59-.28"/>
  <path fill="#288548" d="M19.97 14.93q.16.49.4.78L22 13.93l1.62 1.78q.24-.3.41-.78L22 12.76z"/>
  <path fill="#74948f" d="M18.67 15.32c.12-.01.38-.02.48.03.3.14.52.47.52.47s.44.33.48.55c0 0 .33.15.33.3s-.48.29-.63.25-.55-.15-.7-.07-.6.18-.78.14-.4 0-.56 0c-.14 0-.33-.14-.55-.21-.22-.08-.74.07-.82-.15s.52-.44.74-.44c.23 0 .86-.84 1.49-.88"/>
  <path fill="#288548" d="M18.85 15.17s-.07-.33 0-.37.19.11.19.11 0-.4.1-.36c.12.04.16.18.16.18s.1-.29.22-.22c.11.08 0 .3 0 .3s.26.1.18.21c-.07.12-.44.12-.51.15-.08.04-.04.15.03.11s.45-.18.41-.04q-.05.2-.26.19c-.15 0-.4-.08-.4-.08l-.34.22-.04-.04zm-.63-.37c.04.15.08.19.22.19s.26.07.19.14-.26.08-.26.08l.11.29-.04.03-.14-.29-.15.19s-.22-.15-.15-.22.22-.08.15-.15-.19-.3.04-.26c.22.04-.15.11-.15.11M16 16.35c.04-.08.26-.15.26-.15s.04-.3.15-.3.22.23.22.23.04-.15.11-.11.26.22.22.29c-.03.07-.07.33-.22.36-.15.04-.3-.21-.3-.21q0 .02-.22.03c-.15 0-.22-.14-.22-.14m3.37-.59s.11-.33.22-.29.11.18.11.18.34-.03.49.08.14.33-.04.4-.45-.07-.48-.11c-.04-.04-.04.4-.19.4s-.22-.18-.18-.3c.03-.1 0-.21 0-.21s-.3 0-.37.15c0 0 .07-.11.22-.19z"/>
  <path fill="#d1bea7" d="M19.18 10.5s-.1-.22-.48-.07a.7.7 0 0 0-.48.58c-.04.18.08.37-.18.55s-.45 1.31-.15 1.28.37-.08.52.03c.14.11.48.15.7-.1 0 0 .22.32.22.5 0 .19-.07.7.15.77 0 0 .33-.44.33-.88s-.1-.9-.48-1.13c0 0 .15-.1.26-.25s.18-.11.4-.11h.6s-.15-.33-.33-.4-.52-.26-.85 0l-.56.43-.04-.25s.08-.15.23-.3c.14-.14.14-.36.14-.47z"/>
  <path fill="#d1bea7" d="M17.74 14.4c.04 0 .13.76.07 1.06-.1.59-.55 1.24-.85 1.17s-.1-.26-.03-.4.18-.48.1-.73c-.07-.26.71-1.1.71-1.1"/>
  <path fill="#ba8f69" d="M18.27 12.58c.11.22.43.55.73.22 0 0 .11.55-.11.91-.22.37-1.08 1.31-1.08 1.31l-.1-.62z"/>
  <path fill="#bb6c3f" d="M17.78 11.48c.26-.1.63.08.66.3s.08.73.04.95 0 .58-.07.76-.37.37-.41.62c-.04.26-.26.48-.6.84-.33.37-.84.95-1 .88-.14-.08-.33-1.4.12-2.52a5 5 0 0 1 1.26-1.83"/>
  <path fill="#020202" d="M18.74 10.54c.15-.08.26-.04.15.07-.11.1-.3 0-.15-.07"/>
  <path fill="#74948f" d="M25.33 15.32a1 1 0 0 0-.48.03c-.3.14-.52.47-.52.47s-.44.33-.48.55c0 0-.33.15-.33.3s.48.29.63.25.55-.15.7-.07.6.18.78.14.4 0 .55 0 .34-.14.56-.21c.22-.08.74.07.82-.15s-.52-.44-.74-.44c-.23 0-.86-.84-1.49-.88"/>
  <path fill="#288548" d="M25.15 15.17s.07-.33 0-.37-.19.11-.19.11 0-.4-.1-.36c-.12.04-.16.18-.16.18s-.1-.29-.22-.22c-.11.08 0 .3 0 .3s-.26.1-.18.21c.07.12.44.12.52.15.07.04.03.15-.04.11s-.45-.18-.41-.04q.05.2.26.19c.15 0 .4-.08.4-.08l.34.22.04-.04zm.63-.37c-.04.15-.08.19-.22.19s-.26.07-.19.14.26.08.26.08l-.11.29.04.03.14-.29.15.19s.22-.15.15-.22-.22-.08-.15-.15.19-.3-.04-.26c-.22.04.15.11.15.11M28 16.35c-.04-.08-.26-.15-.26-.15s-.04-.3-.15-.3-.22.23-.22.23-.04-.15-.11-.11-.26.22-.22.29c.03.07.07.33.22.36.15.04.3-.21.3-.21q0 .02.22.03c.15 0 .22-.14.22-.14m-3.37-.59s-.11-.33-.22-.29-.11.18-.11.18-.34-.03-.49.08-.14.33.04.4.45-.07.48-.11c.04-.04.04.4.19.4s.22-.18.18-.3c-.03-.1 0-.21 0-.21s.3 0 .37.15c0 0-.07-.11-.22-.19z"/>
  <path fill="#d1bea7" d="M24.82 10.5s.1-.22.48-.07c.37.14.44.4.48.58s-.08.37.18.55.45 1.31.15 1.28-.37-.08-.52.03a.54.54 0 0 1-.7-.1s-.22.32-.22.5c0 .19.07.7-.15.77 0 0-.33-.44-.33-.88s.1-.9.48-1.13c0 0-.15-.1-.26-.25s-.18-.11-.4-.11h-.6s.15-.33.33-.4.52-.26.85 0l.56.43.04-.25s-.08-.15-.23-.3c-.14-.14-.14-.36-.14-.47z"/>
  <path fill="#d1bea7" d="M26.26 14.4c-.04 0-.13.76-.08 1.06.12.59.56 1.24.86 1.17s.1-.26.03-.4-.18-.48-.1-.73c.07-.26-.71-1.1-.71-1.1"/>
  <path fill="#ba8f69" d="M25.63 12.62c-.11.22-.33.5-.63.18 0 0-.11.54.11.91.22.36 1.08 1.31 1.08 1.31l.1-.62z"/>
  <path fill="#bb6c3f" d="M26.22 11.48c-.26-.1-.63.08-.66.3s-.08.73-.04.95 0 .58.07.76.37.37.41.62c.04.26.26.48.6.84.33.37.84.95 1 .88.14-.08.33-1.4-.12-2.52-.44-1.13-1.26-1.83-1.26-1.83"/>
  <path fill="#020202" d="M25.26 10.54c-.15-.08-.26-.04-.15.07.11.1.3 0 .15-.07"/>
  <path fill="#fff" d="M18.4 7.98s.16.37.6.33c.45-.04.78-.15.89.25 0 0-.26.04-.37.22s.18.66.18.66-.3 0-.4-.18c0 0-.04.32-.26.54-.1.1-.34.11-.34.11l.38-.73c.07-.14.14-.32-.19-.1-.33.21-.78.4-1.04.1 0 0 1.08-.47 1.3-.58-.37 0-.4-.04-.74 0-.2.02-.4.11-.4.11s-.05-.3.36-.3c.26 0-.04-.07-.07-.21-.04-.15.1-.22.1-.22m5.67 3s.82-.12.7-.85c-.1-.73-.66-1.24-.55-1.68 0 0-.26.08-.33.3-.15.47.32.86.4.98.15.22.23.48.23.48s-.4-.33-.63 0c0 0 .26-.04.37.07s.18.26.07.4zm2.34-2.49s.37.15.37.37-.19.29-.48.29c0 0 .14-.11.18-.26.04-.14-.07-.4-.07-.4"/>
  <path fill="#288548" d="M20.26 10.1s-.4.1-.45.33c-.03.21-.07.25-.07.25s-.18-.07-.3-.22c-.1-.14-.14-.47-.1-.58.03-.11.18-.44.33-.62.14-.18.22-.55.18-.7s-.22-.29-.22-.29.48 0 .56.3c.07.29-.08.5-.08.5s.08.04.19-.1c0 0 .03.36-.19.43 0 0-.15.22-.22.4s-.2.4-.11.33c.18-.14.48-.03.48-.03M17.8 8.6s-.14.18-.14.3c0 .1.14.36.37.43 0 0-.67-.26-.67-.48s.3-.25.45-.25m6.04.22s.08-.55.48-.51c.41.03 1 .14 1.12.03.1-.1.07-.32.07-.32s.22.03.26.14-.11.26-.11.26.18-.04.3.07l.21.26s-.36-.11-.55-.11-.7-.04-.7-.04.51.3.81.4.52.22.89.11l-.48.3q-.18.12-.52-.04c-.22-.11-.6-.37-.6-.37s0 .26.12.51c.1.26.3.44.3.44s-.34-.07-.49-.22-.15-.47-.15-.47-.18.25-.44.18c0 0 .11-.07.18-.26.08-.18.19-.32.08-.47s-.26-.3-.45-.25c-.18.03-.33.36-.33.36m-1.33.73c-.33.15-.56.36-.52.91 0 0 .19-.36.37-.47 0 0 0 .32.11.62.11.29.41.5.63.54 0 0-.26-.4-.26-.72 0 0 .22.54.6.87l.03-.25s-.15-.15-.18-.33c0 0 .22.29.52.29s.52-.18.55-.44c0 0-.15.07-.4.11-.27.04-.56-.1-.78-.4-.23-.3-.26-.55-.26-.55z"/>
  <path fill="#fff" d="M5.5 9.77V12h4V9.77L12.54 12H15v-1.24L11.24 8H15V4h-2.74L15 2V0h-1.44L9.5 2.98V0h-4v2.8L1.75 0H0v1.9L2.99 4H0v4h3.76L0 10.76V12h2.46z"/>
  <path fill="#b92932" d="m0 1 4.09 3h1.36L0 0zm0 11 5.45-4v1l-4.09 3z"/>
  <path fill="#b92932" d="M8.5 12h-2V7H0V5h6.5V0h2v5H15v2H8.5z"/>
  <path fill="#b92932" d="M15 11.67 10 8v1l4.1 3h.9zM15 0h-.25L9.3 4h1.37L15 .82z"/>
</svg>
