<svg xmlns="http://www.w3.org/2000/svg" width="30" height="24" viewBox="0 0 30 24">
  <path fill="#0868a9" d="M0 0h30v24H0z"/>
  <path fill="#fc0" d="M30 0v24H20V0z"/>
  <path fill="#fff" d="M0 24V0h10v24z"/>
  <path fill="#c09b5a" d="M17.52 10.42c-.23-.24-.51 0-.64-.08-.12-.07-.28-.12-.27.13.02.26.21.38.32.46s.05.34.05.34-.18-.2-.25-.34c-.08-.13-.14-.26-.27-.26-.14 0-.27.19-.19.26s.4.14.4.34.12.4.12.4l-.04.13s-.12-.07-.16-.14.04-.3-.13-.3-.22.38-.11.44.42.41.42.41.14.26.34.38.48.39.48.39-.35.26-.38.41c-.02.16.13.22.11.36-.01.13-.17.06-.3.14-.14.07 0 .26 0 .26h.37l.18-.34v-.25l.38-.08s-.03.14.04.23.36.2.36.41-.11.22-.23.23-.19.16-.19.16h.48l.2-.46c.08-.15.03-.25-.05-.29s-.17-.22-.15-.38c0 0 .17.13.37.1a.5.5 0 0 0 .38-.41c0-.21 0-.41-.2-.49-.2-.07-.16.14-.09.2s.08.33-.02.4c-.1.05-.26.13-.3-.04-.05-.17-.16-.44-.37-.52-.2-.07-.49-.53-.48-.86s.1-1.05-.18-1.34m-5.05 0c.23-.24.5 0 .63-.08.12-.07.28-.12.27.13-.01.26-.2.38-.32.46-.1.09-.05.34-.05.34s.19-.2.26-.34c.07-.13.13-.26.27-.26.13 0 .27.19.18.26-.08.07-.39.14-.39.34s-.12.4-.12.4l.04.13s.12-.07.15-.14c.04-.07-.03-.3.14-.3s.22.38.1.44c-.1.06-.42.41-.42.41s-.13.26-.34.38c-.2.12-.48.39-.48.39s.36.26.38.41c.03.16-.12.22-.1.36 0 .13.16.06.3.14.13.07.1.25.1.25h-.37l-.28-.33v-.24l-.38-.09s.03.15-.04.23-.36.2-.36.42c0 .2.1.21.23.22.12.02.18.16.18.16h-.47l-.21-.46q-.09-.23.06-.29c.08-.03.17-.22.15-.38 0 0-.18.13-.37.1a.5.5 0 0 1-.38-.41c-.01-.2 0-.41.2-.48s.16.13.08.2c-.07.05-.07.32.03.38s.25.14.3-.03.16-.44.37-.52c.2-.07.48-.53.47-.86 0-.33-.1-1.05.19-1.34"/>
  <path fill="#8c8d8f" d="M17.69 11.2c-.18.03-.46.01-.67 0-.08 0-.1.2-.05.22.16.04.6.06.73-.02.05-.03.07-.21-.01-.2"/>
  <path fill="#000" d="M16.82 10.31s-.07.13-.2.15c0 0-.02-.12.06-.17.08-.04.14.02.14.02m.31.22c-.11-.03-.2.05-.09.1.11.03.16-.09.1-.1m.48.3s-.01.45-.23.45c-.23 0-.14-.4 0-.56 0 0-.16.46-.02.47.15.02.25-.37.25-.37"/>
  <path fill="#8c8d8f" d="M12.3 11.2c.17.03.46.01.67 0 .07 0 .1.2.04.22-.16.04-.59.06-.72-.02-.05-.03-.07-.21 0-.2"/>
  <path fill="#000" d="M13.2 10.31s.08.13.22.15c0 0 .01-.12-.07-.17-.07-.04-.14.02-.14.02m-.3.22c.11-.03.2.05.09.1-.11.03-.16-.09-.1-.1m-.48.3s.01.45.23.45c.23 0 .14-.4 0-.56 0 0 .16.46.02.47-.15.02-.25-.37-.25-.37"/>
  <path fill="#ebd11b" d="M15.63 9.45s-.25-.24-.51-.18l-.06-.04v-.26h-.12v.26l-.05.04c-.26-.06-.51.18-.51.18-.4-.16-.78.1-.78.4s.23.44.28.5c.05.04.3.7.3.7h1.64s.26-.66.31-.7c.05-.06.28-.2.28-.5s-.38-.56-.78-.4"/>
  <path fill="#be1827" d="M14.98 9.7v.44l-.16.34s-.15.03-.22-.07-.13-.35-.13-.35.16-.2.26-.26zm-.57.5s-.02.36-.16.45c-.13.1-.27.05-.27.05s.04-.18.15-.34c.11-.15.28-.16.28-.16"/>
  <path fill="#0868a9" d="M14.59 9.55a.4.4 0 0 1 .26 0s0 .34-.17.38c-.15.05-.22-.09-.22-.09s.03-.25.13-.29m-.75.64c-.05-.4.24-.56.38-.25 0 0 .03.42-.14.55s-.23-.14-.24-.3m.39-.57c.03-.15.2 0 .14.16-.04.17-.2.11-.14-.16"/>
  <path fill="#0868a9" d="M14.26 9.78c.08-.08.19.08.1.12-.1.04-.16-.06-.1-.12"/>
  <path fill="#be1827" d="M15.14 9.7v.44l.16.34s.16.03.23-.07.13-.35.13-.35-.17-.2-.26-.26c-.1-.05-.26-.1-.26-.1m.58.5s.02.36.15.45c.14.1.27.05.27.05s-.04-.18-.15-.34c-.1-.15-.27-.16-.27-.16"/>
  <path fill="#0868a9" d="M15.42 9.55c-.12-.06-.26 0-.26 0s0 .34.16.39.23-.1.23-.1-.04-.24-.13-.29m.75.64c.04-.4-.24-.55-.39-.24 0 0-.02.41.15.54s.23-.14.24-.3m-.39-.57c-.03-.15-.2 0-.15.16.05.17.22.11.15-.16"/>
  <path fill="#0868a9" d="M15.75 9.78c-.08-.08-.19.08-.1.12.1.04.16-.06.1-.12"/>
  <path fill="#be1827" d="M14.19 10.93c0-.15.36-.28.8-.28s.8.13.8.28-.36.28-.8.28-.8-.13-.8-.28"/>
  <path fill="#020202" d="M15 10.88h-1.56v2.55c0 1 1.56 1 1.56 1s1.55 0 1.55-1v-2.55z"/>
  <path fill="#4c86c7" d="M15 11.05h-1.4v2.38c0 .83 1.39.82 1.39.82s1.38.01 1.38-.82v-2.38z"/>
  <path fill="#a5a7a9" d="M16.97 9.11c.2-.07.37-.35.37-.35s-.33.04-.53 0a1 1 0 0 1-.36-.18c.15-.26-.1-.42-.56-.48-.35-.04-.9-.05-.9-.05s-.54.01-.9.05c-.46.06-.7.22-.56.48 0 0-.16.14-.36.18s-.53 0-.53 0 .16.28.37.35c0 0-.06.2-.31.23 0 0 .53.1.9-.07q.58-.26.66-.36c.06-.06-.15-.19 0-.2.16-.02.74-.04.74-.04s.57.02.72.04c.16.01-.06.14 0 .2q.07.1.65.36c.38.16.9.07.9.07-.24-.04-.3-.23-.3-.23"/>
  <path fill="#fff" d="M15.46 13.96h-.94l.47-.48zm-.68-1.57h-.94l.47-.47zm0-.73h-.94l.47-.47zm0 1.51h-.94l.47-.47zm1.32-.78h-.94l.47-.47zm0-.73h-.94l.47-.47zm0 1.51h-.94l.47-.47z"/>
</svg>
