<svg xmlns="http://www.w3.org/2000/svg" width="30" height="24" viewBox="0 0 30 24">
  <path fill="#fff" d="M7 0h16v24H7z"/>
  <path fill="#c53a28" d="M0 0h8v24H0zm22 24V0h8v24zm-6.72-5.83-.14-2.64a.3.3 0 0 1 .34-.3l2.63.46-.36-.98a.2.2 0 0 1 .06-.22l2.88-2.34-.65-.3a.2.2 0 0 1-.1-.24l.57-1.75-1.66.35a.2.2 0 0 1-.22-.12l-.32-.75-1.3 1.39a.2.2 0 0 1-.34-.18l.63-3.22-1 .58a.2.2 0 0 1-.28-.08l-1.02-2-1.02 2a.2.2 0 0 1-.26.09l-.02-.01-1-.58.63 3.22a.2.2 0 0 1-.34.18l-1.3-1.4-.32.76a.2.2 0 0 1-.22.12l-1.66-.35.57 1.75a.2.2 0 0 1-.1.24l-.65.3 2.88 2.34a.2.2 0 0 1 .06.22l-.36.98 2.63-.46a.3.3 0 0 1 .34.23v.07l-.14 2.64z"/>
</svg>
