<svg xmlns="http://www.w3.org/2000/svg" width="30" height="24" viewBox="0 0 30 24">
  <path fill="#fbd50c" d="M0 24h30V0H0z"/>
  <path fill="#cc0504" d="M30 18.67v2.66H0v-2.66zm0-5.34V16H0v-2.67zM30 8v2.67H0V8zM0 2.67h30v2.66H0z"/>
  <path fill="#0f47af" d="m0 24 15-12L0 0"/>
  <path fill="#fff" d="m4.89 10.4-.1.27H3.4l-1.4.02 1.13.82 1.13.82L3.39 15l1.11-.8 1.14-.83c.04-.02.1.02 1.17.8l1.14.82-.43-1.34Q7.3 13 7.1 12.31l1.13-.82 1.12-.8-1.4-.01H6.57l-.01-.04L5.68 8c0-.01-.17.46-.35 1.04z"/>
</svg>
