<svg xmlns="http://www.w3.org/2000/svg" width="30" height="24" viewBox="0 0 30 24">
  <path fill="#eee" d="M0 0h30v24H0z"/>
  <path fill="#00247d" d="M26.36 20.37c1.68 0 1.68.98 3.36.98l.28-.01v1.7l-.06.05-.22.02c-1.68 0-1.68-.9-3.36-.9-1.67 0-1.67.93-3.36.93-1.67 0-1.67-.93-3.36-.93-1.67 0-1.67.93-3.34.93-1.68 0-1.68-.93-3.36-.93s-1.68.93-3.36.93-1.68-.93-3.35-.93-1.68.93-3.36.93c-1.5 0-1.66-.74-2.87-.9V20.4c1.21.16 1.37.89 2.87.89 1.68 0 1.68-.92 3.36-.92 1.67 0 1.67.92 3.35.92s1.68-.92 3.36-.92 1.68.92 3.35.92 1.68-.92 3.33-.92c1.7 0 1.7.92 3.33.92 1.73 0 1.73-.92 3.41-.92m0-3.93c1.68 0 1.68.98 3.36.98l.28-.01v1.76h-.28c-1.68 0-1.68-.89-3.36-.89-1.67 0-1.67.93-3.36.93-1.67 0-1.67-.93-3.36-.93-1.67 0-1.67.93-3.34.93-1.68 0-1.68-.93-3.36-.93s-1.68.93-3.36.93-1.68-.93-3.35-.93-1.68.93-3.36.93c-1.5 0-1.66-.74-2.86-.9v-1.84c1.2.16 1.36.89 2.86.89 1.68 0 1.68-.92 3.36-.92 1.67 0 1.67.92 3.35.92s1.68-.92 3.36-.92 1.68.92 3.36.92c1.67 0 1.67-.92 3.32-.92 1.7 0 1.7.92 3.33.92 1.74 0 1.73-.92 3.41-.92m0-3.93c1.69 0 1.69.98 3.36.98l.29-.01v1.76h-.29c-1.67 0-1.67-.89-3.36-.89-1.67 0-1.67.93-3.35.93s-1.68-.93-3.36-.93c-1.67 0-1.67.93-3.35.93s-1.68-.93-3.36-.93-1.68.93-3.36.93c-1.67 0-1.67-.93-3.35-.93s-1.68.93-3.36.93c-.75 0-1.16-.19-1.54-.39l-.28-.15A3 3 0 0 0 0 14.38v-1.84c1.2.16 1.37.89 2.86.89 1.68 0 1.68-.92 3.36-.92s1.68.92 3.35.92 1.68-.92 3.36-.92 1.68.92 3.36.92 1.68-.92 3.33-.92c1.7 0 1.7.92 3.33.92 1.73 0 1.73-.92 3.4-.92m0-3.93c1.69 0 1.69.98 3.36.98l.29-.01v1.76h-.29c-1.67 0-1.67-.89-3.35-.89s-1.68.93-3.36.93-1.68-.93-3.36-.93c-1.67 0-1.67.93-3.35.93s-1.68-.93-3.36-.93-1.68.93-3.36.93c-1.67 0-1.67-.93-3.35-.93s-1.68.93-3.36.93c-1.5 0-1.66-.74-2.86-.9V8.62c1.2.16 1.37.9 2.86.9 1.68 0 1.68-.93 3.36-.93s1.68.92 3.35.92 1.68-.92 3.36-.92 1.68.92 3.36.92 1.68-.92 3.33-.92c1.7 0 1.7.92 3.33.92 1.73 0 1.73-.92 3.4-.92m0-3.93c1.69 0 1.69.98 3.36.98l.29-.01v1.76h-.28c-1.68 0-1.68-.89-3.36-.89s-1.68.93-3.36.93-1.68-.93-3.36-.93c-1.67 0-1.67.93-3.35.93s-1.68-.93-3.36-.93-1.68.93-3.35.93S7.9 6.5 6.22 6.5s-1.68.93-3.36.93c-.75 0-1.16-.19-1.54-.39l-.28-.15A3 3 0 0 0 0 6.52V4.68c1.2.16 1.37.9 2.86.9 1.68 0 1.68-.93 3.36-.93s1.68.92 3.36.92c1.67 0 1.67-.92 3.35-.92s1.68.92 3.36.92 1.68-.92 3.33-.92c1.7 0 1.7.92 3.33.92 1.73 0 1.73-.92 3.4-.92m0-3.93c1.69 0 1.69.98 3.37.98l.27-.01v1.76h-.27c-1.68 0-1.68-.89-3.36-.89s-1.68.93-3.36.93-1.68-.93-3.36-.93c-1.67 0-1.67.93-3.35.93s-1.68-.93-3.36-.93-1.68.93-3.35.93-1.68-.93-3.36-.93-1.68.93-3.36.93c-.75 0-1.16-.19-1.54-.39l-.28-.15A3 3 0 0 0 0 2.59V.75q.57.09.92.29l.4.22c.38.2.8.38 1.54.38 1.68 0 1.68-.92 3.36-.92s1.68.92 3.36.92c1.67 0 1.67-.92 3.35-.92s1.68.92 3.36.92 1.68-.92 3.33-.92c1.7 0 1.7.92 3.33.92 1.73 0 1.73-.92 3.4-.92"/>
  <path fill="#c1694f" d="M23.15 21.86a.3.3 0 0 1-.6 0V7.2a.3.3 0 0 1 .3-.3c.17 0 .3.14.3.3z"/>
  <path fill="#dd2e44" d="M20.76 14.18s.13-.3.58-.3.56.23.83.34c.27.1.61.16.61.16v2.26h-2.42s-.09-.85-.23-1.27c-.15-.41-.27-.97.03-1.15s.6-.04.6-.04"/>
  <path fill="#ffcc4d" d="M22.78 13.6v.32s-.63-.05-1.17-.43c-.33-.23-1.03-.52-1.57-.06-.36.3-.33 1.06-.1 1.36.2.3.42.97-.04.51a1.8 1.8 0 0 1-.46-1.62c.14-.46.43-.92 1.14-.92.7 0 1.17.38 1.5.56.27.17.72.22.7.28"/>
  <path fill="#ffcc4d" d="m20.06 15.23.38-.02-.11.58s.38-.29.4-.22l.07.6-.5-.1.3.4-.38.19s-.15-.49-.18-.72c-.04-.24.02-.71.02-.71m.8.3.35-.03s-.31-.7.15-.69c.5.02.16.67.16.67h.38l.05.53-.36-.22v.3l.4.39-1.05.1.27-.44-.02-.33-.25.29z"/>
  <path fill="#dd2e44" d="M24.96 14.18s-.13-.3-.58-.3-.56.23-.83.34a3 3 0 0 1-.62.16v2.26h2.43s.09-.85.23-1.27c.15-.41.27-.97-.03-1.15s-.6-.04-.6-.04"/>
  <path fill="#ffcc4d" d="M22.94 13.6v.32s.63-.05 1.17-.43c.33-.23 1.03-.52 1.57-.06.35.3.33 1.06.1 1.36-.2.3-.42.97.04.51s.6-1.16.46-1.62-.44-.92-1.14-.92-1.17.38-1.5.56c-.27.17-.72.22-.7.28"/>
  <path fill="#ffcc4d" d="m25.66 15.23-.38-.02.11.58s-.38-.29-.4-.22l-.07.6.49-.1-.29.4.38.19s.14-.49.18-.72c.04-.24-.02-.71-.02-.71m-.8.3-.35-.03s.3-.7-.15-.69c-.5.02-.16.67-.16.67h-.38l-.06.53.37-.22v.3l-.4.39 1.05.1-.27-.44.01-.33.26.29zm-1.37-2.85c0 .36-.29.65-.63.65a.64.64 0 0 1-.64-.65c0-.36.29-.65.64-.65a.64.64 0 0 1 .63.65m-1.2-1.43h1.13v.46H22.3z"/>
  <path fill="#ffcc4d" d="M22.59 10.95h.54v4.17h-.54z"/>
  <path fill="#ffcc4d" d="M22.4 14.94h.86l-.24.6.54-.3v.8l-.52-.18.45.69h-1.17l.36-.69-.53.13v-.7l.5.23z"/>
  <path fill="#ffcc4d" d="M22.86 16.28c1.12 0 1.82.1 2.62.38 0 0 .05.47-.06.7-.1.24-2.58-.16-2.58-.16z"/>
  <path fill="#ffcc4d" d="M22.89 16.28c-1.12 0-1.83.1-2.62.38 0 0-.06.47.05.7.11.24 2.59-.16 2.59-.16z"/>
  <path fill="#eee" d="M25.77 17.84c0 .36-1.3.64-2.91.64s-2.91-.28-2.91-.64c0-.35 1.3-.64 2.9-.64 1.61 0 2.91.29 2.91.64"/>
  <path fill="#99aab5" d="M24.81 18.08c0 .2-.88.35-1.95.35-1.08 0-1.96-.16-1.96-.35 0-.2.88-.36 1.96-.36 1.07 0 1.95.16 1.95.36"/>
  <path fill="#77b255" d="m21.68 1.73.6.74s.41-.25.43-.2c.02.06-.03.62-.03.62l.29.07-.24.74s.36-.2.34-.13l-.1.7.14.1-.02.7s.15.26.15.2l.14-.92.2.16.07-.45.16-.77.19.29.38-1.29.2.45.45-.52.3-.02.45-.13.1.27h.41s-.21.19-.2.24c.02.05.4.25.34.27s-.97-.07-.97-.07l-.52.52.32.11-.49.29.42.13-.38.29.32-.04-.52.4.52.1-.7.37.16.18-.7.41-.1.3.68-.53.8-.53c.28-.16.5-.47.95-.6.45-.12 1.32.03 1.32.03l-.81.43.16.25-.53.17.08.3-.87.13.02.32-.75.13-.09.3-.5.19.23.2s-.43.14-.37.16.63.07.63.07-.3.25-.24.25l.78.04-.3.22.71.03-.32.26s.6.05.6.1-.26.33-.26.33l.53.05s-.26.27-.2.3c.05.01.74.48.74.48l-.82-.1s-.2.27-.21.21l-.22-.38-.2.22-.21-.44s-.26.15-.24.1c.02-.06-.29-.4-.29-.4l-.07.16-.2-.49-.18.25-.34-.47-.13.2-.47-.41s-.02.27 0 .32c.02.06.35.3.35.3s-.22.08-.22.14c0 .05.43.4.43.4l-.2.14.47.4s-.43.09-.38.12c.06.04.27.33.27.33l-.18.43-.36-.56-.2.06-.03-.47-.2-.02.1-.53-.21.04-.02-.43-.09-.44-.18-.29s-.13.22-.1.27c.01.06.16.4.16.4s-.2.1-.17.16l.24.46s-.44.09-.38.09.2.25.2.25l-.24.09-.1.27s-.28-.3-.26-.25-.16.56-.16.56l-.27-.31.27-1.07-.33-.09-.23.5s-.2-.24-.22-.19c-.02.06-.22.42-.22.42l-.21-.35c.02.06-.27.64-.27.64S20 8.65 20 8.72s-.18.7-.18.7-.29-.48-.27-.39c.02.1-.2.5-.2.5l-.05-.44-.4.23.45-.65.76-.7.58-.44-.38-.05s.55-.2.61-.2c.17-.02-.25-.16-.25-.16l1.01-.31s-.45-.24-.5-.18c-.06.05-.6.16-.6.16l-.07-.41-.56.23s-.1-.38-.11-.33c-.02.06-.45.3-.45.3l-.22-.24-.25.4-.3-.22-.51.16.25-.38-.3-.16.6-.38.13-.25.82.05-.18-.23c.03.05.82.18.82.18l.24-.04.8.3-.65-.53-.56-.11.36-.3-.85-.3.18-.29-1.12-.29.69-.18-.48-.8.98.59.43-.15.22.56.4.24.07.41.2-.09.18.49.24-.07.12.34.35.02-.1-.45.15-.22-.4-.33.35-.16-.51-.42.43-.05-.61-.6.49.02-.5-.56.4-.09z"/>
  <path fill="#071b65" d="M0 0h15v12H0z"/>
  <path fill="#fff" d="M5.5 9.77V12h4V9.77L12.54 12H15v-1.24L11.24 8H15V4h-2.74L15 2V0h-1.44L9.5 2.98V0h-4v2.8L1.75 0H0v1.9L2.99 4H0v4h3.76L0 10.76V12h2.46z"/>
  <path fill="#d22d32" d="m0 1 4.09 3h1.36L0 0zm0 11 5.45-4v1l-4.09 3z"/>
  <path fill="#d22d32" d="M8.5 12h-2V7H0V5h6.5V0h2v5H15v2H8.5z"/>
  <path fill="#d22d32" d="M15 11.67 10 8v1l4.1 3h.9zM15 0h-.25L9.3 4h1.37L15 .82z"/>
</svg>
