<svg xmlns="http://www.w3.org/2000/svg" width="30" height="24" viewBox="0 0 30 24">
  <path fill="#2d693b" d="M0 0h30v24H0z"/>
  <path fill="#000" d="M14 0h2v24h-2z"/>
  <path fill="#f8d047" d="M12 0h2v24h-2z"/>
  <path fill="#fff" d="M16 0h2v24h-2z"/>
  <path fill="#000" d="M30 11v2H0v-2z"/>
  <path fill="#f8d047" d="M30 9v2H0V9z"/>
  <path fill="#fff" d="M30 13v2H0v-2z"/>
  <path fill="#c42936" d="M15 6a6 6 0 1 0 0 12 6 6 0 0 0 0-12"/>
  <path fill="#2d693b" stroke="#000" stroke-width=".1" d="m14.97 6.5.29.72.73-.02-.6.5.28.78-.68-.5-.58.44.19-.74-.6-.42.76-.05zm3.23 1.04-.18.75.6.4-.77.06-.24.8-.26-.81-.73.02.6-.5-.25-.69.65.41zm1 2.04.28.71.73-.02-.59.5.28.78-.69-.5-.57.44.18-.74-.6-.42.77-.05zm.62 2.93-.19.74.6.42-.77.05-.23.8-.26-.81-.73.02.6-.5-.25-.69.65.41zm-2.24 2.04.29.71.73-.02-.6.5.28.78-.68-.5-.58.44.19-.75-.6-.4.77-.06zm-1.99 1.03-.19.74.6.42-.76.05-.24.8-.26-.81-.73.02.6-.5-.25-.69.65.41zm-3.23-1.03.28.71.73-.02-.58.5.24.69-.65-.41-.66.5.26-.8-.6-.42.77-.05zm-1-2.04-.18.74.6.42-.77.05-.23.8-.27-.81-.72.02.59-.5-.25-.69.65.41zm-.62-2.93.29.71.73-.02-.6.5.29.78-.69-.5-.58.44.19-.74-.6-.42.77-.05zm2.24-2.04-.19.75.6.4-.77.06-.23.8-.26-.81-.73.02.6-.5-.25-.69.65.41z"/>
</svg>
