<svg xmlns="http://www.w3.org/2000/svg" width="30" height="24" viewBox="0 0 30 24">
  <path fill="#071b65" d="M0 0h30v24H0z"/>
  <path fill="#fff" d="M5.5 9.77V12h4V9.77L12.54 12H15v-1.24L11.24 8H15V4h-2.74L15 2V0h-1.44L9.5 2.98V0h-4v2.8L1.75 0H0v1.9L2.99 4H0v4h3.76L0 10.76V12h2.46z"/>
  <path fill="#b92932" d="m0 1 4.09 3h1.36L0 0zm0 11 5.45-4v1l-4.09 3z"/>
  <path fill="#b92932" d="M8.5 12h-2V7H0V5h6.5V0h2v5H15v2H8.5z"/>
  <path fill="#b92932" d="M15 11.67 10 8v1l4.1 3h.9zM15 0h-.25L9.3 4h1.37L15 .82z"/>
  <path fill="#ba6747" d="M17.6 16.09c.26-.48.44-.96.64-1.1s1.37-.03 1.6.23.1 1.6-.34 2.35-1.28 1.04-1.59.98-.51-.62-.57-.82.13-.28.57-.14c.44.13 1.09-.98 1.07-1.39-.37-.27-.7-.06-.85.28-.14.33-.53-.4-.53-.4"/>
  <path fill="#d7a896" d="M17.02 17.05c.06.27.31.9.58 1.26-.13-.78.46-.54.42-.22.2.06-.06-.45-.1-.73-.06-.3-.02-.86-.5-.83-.47.03-.44.33-.4.52"/>
  <path fill="#ba6747" d="M26.22 16.09c-.25-.48-.43-.96-.64-1.1-.2-.14-1.37-.03-1.6.23s-.1 1.6.34 2.35 1.28 1.04 1.6.98c.3-.06.5-.62.56-.82.05-.2-.14-.28-.57-.14-.44.13-1.09-.98-1.07-1.39.38-.27.7-.06.85.28.14.33.53-.4.53-.4"/>
  <path fill="#e9cfc6" d="M26.5 16.82c.06-.29-.28-.73-.5-1.16-.88 1.65-3.2 1.87-4.09 1.87s-3.2-.22-4.09-1.87c-.22.43-.56.87-.49 1.16s2.16 1.8 4.57 1.8h.03c2.4 0 4.5-1.51 4.56-1.8"/>
  <path fill="#d7a896" d="M26.8 17.05c-.06.27-.31.9-.58 1.26.13-.78-.46-.54-.41-.22-.2.06.05-.45.1-.73.05-.3.01-.86.49-.83.47.03.45.33.4.52"/>
  <path fill="#fff" d="M21.92 5H17.6v6a6.34 6.34 0 0 0 4.32 6.42s4.33-1.15 4.33-6.42V5z"/>
  <path fill="#0072c4" d="M21.92 17.05c-.47-.14-4.02-1.36-4.02-6.04V5.36h8.04v5.65c0 4.63-3.57 5.9-4.02 6.04"/>
  <path fill="#fff" d="M20.2 10.58c.1-.4.18-.97-.07-1.06a1.4 1.4 0 0 1-.82-.8c-.14-.47-.07-1.53-.2-1.6s-.52.1-.75-.2c-.23-.28-.09-.38.07-.48s.6-.33.58-.42.02-.23.3-.32c.5-.17.9.28 1.07.45.16.17.57.4.76.42s2.45.04 2.71.07.92.2.87 1a6 6 0 0 1-.28 1.7q-.17.2-.18.18s.11.64.1.75c-.02.12-.22.16-.23-.04l-.1-.68-.38-.07s.02.7-.11.9-.47.07-.38-.08a1 1 0 0 0 .13-.44c0-.18-.04-.44-.13-.47s-.52.15-.84.15-1.02-.2-1.15-.09-.3.7-.39 1.04c-.09.33-.23.13-.22-.03s.08-.69-.01-.6-.06.49-.12.62-.23.1-.23.1"/>
  <path fill="#015121" d="M19.18 9.85s.19 1.08.9 1.55c.7.47 3.67.34 4.18-.02s.97-1.24.97-1.24-.41 0-.56-.16c-.42.23-.66.13-.75-.01-.33.33-.3.13-.34.03-.29.33-.7.13-.84.01-.29.2-.72.08-.8-.04-.34.29-.83.22-.93.09-.21.36-.53.23-.7.11-.25.23-.35-.03-.44-.19-.2.35-.53.1-.7-.13"/>
  <path fill="#fff" d="M17.74 11.21s.44.06.79-.26.94-.47 1.37 0c.43.48.92.46 1.3.07.37-.39.94-.57 1.47-.04.53.54 1 .3 1.31 0s.98-.5 1.41 0c.44.5.74.23.74.23l-.19 1.33s-.13.03-.53-.32-.97-.47-1.37-.04a.97.97 0 0 1-1.44.03c-.44-.42-.94-.38-1.32-.05-.37.33-1.02.5-1.54 0-.52-.49-.96-.24-1.22.02a2 2 0 0 1-.61.36zm.44 2.37a1 1 0 0 0 .35-.2c.35-.32.94-.48 1.37 0 .43.47.92.46 1.3.07.37-.4.94-.58 1.47-.04s1 .3 1.31 0c.32-.31.98-.5 1.41 0q.14.14.25.21c.07.29-.33.94-.39.9-.38-.25-.86-.3-1.21.08a.97.97 0 0 1-1.44.03c-.44-.42-.94-.38-1.32-.05-.37.34-1.02.5-1.54 0-.45-.42-.84-.3-1.1-.08-.05.03-.7-.84-.46-.92m1.13 1.89a1 1 0 0 1 .59.3c.43.48.92.46 1.3.07.37-.39.94-.57 1.47-.04s1 .3 1.31 0q.19-.18.46-.26a6 6 0 0 1-2.52 1.71c-.23 0-2.06-.8-2.61-1.78"/>
  <path fill="#000" d="M18.92 6.34c.07-.16.31-.12.39 0 .07.11-.46.16-.39 0"/>
  <path fill="#dd8b59" d="M18.13 13.38c-.09.1 1.1.63 1.1.63s.11.56.2.49.51 0 .51 0 .1 1.7 2 1.7c1.89 0 2.4-1.81 2.4-1.81s.68 0 .76.05c.08.04-.17-.22-.07-.43.1-.22.35-.46.2-.52s-1.66.36-1.66.36.02 1.37-1.64 1.37c-1.65 0-1.44-.9-1.44-.9s-2.23-1.11-2.36-.95"/>
  <path fill="#dd8b59" d="M20.56 14.86a.1.1 0 0 1-.08.08.1.1 0 0 1-.08-.08V11.2a.08.08 0 1 1 .16 0zm1.37.44-.02.05a.07.07 0 0 1-.1-.05v-4.36a.07.07 0 1 1 .12 0zm1.43-.24a.07.07 0 0 1-.14 0V11.2a.07.07 0 0 1 .14 0z"/>
  <path fill="#fecf3d" d="M20 11.79s.13.26.56.14.45-.47.45-.47zm2.38-.58-.98.25s.1.32.47.24c.37-.07.51-.49.51-.49m.43.46s.23.28.55.18.52-.48.52-.48zm-1.66.3-1.23.33s-.12.22-.08.45c.05.23.16.45.16.45s.12-.29.4-.35c.3-.05.5.18.5.18s-.11-.53.26-1.07m.24 0s-.25.14-.24.58c0 .24.24.54.24.54s.13-.24.4-.32c.28-.1.58.15.58.15s-.11-.35-.07-.62.23-.59.23-.59zm1.33.22s-.09.19-.09.4.17.62.17.62.09-.3.4-.37a.5.5 0 0 1 .5.14s-.1-.21-.06-.52.36-.58.36-.58zm-1.8.95-1.07.2s.13.35.54.3c.4-.04.54-.5.54-.5m1.5-.06s-1.03.06-1.03.13.1.33.45.28c.34-.06.59-.4.59-.4m1.35.06-1.02.23s.14.26.5.19c.38-.07.52-.42.52-.42"/>
  <path fill="#ff0100" d="m20.4 11.38-.76.44.76.14zm1.46-.42-.76.43.76.14zm1.44.28-.76.44.76.14z"/>
</svg>
