<svg xmlns="http://www.w3.org/2000/svg" width="30" height="24" viewBox="0 0 30 24">
  <path fill="#0b2364" d="M0 0h30v24H0z"/>
  <path fill="#fff" d="M4 0h4v10H4z"/>
  <path fill="#ce1126" d="M8 0h4v10H8z"/>
  <path fill="#fff" d="M13 0v11H0v-1h12V0zm10.96 12.1-1.7 2.63V9.96h2.27l.84-.96H17.6l.84.96h2.27v4.76l-1.7-2.63-2.48 3.87h1.24L19 13.93l2.48 4.35 2.47-4.35 1.24 2.03h1.24z"/>
  <path fill="#fff" d="M21 11h3.13l-.69.95H21zm-3.22 4.02h2.47v.62h-2.47zm4.95 0h2.47v.62h-2.47zm-1.24 4.19.3 1.02h1.03l-.81.66.3 1.02-.82-.62-.82.6.3-1-.81-.66h1zM16.15 10l.3 1.03h1.03l-.81.63.3 1-.82-.63-.81.6.3-.97-.82-.63h1zm10.67 0 .3 1.03h1.04l-.82.63.3 1-.82-.63-.8.6.29-.97-.82-.63h1.01zm-8.26 7.15.3 1.03h1.03l-.81.64.3 1-.82-.62-.82.6.3-.98-.81-.64h1zm5.86 0 .3 1.03h1.03l-.82.64.3 1-.81-.62-.82.6.3-.98-.81-.64h1z"/>
</svg>
