<svg xmlns="http://www.w3.org/2000/svg" width="30" height="24" viewBox="0 0 30 24">
  <path fill="#fff" d="M0 0h30v24H0z"/>
  <path fill="#ea3323" d="M30 10H17V0h-4v10H0v4h13v10h4V14h13z"/>
  <path fill="#ea3323" d="M9 4.14q-.93.19-1.87.23.04-.93.23-1.87a7 7 0 0 1-1.72 0q.19.93.23 1.87A13 13 0 0 1 4 4.14q.12.86 0 1.72a13 13 0 0 1 1.87-.23 13 13 0 0 1-.23 1.87 7 7 0 0 1 1.72 0 13 13 0 0 1-.23-1.87q.93.04 1.87.23a7 7 0 0 1 0-1.72m12 0q.93.19 1.87.23a13 13 0 0 0-.23-1.87q.86.12 1.72 0a13 13 0 0 0-.23 1.87A13 13 0 0 0 26 4.14a7 7 0 0 0 0 1.72 13 13 0 0 0-1.87-.23q.04.93.23 1.87a7 7 0 0 0-1.72 0q.19-.93.23-1.87-.93.04-1.87.23a7 7 0 0 0 0-1.72M9 19.86a13 13 0 0 0-1.87-.23q.04.93.23 1.87a7 7 0 0 0-1.72 0q.19-.93.23-1.87-.93.04-1.87.23a7 7 0 0 0 0-1.72q.93.19 1.87.23a13 13 0 0 0-.23-1.87q.86.1 1.72 0a13 13 0 0 0-.23 1.87A13 13 0 0 0 9 18.14a7 7 0 0 0 0 1.72m12 0a13 13 0 0 1 1.87-.23 13 13 0 0 1-.23 1.87 7 7 0 0 1 1.72 0 13 13 0 0 1-.23-1.87q.93.04 1.87.23a7 7 0 0 1 0-1.72q-.93.19-1.87.23.04-.93.23-1.87a7 7 0 0 1-1.72 0q.19.93.23 1.87a13 13 0 0 1-1.87-.23q.1.86 0 1.72"/>
</svg>
