<svg xmlns="http://www.w3.org/2000/svg" width="30" height="24" viewBox="0 0 30 24">
  <path fill="#fff" d="M30 24H0V0h30z"/>
  <path fill="#c92a1e" d="M30 24H0v-8h30z"/>
  <path fill="#f3da4a" d="m15.97 17.03-.97-.56-.97.56h-.21v.37h.21l.77.45V20h-1.17v.61h.41v-.27h.4v.27h.36v.14h-.37v.27h-.39v-.27h-.4v.6h1.16v.35h.4v-3.87l.77-.44h.21v-.37zm-.32.19-.65.37-.65-.37.65-.38z"/>
  <path fill="#000" d="M10.21 11.12h5.16v3.55H10.2zm.64-4.53h1.5v2.73h-1.5z"/>
  <path fill="#000" d="M14.63 11.12h5.16v3.55h-5.16zm3.03-4.54h1.49v2.74h-1.5zm-3.88-1.74h2.36v4.3h-2.36z"/>
  <path fill="#c92a1e" d="M20.61 9.68V9.3H21v-.9h-.47v.46h-.57V8.4h-.47V5.63h.18v-.39h.3v-.81h-.61v.37h-.45v-.37h-.88v.37h-.45v-.37h-.52v.81h.17v.39h.16v2.76h-.08v.46h-.65V8.4h-.23V4.88h.25v-.51H17v-.68h-.57v.33h-.47V3.7h-.72v.33h-.47V3.7h-.71v.33h-.47V3.7H13v.68h.31v.51h.26V8.4h-.23v.46h-.65V8.4h-.08V5.63h.15v-.39h.17v-.81h-.51v.37h-.45v-.37h-.88v.37h-.45v-.37h-.62v.81h.3v.39h.18v2.76h-.47v.46h-.57V8.4H9v.92h.38v.37h.32v4.45l-.67.44H9v.57h2.96v.23h6.08v-.23h2.95v-.57h-.03l-.67-.44V9.68zm-6.2-4.15v.82h-.15v-.82zm1.18.82v-.82h.15v.82zm-.67.09V5.29h.15v1.15zm-.52 1.95V7.37c0-.43.38-.55.6-.55s.6.12.6.55v1.49h-1.2zm1.72 5.96h-2.25v-1.6c0-.69.42-1.1 1.13-1.1.83 0 1.12.57 1.12 1.1zm1.81-6.7c0-.28.23-.5.51-.5h.03c.26 0 .45.23.45.5v1.2h-.98v-1.2m-6.86.74v-.74c0-.27.2-.5.46-.5h.03c.28 0 .5.22.5.5v1.2h-.99zm-.28 4.57c0-.44.36-.8.78-.8a.8.8 0 0 1 .79.8v1.15H10.8zm8.42 1.15h-1.57v-1.15c0-.45.35-.8.79-.8a.8.8 0 0 1 .78.8z"/>
</svg>
