<svg xmlns="http://www.w3.org/2000/svg" width="30" height="24" viewBox="0 0 30 24">
  <path fill="#55bbe0" d="M0 24V0h30v24z"/>
  <path fill="#fff" d="M0 8h30v8H0z"/>
  <path fill="#55bbe0" d="m8.28 8.77-.3.93H7l.8.57-.31.93.79-.57.79.57-.3-.93.79-.57h-.98zm.3 4.96-.3-.93-.3.93H7l.8.57-.31.93.79-.57.79.57-.3-.93.79-.57zm6.72-2.02-.3-.93-.3.93h-.98l.8.58-.31.93.79-.58.79.58-.3-.93.79-.58zm5.93-1.44-.3.93.79-.57.79.57-.3-.93.79-.57h-.98l-.3-.93-.3.93h-.98zm.8 3.46-.31-.93-.3.93h-.98l.8.57-.31.93.79-.57.79.57-.3-.93.79-.57z"/>
</svg>
