<svg xmlns="http://www.w3.org/2000/svg" width="30" height="24" viewBox="0 0 30 24">
  <path fill="#b9291d" d="M0 0h30v24H0z"/>
  <path fill="#f2d347" d="M20.45 2.32c-4.57-.43-3.79-.33-5.1 1.16a9 9 0 0 0-.88-.32 6 6 0 0 0-2.48-.24c-.89.14-1.45.5-2.4.53l.12.11q.14.1.32.17c.68.26 1.83.24 2.4-.28 1.01.1 1.26.38 1.52.7-.44-.07-.91-.17-1.32.27-.44.17-1.52-.36-1.49.44.6-.47 1.94.03 2.53.43 1.54.05 3.74-.85 5.38-.87h-1.6l1.91-.38h-2.22c-.04-.05-.14-.11-.21-.16.52-.35.98-.96 1.1-1.26a14 14 0 0 0 1.73-.15zm-1.13 9.38 1.66-.53-1.96-.24a3 3 0 0 1 1.64-.5 3 3 0 0 0-1.64-.3l1.36-1.09-1.92.49a3 3 0 0 1 1.35-1.06 3 3 0 0 0-1.64.32l.88-1.51-1.62 1.14a3 3 0 0 1 .88-1.47 3 3 0 0 0-1.41.89l.27-1.73-1.1 1.65a3 3 0 0 1 .3-1.69q-.69.54-1 1.34l-.38-1.7-.42 1.93a3 3 0 0 1-.34-1.68 3 3 0 0 0-.45 1.6l-.96-1.45.3 1.96a3 3 0 0 1-.92-1.45 3 3 0 0 0 .16 1.67l-1.42-1.01.99 1.71a3 3 0 0 1-1.38-1.01q.17.85.75 1.49l-1.7-.43 1.55 1.24a3 3 0 0 1-1.66-.44q.48.72 1.24 1.12L9 11.17l2.73.87c.2 3.43 5.38 4 6.36.74a3.2 3.2 0 0 1 2.66-.2 3 3 0 0 0-1.43-.88"/>
  <path fill="#182c6d" d="M30 13v11H0V13z"/>
  <path fill="#fff" d="M30 15.23a8 8 0 0 0-1.82.5c-1.5.6-2.95.6-4.44 0a8.5 8.5 0 0 0-6.23-.02 7 7 0 0 1-5.02 0 8.5 8.5 0 0 0-6.23.02 5.7 5.7 0 0 1-4.44 0 8 8 0 0 0-1.82-.5v2.12q.53.11 1.05.31 3 1.2 6 0 2.23-.9 4.73.02a9.2 9.2 0 0 0 6.45 0 6.4 6.4 0 0 1 4.73-.02q3 1.2 6 0 .52-.2 1.04-.31zm0 4.2a8 8 0 0 0-1.82.5c-1.5.6-2.95.6-4.44 0a8.5 8.5 0 0 0-6.23-.02 7 7 0 0 1-5.02 0 8.5 8.5 0 0 0-6.23.02 5.7 5.7 0 0 1-4.44 0 8 8 0 0 0-1.82-.5v2.12q.53.11 1.05.31 3 1.2 6 0 2.23-.9 4.73.02a9.2 9.2 0 0 0 6.45 0 6.4 6.4 0 0 1 4.73-.02q3 1.2 6 0 .52-.2 1.04-.31zm0-8.37a8 8 0 0 0-1.82.5c-1.5.59-2.95.6-4.44 0a8.5 8.5 0 0 0-6.23-.02 7 7 0 0 1-5.02 0 8.5 8.5 0 0 0-6.23.01 5.7 5.7 0 0 1-4.44 0 8 8 0 0 0-1.82-.5v2.13q.53.11 1.05.31 3 1.2 6 0 2.23-.9 4.73.01a9.2 9.2 0 0 0 6.45 0 6.4 6.4 0 0 1 4.73 0q3 1.18 6 0 .52-.22 1.04-.32z"/>
</svg>
