<svg xmlns="http://www.w3.org/2000/svg" width="30" height="24" viewBox="0 0 30 24">
  <path fill="#0f7562" d="M0 0h30v24H0z"/>
  <path fill="#ffde23" d="M11.12 6.15a.1.1 0 0 1 .04-.1.1.1 0 0 1 .12 0l.47.35.48-.34a.1.1 0 0 1 .16.11l-.2.56.47.36a.1.1 0 0 1 0 .16l-.05.02-.6-.01-.19.56a.1.1 0 0 1-.19 0l-.17-.57-.6-.01a.1.1 0 0 1-.05-.18l.48-.34zM9.87 8.18a.1.1 0 0 1 .19.02l.11.58.59.07a.1.1 0 0 1 .04.19l-.52.28.11.58a.1.1 0 0 1-.1.12l-.06-.02-.44-.4-.51.28a.1.1 0 0 1-.14-.13l.25-.54-.43-.4a.1.1 0 0 1 .07-.17l.6.07zm8.85-2.14a.1.1 0 0 1 .16.11l-.17.57.48.34a.1.1 0 0 1 .04.1.1.1 0 0 1-.1.08h-.59l-.17.57a.1.1 0 0 1-.1.07.1.1 0 0 1-.09-.06l-.2-.56h-.58a.1.1 0 0 1-.07-.17l.48-.36-.2-.55a.1.1 0 0 1 .1-.14l.05.02.5.34zm1.22 2.16a.1.1 0 0 1 .19-.02l.25.53.58-.07a.1.1 0 0 1 .09.17l-.44.4.25.54a.1.1 0 0 1-.02.11.1.1 0 0 1-.11.02l-.52-.29-.44.4a.1.1 0 0 1-.16-.08l.11-.59-.52-.28a.1.1 0 0 1-.02-.16l.06-.03.59-.07zM15 4.53l.3.9h.95l-.77.57.3.91-.78-.56-.78.56.3-.91-.77-.56h.95z"/>
  <path fill="#ffde23" d="M14.9 4.5a.1.1 0 0 1 .2 0l.27.84h.88a.1.1 0 0 1 .07.18l-.72.52.27.84a.1.1 0 0 1-.04.11.1.1 0 0 1-.11 0L15 6.47l-.72.52a.1.1 0 0 1-.15-.05v-.06l.27-.84-.71-.52a.1.1 0 0 1 .05-.18h.9z"/>
  <path fill="#fff" d="M16.7 17.75a.25.25 0 1 1 0 .5h-3.5a.25.25 0 1 1 0-.5zm2.25-1a.25.25 0 1 1 0 .5h-8a.25.25 0 1 1 0-.5zm1.25-1a.25.25 0 1 1 0 .5H9.7a.25.25 0 1 1 0-.5z"/>
  <path fill="#fff" stroke="#fff" stroke-linecap="round" stroke-linejoin="round" stroke-width=".5" d="M14.95 8c.74.52 1.25 1.65 1.25 2.97q0 .75-.2 1.4.71-.35 1.48-.48c1.42-.25 2.73.04 3.42.66-.43.83-1.57 1.55-2.98 1.8a4.7 4.7 0 0 1-2.97-.35c-.73.4-1.81.56-2.97.35a4.4 4.4 0 0 1-2.9-1.65L9 12.56l.13-.1c.67-.53 1.8-.77 3.04-.6l.25.03a6 6 0 0 1 1.49.48 5 5 0 0 1-.21-1.4c0-1.32.51-2.45 1.25-2.97"/>
</svg>
