<svg xmlns="http://www.w3.org/2000/svg" width="30" height="24" viewBox="0 0 30 24">
  <path fill="#fff" d="M0 0h30v24H0z"/>
  <path fill="#bc271a" d="M30 22.15V24H0v-1.85zm0-3.69v1.85H0v-1.85zm0-3.7v1.85H0v-1.84zm0-3.68v1.84H0v-1.84zm0-3.7v1.85H0V7.38zm0-3.69v1.85H0V3.69zM30 0v1.86H0V0z"/>
  <path fill="#010062" d="M0 0h4v.02h11V14.8H0z"/>
  <path fill="#f6cd46" d="m10.64 4.1.3 2 1.12-1.67-.6 1.93 1.74-1.02-1.38 1.48 2.01-.17-1.88.73 1.88.73-2.01-.16 1.38 1.48-1.74-1.02.6 1.93-1.13-1.68-.3 2-.28-2-1.13 1.68.6-1.93-1.74 1.02 1.38-1.48-2.02.16 1.89-.73-1.89-.73 2.02.17-1.38-1.48 1.74 1.02-.6-1.93 1.13 1.68z"/>
  <path fill="#f6cd46" d="M9 4.19a3.5 3.5 0 1 0 0 6.39 3.93 3.93 0 1 1 0-6.4"/>
</svg>
