<svg xmlns="http://www.w3.org/2000/svg" width="30" height="24" viewBox="0 0 30 24">
  <path fill="#fff" d="M0 24V0h30v24z"/>
  <path fill="#cb2e40" d="M15 24V0h15v24z"/>
  <path fill="#fff" d="M7.37 5.07v-.03a.6.6 0 0 0-.5-.46V3H5.02v1.58H5a.6.6 0 0 0-.47.49H2.95v1.86h1.57v.03a.6.6 0 0 0 .5.46V9h1.86V7.42h.02a.6.6 0 0 0 .47-.5h1.57V5.08z"/>
  <path fill="#cb2e40" d="M7.13 9.25H4.76V7.6a1 1 0 0 1-.42-.43H2.7V4.82h1.64a1 1 0 0 1 .42-.43V2.75h2.37v1.64q.29.14.42.43H9.2v2.36H7.55a1 1 0 0 1-.42.43zm-.5-.5V7.2l.2-.04a.4.4 0 0 0 .29-.28l.03-.21H8.7V5.32H7.14l-.02-.22a.4.4 0 0 0-.28-.28l-.21-.03V3.25H5.26v1.54l-.2.03a.4.4 0 0 0-.29.28l-.03.22H3.2v1.36h1.52l.05.2q.07.25.28.3l.21.03v1.54z"/>
</svg>
