<svg xmlns="http://www.w3.org/2000/svg" width="30" height="24" viewBox="0 0 30 24">
  <path fill="#13348f" d="M0 0h30v24H0z"/>
  <path fill="#d07b2c" d="M30 0 0 24 30 6z"/>
  <path fill="#fff" d="M30 12V6L0 24zM9 4l.2 3.43.73-1.89-.33 2 1.2-1.64-.83 1.84 1.57-1.27-1.27 1.57 1.84-.83-1.64 1.18 2-.32-1.9.72L14 9l-3.43.21 1.89.73-2-.33 1.64 1.19-1.84-.83 1.27 1.57-1.57-1.28.83 1.85-1.19-1.64.33 2-.72-1.9L9 14l-.2-3.43-.73 1.89.32-2-1.18 1.64.83-1.85-1.57 1.28 1.28-1.57-1.85.83L7.54 9.6l-2 .33 1.9-.72L4 9l3.43-.2-1.89-.73 2 .32L5.9 7.21l1.85.83-1.28-1.57 1.57 1.28L7.2 5.9l1.18 1.64-.32-2 .72 1.9z"/>
</svg>
