<svg xmlns="http://www.w3.org/2000/svg" width="30" height="24" viewBox="0 0 30 24">
  <path fill="#fff" d="M0 0h30v24H0z"/>
  <path fill="#13348f" d="M30 15 0 0v24h30l-18-9z"/>
  <path fill="#cb2e40" d="M1.36 23V2l24.22 12h-18l18 9z"/>
  <path fill="#fff" d="M5.28 12.64a3 3 0 0 0 3-3 3.2 3.2 0 0 1-1.35 1.59l-.26-.2.5-.37-.6-.16.32-.54-.63.09.1-.62-.55.32-.16-.61-.37.5-.38-.5-.16.6-.54-.31.1.62-.63-.09.32.54-.61.16.5.38-.25.19a3.2 3.2 0 0 1-1.35-1.59 3 3 0 0 0 3 3m1.97 6.3 1.25-.54-1.25-.52.81-1.08-1.34.16.17-1.34-1.09.81-.52-1.24-.53 1.24-1.08-.81.16 1.34-1.34-.16.81 1.08-1.24.52 1.24.53-.81 1.08 1.34-.16-.16 1.34 1.08-.81.53 1.24.52-1.24 1.09.81-.17-1.34 1.34.16z"/>
</svg>
