<svg xmlns="http://www.w3.org/2000/svg" width="30" height="24" viewBox="0 0 30 24">
  <path fill="#071b65" d="M0 0h30v24H0z"/>
  <path fill="#fff" d="M5.5 9.77V12h4V9.77L12.54 12H15v-1.24L11.24 8H15V4h-2.74L15 2V0h-1.44L9.5 2.98V0h-4v2.8L1.75 0H0v1.9L2.99 4H0v4h3.76L0 10.76V12h2.46z"/>
  <path fill="#b92932" d="m0 1 4.09 3h1.36L0 0zm0 11 5.45-4v1l-4.09 3z"/>
  <path fill="#b92932" d="M8.5 12h-2V7H0V5h6.5V0h2v5H15v2H8.5z"/>
  <path fill="#b92932" d="M15 11.67 10 8v1l4.1 3h.9zM15 0h-.25L9.3 4h1.37L15 .82z"/>
  <path fill="#b92831" d="m22.5 4.06-.5 1.5h-1.57l1.28.93-.49 1.5 1.28-.93 1.27.92-.49-1.5 1.28-.92h-1.58z"/>
  <path fill="#fff" d="m24 8.31-1.5-1.1-1.52 1.1.58-1.78-1.51-1.1h1.87l.58-1.77.57 1.78h1.87l-1.5 1.1zm-1.5-1.4 1.03.75-.4-1.22 1.04-.75H22.9l-.4-1.22-.4 1.22h-1.27l1.03.75-.4 1.22z"/>
  <path fill="#b92831" d="m22.5 15.08-.5 1.5h-1.57l1.28.92-.49 1.5 1.28-.93 1.27.93-.49-1.5 1.28-.93h-1.58z"/>
  <path fill="#fff" d="m24 19.33-1.5-1.1-1.52 1.1.58-1.78-1.51-1.1h1.87l.58-1.78.57 1.78h1.87l-1.5 1.1zm-1.5-1.41 1.03.75-.4-1.22 1.04-.75H22.9l-.4-1.22-.4 1.22h-1.27l1.03.75-.4 1.22z"/>
  <path fill="#b92831" d="m26.5 8.77-.39 1.21h-1.27l1.03.75-.4 1.2 1.03-.74 1.03.75-.4-1.21 1.04-.75H26.9z"/>
  <path fill="#fff" d="m27.77 12.27-1.27-.92-1.26.92.48-1.5-1.27-.91h1.57l.48-1.49.48 1.49h1.57l-1.27.92zm-1.27-1.23.8.57-.3-.93.78-.57h-.98l-.3-.93-.3.93h-.98l.8.57-.3.93z"/>
  <path fill="#b92831" d="m18.77 9.42-.4 1.2h-1.26l1.02.75-.39 1.21 1.03-.75 1.03.75-.4-1.2 1.03-.76h-1.27z"/>
  <path fill="#fff" d="m20.04 12.9-1.27-.9-1.27.92.49-1.49-1.27-.92h1.56l.49-1.49.48 1.49h1.57l-1.27.92zm-1.27-1.22.79.57-.3-.93.79-.57h-.98l-.3-.93-.3.93h-.98l.79.57-.3.93z"/>
</svg>
