<svg xmlns="http://www.w3.org/2000/svg" width="30" height="24" viewBox="0 0 30 24">
  <path fill="#003da5" d="M0 0h30v24H0z"/>
  <path fill="#00aec7" d="M15.55 15.01c-1.84.2-2.8.15-2.8.15l.3.06c.41.09.94.2 2.03.17 1.38-.03 4.02-.36 5.03-.5s3.45-.09 3.45-.09a17 17 0 0 0-3.4-.3c-.93.03-1.79.14-2.76.28q-.84.12-1.85.23"/>
  <path fill="#00aec7" d="M13.59 14c-2.31.45-4.87-.23-4.87-.23a18 18 0 0 0 2.75-7.64c5.03 2.65 9.83 7.66 9.83 7.66s-1.23-.3-2.4-.28h-.06c-1.16 0-2.69 0-5.25.5"/>
  <path fill="#00aec7" d="M20.9 15.46a7.15 7.15 0 0 1-7.2 3.74l-.1.8a7.95 7.95 0 0 0 8-4.16z"/>
  <path fill="#fff" d="m15.22 4 .1.42.43.03-.37.22.1.42-.32-.28-.37.22.16-.4-.32-.27.43.03z"/>
  <path fill="#fff" d="m17.98 5.17.06-.42-.3.3-.39-.17.2.37-.28.31.42-.07.2.37.06-.43.42-.08z"/>
  <path fill="#fff" d="m20.4 6.44-.2.37.3.3-.42-.06-.2.37-.06-.42-.42-.07.38-.2-.06-.41.3.3z"/>
  <path fill="#fff" d="m22.03 8.85-.32.28.17.4-.37-.22-.32.28.09-.41-.36-.22.42-.05.09-.41.17.39z"/>
  <path fill="#fff" d="m22.3 11.83.4-.15-.41-.11-.03-.43-.23.36-.41-.11.26.33-.23.36.4-.15.27.33z"/>
  <path fill="#fff" d="m22.64 13.14-.42.07-.05.43-.2-.37-.43.08.3-.31-.2-.38.38.18.29-.31-.05.43z"/>
  <path fill="#fff" d="m6.53 13.3.38-.18-.06-.43.3.3.38-.18-.2.37.3.31-.42-.07-.2.38-.06-.42z"/>
  <path fill="#fff" d="m22.12 10.45.37-.22-.42-.03-.1-.42-.17.4-.42-.04.32.28-.17.4.37-.23.32.28z"/>
  <path fill="#fff" d="m19.3 5.48-.14.41.35.25h-.43l-.12.41-.14-.4h-.42l.34-.26-.14-.4.35.25z"/>
  <path fill="#fff" d="m21.06 7.9.27-.33-.42.11-.24-.35-.01.43-.41.11.4.15-.02.43.27-.34.4.15z"/>
  <path fill="#fff" d="m12.56 4.65-.23-.36-.02.43-.4.12.4.14-.02.43.26-.33.4.14-.24-.35.27-.34z"/>
  <path fill="#fff" d="m13.76 4.02.17.39.43-.04-.32.28.17.4-.37-.22-.32.28.1-.42-.38-.21.43-.05z"/>
  <path fill="#fff" d="m10.07 5.83-.35-.25.13.4-.34.27.43-.01.14.4.13-.4h.42l-.35-.26.13-.4z"/>
  <path fill="#fff" d="m7.73 7.7.42.12.23-.36.02.43.42.1-.4.16.02.42-.27-.32-.4.15.23-.36z"/>
  <path fill="#fff" d="m9.02 6.74-.39-.19.2.38-.28.31.41-.08.21.37.06-.42.41-.08-.38-.18.05-.42z"/>
  <path fill="#fff" d="m10.97 4.82.3.3.38-.18-.2.38.3.3-.42-.07-.2.38-.07-.43-.42-.07.39-.19z"/>
  <path fill="#fff" d="m16.68 4.67-.02-.42-.23.35-.42-.1.27.33-.23.35.4-.14.27.32-.02-.42.4-.16z"/>
  <path fill="#fff" d="m6.62 10.4.43-.04.09-.42.17.39.43-.05-.32.29.17.39-.37-.21-.32.28.09-.42z"/>
  <path fill="#fff" d="m6.85 11.73-.4.11.4.15-.02.43.26-.34.4.15-.23-.36.26-.33-.41.12-.24-.36z"/>
  <path fill="#fff" d="m7.46 16.06.3-.31-.21-.38.39.18.29-.3-.05.41.38.19-.42.08-.05.42-.2-.37z"/>
  <path fill="#fff" d="m9.47 17.92-.16.39.36-.22.33.27-.1-.41.36-.23-.42-.03-.1-.42-.17.4-.42-.03z"/>
  <path fill="#fff" d="m8.28 17.27.24-.36-.28-.33.42.1.23-.35.02.42.41.11-.4.16.04.42-.28-.33z"/>
  <path fill="#fff" d="m7.21 14.47-.34.25h.43l.14.4.12-.4H8l-.35-.26.13-.4-.34.25-.35-.25z"/>
  <path fill="#fff" d="m7.06 9 .42.04.17-.4.1.42.42.03-.36.22.1.42-.33-.28-.36.23.16-.4z"/>
  <path fill="#fff" d="m10.6 18.73-.1.42.32-.28.37.2-.17-.38.31-.28-.42.03-.17-.38-.1.42-.42.04z"/>
  <path fill="#fff" d="m11.82 19.77.02-.43-.4-.15.4-.12.02-.42.24.35.41-.12-.26.34.24.35-.4-.14z"/>
  <path fill="#fff" d="M18.9 13.85c2.55.01 3.81.58 3.81.58a16 16 0 0 0-4.19-.13c-.63.03-1.5.15-2.4.28-1.5.2-3.13.42-4.02.34-1.44-.13-2.79-.58-2.79-.58a13 13 0 0 0 2.83.19c.66 0 1.56-.13 2.57-.28a29 29 0 0 1 4.19-.4"/>
  <path fill="#fff" d="M12.71 9.88s-.07-.27-.42-.23c0 0 .23-.1.33-.05s.12.07.1.28m-.85-.48s.08-.02.12-.01c0 0 .04.16.15.22 0 0-.19-.01-.27-.2m1.12.25a.6.6 0 0 0-.44-.24c-.09 0-.3.18-.3.18-.05-.1-.03-.17-.03-.17q.17.03.19.05-.08-.2-.1-.19c.2-.05.44.13.44.13a.8.8 0 0 0-.55-.35c-.06 0-.13.08-.13.08-.4 0-.5.22-.5.22.16.26.5.32.5.32-.59-.07-.58.4-.58.4l.55-.29c-.21 1.2-1.05 1.75-1.12 1.82q-.1.13.07.16c.06 0 .13.04.31-.17q.69-.77.82-1.78l.02.02c.05.14.01.27.02.36.02.1.22.3.22.3s.12-.22.1-.36-.27-.37-.27-.37c.39-.08.41.58.41.58.15-.18.12-.37.12-.37s.31-.23.24-.32"/>
</svg>
