<svg xmlns="http://www.w3.org/2000/svg" width="30" height="24" viewBox="0 0 30 24">
  <path fill="#039" d="M0 24h30V0H0z"/>
  <path fill="#fc0" d="m14.22 5.08.3-.92-.79-.57h.97l.3-.92.3.92h.97l-.79.57.3.92L15 4.5z"/>
  <path fill="#fc0" d="m15 18.67-.3.92h-.97l.79.57-.3.92.78-.57.78.57-.3-.92.79-.57h-.97z"/>
  <path fill="#fc0" d="m7 10.67-.3.92h-.97l.79.57-.3.92.78-.57.78.57-.3-.92.79-.57H7.3z"/>
  <path fill="#fc0" d="m10.22 6.15.78-.57.78.57-.3-.92.79-.57h-.97l-.3-.92-.3.92h-.97l.79.57z"/>
  <path fill="#fc0" d="m8.86 9.08-.3-.92.78-.57h-.97l-.3-.92-.3.92H6.8l.79.57-.3.92.78-.57z"/>
  <path fill="#fc0" d="M9.34 15.59h-.97l-.3-.92-.3.92H6.8l.79.57-.3.92.78-.57.79.57-.3-.92z"/>
  <path fill="#fc0" d="M12.27 18.52h-.97l-.3-.93-.3.93h-.97l.79.57-.3.92.78-.57.78.57-.3-.92z"/>
  <path fill="#fc0" d="m23 10.67.3.92h.97l-.79.57.3.92-.78-.57-.78.57.3-.92-.79-.57h.97z"/>
  <path fill="#fc0" d="M19.78 6.15 19 5.58l-.78.57.3-.92-.79-.57h.97l.3-.92.3.92h.97l-.79.57z"/>
  <path fill="#fc0" d="m21.14 9.08.3-.92-.78-.57h.97l.3-.92.3.92h.97l-.79.57.3.92-.78-.57z"/>
  <path fill="#fc0" d="M20.66 15.59h.97l.3-.92.3.92h.97l-.79.57.3.92-.78-.57-.79.57.3-.92z"/>
  <path fill="#fc0" d="M17.73 18.52h.97l.3-.93.3.93h.97l-.79.57.3.92-.78-.57-.78.57.3-.92z"/>
  <path fill="#ffcd00" d="M20.89 12.02a5.96 5.96 0 1 1-11.91 0 5.96 5.96 0 0 1 11.91 0"/>
  <path fill="#d80000" d="M14 17.9V13H9.06A6 6 0 0 0 14 17.9"/>
  <path fill="#d80000" d="M16 17.88A6 6 0 0 0 20.8 13H16z"/>
  <path fill="#d80000" d="M20.8 11A6 6 0 0 0 16 6.16V11z"/>
  <path fill="#d80000" d="M14 6.14A6 6 0 0 0 9.07 11H14z"/>
</svg>
