<svg xmlns="http://www.w3.org/2000/svg" width="30" height="24" viewBox="0 0 30 24">
  <path fill="#fff" d="M0 24h30V0H0z"/>
  <path fill="#f0282d" d="M13.9 4.13c-1.58-.36-3.74.03-5.78 1.2-3.2 1.82-4.89 4.82-3.78 6.71.7 1.2 2.38 1.67 4.34 1.37-.9-.2-1.6-.65-2-1.33-1.11-1.89.58-4.9 3.78-6.71a10 10 0 0 1 3.44-1.24"/>
  <path fill="#00a651" d="M13.93 11.58c.48 1.54 1.9 3.18 3.95 4.35 3.19 1.81 6.67 1.76 7.78-.13.7-1.21.27-2.87-.97-4.4.27.87.24 1.7-.16 2.38-1.1 1.89-4.6 1.95-7.79.13a10 10 0 0 1-2.81-2.33"/>
  <path fill="#0078d0" d="M11.76 7.87c-1.1 1.18-1.83 3.22-1.83 5.54 0 3.64 1.79 6.59 4 6.59 1.42 0 2.66-1.2 3.37-3.02a3 3 0 0 1-2.17 1.04c-2.2 0-4-2.94-4-6.58 0-1.31.23-2.54.63-3.57"/>
</svg>
