<svg xmlns="http://www.w3.org/2000/svg" width="30" height="24" viewBox="0 0 30 24">
  <path fill="#f4e109" d="M0 0v24h30V0z"/>
  <path fill="#da251c" d="M16 20.23 30 22V2H2v20"/>
  <path fill="#29166f" d="M16 12.27V2H9z"/>
  <path fill="#29166f" d="M16 12.27 30 2h-7.01z"/>
  <path fill="#29166f" d="M30 7.13v5.14H2v5.13z"/>
  <path fill="#29166f" d="M30 22v-5L2 7V2z"/>
  <path fill="#f4e109" d="m9 11.6 3.5.59a3 3 0 0 0 0 .75l-3.5.58 3.53-.38q.06.34.18.64L9.48 15.2l3.32-1.23q.06.14.14.27h6.12l.14-.27 3.32 1.23-3.23-1.42q.12-.3.18-.64l3.53.38-3.5-.58a3 3 0 0 0 0-.75l3.5-.59-3.53.38q-.06-.33-.18-.64l3.23-1.42-3.32 1.23a3 3 0 0 0-.4-.65l2.68-2.24-2.82 2.08q-.54-.6-1.3-.91l1.16-3.23-1.36 3.16a3.6 3.6 0 0 0-2.32 0L13.48 6.2l1.16 3.23q-.76.31-1.3.9l-2.82-2.07 2.68 2.24q-.24.3-.4.65L9.48 9.92l3.23 1.42q-.12.3-.18.64z"/>
  <path fill="#fff" d="m16 12 14 10H2z"/>
  <path fill="#e87817" d="M18 18a2 2 0 1 1-4 0 2 2 0 0 1 4 0"/>
  <path fill="#29166f" d="M18 18a2 2 0 0 1-4 0 1 1 0 1 1 2 0 1 1 0 1 0 2 0"/>
  <path fill="#e87817" d="M15.29 18a.29.29 0 1 1-.58 0 .29.29 0 0 1 .58 0"/>
  <path fill="#29166f" d="M17.29 18a.29.29 0 1 1-.57 0 .29.29 0 0 1 .57 0"/>
</svg>
