<svg xmlns="http://www.w3.org/2000/svg" width="30" height="24" viewBox="0 0 30 24">
  <path fill="#00247d" d="M0 .05h30v23.9H0z"/>
  <path fill="#f1b31c" d="M25 3a30 30 0 0 0-1.5 9q0 4.24 4.5 6H4zm5 17v2H0v-2z"/>
  <path fill="#fff" d="m11 5.9.24.76H12l-.62.48.24.76-.62-.47-.62.47.24-.76-.62-.48h.76zm-3.42-4 .37 1.14h1.2l-.97.71.37 1.15-.97-.7-.98.7.37-1.15-.97-.7h1.2zm0 8 .37 1.14h1.2l-.97.71.37 1.15-.97-.7-.98.7.37-1.15-.97-.7h1.2zm-4-3 .37 1.14h1.2l-.97.71.37 1.15-.97-.7-.98.7.37-1.15-.97-.7h1.2z"/>
</svg>
