<svg xmlns="http://www.w3.org/2000/svg" width="30" height="24" viewBox="0 0 30 24">
  <path fill="#071b65" d="M0 0h30v24H0z"/>
  <path fill="#fff" d="M5.5 9.77V12h4V9.77L12.54 12H15v-1.24L11.24 8H15V4h-2.74L15 2V0h-1.44L9.5 2.98V0h-4v2.8L1.75 0H0v1.9L2.99 4H0v4h3.76L0 10.76V12h2.46z"/>
  <path fill="#b92932" d="m0 1 4.09 3h1.36L0 0zm0 11 5.45-4v1l-4.09 3z"/>
  <path fill="#b92932" d="M8.5 12h-2V7H0V5h6.5V0h2v5H15v2H8.5z"/>
  <path fill="#b92932" d="M15 11.67 10 8v1l4.1 3h.9zM15 0h-.25L9.3 4h1.37L15 .82z"/>
  <path fill="#c0e6e9" d="M21.33 7.38c-.11-.33-.87-.61-1.2-.48.38-.72 1.02-.94 1.34-1.27s.34-.63.34-.63l.59.96c.3.46.7.72.7.72s-1.05.31-1.77.7"/>
  <path fill="#ae7521" d="M21.49 7.31a.1.1 0 0 1-.07.07.1.1 0 0 1-.07-.07V5.29a.07.07 0 1 1 .14 0z"/>
  <path fill="#c7e9eb" d="M21.97 7.7c-.55 0-1.43-.02-1.5-.17s-.11-.56-.11-.56.65.32 1.54.32c.88 0 1.45-.32 1.45-.32s0 .54-.26.64c-.18.08-.5.1-1.12.1"/>
  <path fill="#9fc2ff" d="M18.03 10.01c-.1.26-.12.6.08.73.19.14.5-.14.5-.14s-.56-.05-.58-.59"/>
  <path fill="#00a3d6" d="M19.28 10.45c-.24-.22-.75-.05-.75-.05s.06-.3.22-.39c-.43-.04-.65.08-.8.44-.16-.2.08-.67.08-.67s.55-.33 1.07 0c.44-.6.5-1.64-.02-1.55.14-.35 1.13-.13.94.47s-.5.82-.5.82.52-.48.87-.26c.36.21.5 1.23-.26.9-.77-.34-.9-.13-.92 0-.02.12.07.29.07.29"/>
  <path fill="#9fc2ff" d="M21.07 10.27c-.33.96-.98.96-.98.96s.04-.33.17-.48c-.55.21-1.32-.12-1.16-.97.13.54.67.72 1.17.48.5-.25.85-.14.8 0"/>
  <path fill="#00a3d6" d="M17.46 8.85c-.09-.16.13-.43.43-.33-.2.22-.1.44 0 .6s-.32-.1-.43-.27"/>
  <path fill="#9fc2ff" d="M19.5 8.18c-.24-.08-.42.05-.42.05s-.13-.3-.53-.18-.64-.03-.64-.03.13.42.73.42c-.37.48-1 .57-1.18.4.1.24.46.52.6.53.12.01.8-.39.94-.85.03-.08.1.02 0 .18s-.19.34-.13.62c.1-.16.3-.17.4-.41s.01-.5.23-.58 0-.15 0-.15"/>
  <path fill="#8da8c3" d="M22.62 11.79c-.4 0-.43-.68-.43-.68s-.12.05-.46.34-.85.34-.85.34-.4-.43.07-.94c-.02-.51-.6-1.04-.6-1.04l-.48-.1s1.14-1.12 1.98-1.19.89.31.82 1.08a2.5 2.5 0 0 0 .17 1.25s.72.94-.22.94"/>
  <path fill="#cc1530" d="M20.51 9.37c-.08.1-.08.14.17.13h.4s-.54.28-.87.13c.05-.17.3-.26.3-.26m1.86 1.65s.35-.21.48.16c.12.37-.02.4-.2.42-.16.01-.28-.58-.28-.58"/>
  <path fill="#9fc2ff" d="M23.56 9.95c-.1.25-.11.8.45 1 .1-.41.03-.66-.45-1m1.22.27c.13-.13.04-.63-.34-.44-.39.2-.56.14-.66.08.07-.12.34-.2.34-.2s-.5.03-.62-.38c.3.08.44 0 .44 0s-.16-.11-.16-.2c.22-.08.53.16.53.16s-.11-.18-.13-.6.32-.57.58-.37c-.25.3.04.86.15 1.34.47-.34 1.05-.26 1.08.27.02.54-.14.41-.14.41s.2-.5-.54-.43c.32.15.16.3.16.3s-.34-.1-.69.06"/>
  <path fill="#00a3d6" d="M23.1 8.83c-.33-.04-.2.38-.69.54.12.05.35 0 .35 0s-.23.42 0 .86c.2-.17.27-.45.27-.45s0 .5.25.73c.23-.3.12-.65.12-.65s.15.44.65.65c.5.2.83-.26.87-.5s-.07-.32-.07-.32-.42.4-.8.17q.27-.23-.27-.27c-.37-.03-.46-.54-.5-.6zm1.12-.44c.14-.38.63-.44.8-.33.34-.18.69.18.97.07-.12.27-.47.4-.64.31.21.32.8.52 1 .34.22-.2.08.24-.36.38s-.75-.38-.75-.38.1.33 0 .46a.8.8 0 0 1-.5-.72c.02-.25-.2-.43-.52-.13"/>
  <path fill="#9fc2ff" d="M25.99 9.16c.34-.07.6-.35.61-.46s-.17-.44-.61-.26c.38.15.3.62 0 .72"/>
  <path fill="#00a3d6" d="M25.91 9.63c.27.36.2.74.14.82s-.45.21-.6-.05c.33-.03.64-.32.46-.77"/>
  <path fill="#d9a323" d="M21.98 8.87c-.59 0-1.46.3-1.46.3s-.03-.35-.22-.65c-.2-.29-.28-.7-.28-.7s.48.09.53.38-.01.55-.01.55l.58-.16s-.16-.25-.3-.07c-.13.19-.28-.49-.08-.6s.75-.22.75-.22.04.5.07.62-.27.12-.27.12l.05.08h.51s-.17-.19-.17-.49c0-.33.36-.65.36-.65s.32.43.32.68-.2.46-.2.46l.46.09s.17-.34 0-.26-.17-.1-.1-.32.01-.43.01-.43l.7.33s.06.07 0 .34-.35.25-.35.25v.16l.46.12s-.14-.32 0-.53c.13-.2.6-.34.6-.34s-.38.68-.6 1.23q-.66-.3-1.36-.29"/>
  <path fill="#fff" d="M21.99 11.4H19.8v2.64c0 2.25 1.52 2.6 2.17 2.78h.01c.66-.18 2.18-.53 2.18-2.78V11.4z"/>
  <path fill="#179af9" d="M21.97 11.4H19.8v2.57h4.36V11.4z"/>
  <path fill="#179af9" d="M21.98 15.48s-.16-.8-.86-1.51h1.64s-.63.64-.78 1.51"/>
  <path fill="#fff" d="M21.98 12.46s-.16.8-.86 1.51h1.64s-.63-.64-.78-1.51m-.2 0c-.04.14-.33.4-.53.47s-.53.31-.57.43c-.04-.13.1-.32.1-.32s-.23.02-.25.32c-.03.3-.5.3-.5.3s.09-.4.33-.65c.25-.24.4-.1.54-.2.15-.08-.05-.29.12-.52s.61-.16.76-.34c.06.14-.38.4-.44.42-.07.03-.1.18-.02.17zm.4 0c.04.14.33.4.53.47s.53.31.57.43c.04-.13-.1-.32-.1-.32s.23.02.25.32c.03.3.5.3.5.3s-.09-.4-.33-.65c-.25-.24-.4-.1-.54-.2-.15-.08.05-.29-.12-.52s-.61-.16-.76-.34c-.06.14.38.4.44.42.07.03.1.18.02.17z"/>
  <path fill="#179af9" d="M21.78 15.47a1 1 0 0 0-.53-.47c-.2-.07-.53-.31-.57-.43-.04.13.1.32.1.32s-.23-.02-.25-.32c-.03-.3-.5-.3-.5-.3s.09.4.33.65c.25.24.4.1.54.2.15.08-.05.29.12.52s.61.16.76.34c.06-.14-.38-.4-.44-.42-.07-.03-.1-.18-.02-.17zm.4 0c.04-.14.33-.41.53-.47.2-.07.53-.31.57-.43.04.13-.1.32-.1.32s.23-.02.25-.32c.03-.3.5-.3.5-.3s-.09.4-.33.65c-.25.24-.4.1-.54.2-.15.08.05.29-.12.52s-.61.16-.76.34c-.06-.14.38-.4.44-.42.07-.03.1-.18.02-.17z"/>
  <path fill="#000" d="M20.53 9.78c.37.15.69-.05 1.02-.32s.7-.13.8-.09-.12.04-.5.26c-.37.21-.55.28-.57.52-.01.25-.11.1-.16 0s-.07.18 0 .46c.06.29-.05.62-.05.62s-.1-.88-.54-1.45"/>
  <path fill="#d8ab6d" d="M16.9 11.88s.06-.19.32-.33.08-.26-.09-.24c-.16 0-.3.02-.47.48-.18.46-.86 2.46.24 3.54-.32-.15-.61-.78-.61-.78s.03.42.25.84a4.2 4.2 0 0 1-.47-2.93c.1-.82.34-1.35.72-1.37.3-.46.87-.22 1.29.14.42.37.63.72.63.72s.05-.68.37-.62.78.3.85.46-.4.04-.5-.06c-.08-.1-.26-.22-.35-.12s-.15.57-.15.57.22-.43.36-.39.75.6.73.78c-.02.2-.18-.1-.35-.23-.17-.12-.3-.36-.38-.32s-.38.72-.4.78.07.06.2-.12c.12-.17.26-.36.33-.36s.61.73.6.9c0 .16-.09.31-.15.35-.07.04.03-.19-.12-.46-.16-.27-.3-.55-.36-.51-.07.04-.36.5-.41.61-.05.12.33-.26.47-.2s.35.8.35 1.02a.6.6 0 0 1-.2.45c-.07.07-.05-.23 0-.37.04-.14-.06-.32-.1-.54-.04-.21-.08-.42-.11-.36-.04.07-.63.58-.68.62s.18 0 .37-.1c.2-.1.3-.1.32.1s.06.8-.23.96c-.3.17.02-.2.06-.38s.02-.57-.06-.53-.62.44-.78.5-.08.5.09.74c.16.25.53.49.6.27.08-.22.36-.45.52-.33s.08.33.08.33.21 0 .19.23-.32.46-1.03.36c-.72-.1-1.62-.38-1.57-1.64-.27-1.1-.06-1.58-.02-1.88.04-.31.15-.76.11-.8-.04-.03-.33.06-.46.22m10.2 0s-.06-.19-.32-.33-.08-.26.09-.24c.16 0 .3.02.47.48.18.46.86 2.46-.24 3.54.32-.15.61-.78.61-.78s-.03.42-.25.84c.65-1.02.57-2.11.47-2.93s-.34-1.35-.72-1.37c-.3-.46-.87-.22-1.29.14-.42.37-.63.72-.63.72s-.05-.68-.37-.62-.78.3-.85.46.4.04.5-.06c.08-.1.26-.22.35-.12s.15.57.15.57-.22-.43-.36-.39-.75.6-.73.78c.02.2.19-.1.35-.23.17-.12.3-.36.38-.32s.38.72.4.78-.06.06-.19-.12-.27-.36-.34-.36-.61.73-.6.9c0 .16.09.31.15.35.07.04-.03-.19.13-.46.15-.27.29-.55.35-.51.07.04.36.5.41.61.06.12-.33-.26-.47-.2s-.35.8-.35 1.02a.6.6 0 0 0 .2.45c.07.07.05-.23 0-.37-.04-.14.06-.32.1-.54.04-.21.08-.42.11-.36.04.07.63.58.68.62s-.18 0-.37-.1-.3-.1-.32.1-.06.8.23.96c.3.17-.02-.2-.06-.38s-.02-.57.06-.53.62.44.78.5.08.5-.09.74c-.16.25-.53.49-.6.27-.08-.22-.36-.45-.52-.33s-.08.33-.08.33-.21 0-.19.23.32.46 1.04.36c.71-.1 1.61-.38 1.56-1.64.27-1.1.06-1.58.02-1.88-.03-.31-.15-.76-.11-.8.04-.03.33.06.46.22"/>
  <path fill="#cc1530" d="M19 16.97c.1-.37 1-.7 1.28-.65s.8.25.5.5c-.3.26-.92.48-1.34.57-.43.1-.51-.15-.44-.42m5.97 0c-.1-.37-1-.7-1.28-.65s-.8.25-.5.5c.3.26.93.48 1.35.57.42.1.51-.15.43-.42"/>
  <path fill="#fbfae7" d="M25.24 16.48s-.4-.43-.78-.17c-.39.26-1.5 1.18-2.48 1.18s-2.1-.92-2.48-1.18-.78.17-.78.17.2.1.16.28c-.04.2 0 .53.2.6-.24-.6.6-.3.95.05s1.24.78 1.95.78 1.61-.43 1.96-.78 1.18-.65.94-.05c.2-.07.25-.4.2-.6-.03-.19.16-.28.16-.28"/>
  <path fill="#fbfae7" d="M20.2 16.31c.46-.1 1.05.4 1.15.52s-.05.47-.23.33a1 1 0 0 0-.52-.2c-.21-.04-.5-.33-.19-.44-.13.16 0 .36.2.23s.05-.35-.4-.44m3.63 0c-.45-.1-1.04.4-1.14.52s.05.47.23.33.3-.17.52-.2c.21-.04.5-.33.19-.44.13.16 0 .36-.2.23s-.05-.35.4-.44"/>
</svg>
