<svg xmlns="http://www.w3.org/2000/svg" width="30" height="24" viewBox="0 0 30 24">
  <path fill="#3a8343" d="M0 0h30v24H0z"/>
  <path fill="#c23635" d="M5 0h5v24H5z"/>
  <path fill="#fff" d="M18.14 3.46a4.15 4.15 0 0 1-4.33 6.98 4.15 4.15 0 1 0 4.33-6.98M14.18 6.5l.18-.55h.58l-.47-.34.18-.56-.47.34-.47-.34.18.56-.47.34H14zM14 3.82l.18.56.18-.56h.58l-.47-.34.18-.55-.47.34-.47-.34.18.55-.47.34zm2.1 1.1.19.55.18-.55h.58l-.47-.35.18-.55-.47.34-.47-.34.18.55-.47.35zm-3.74 1.74.18-.56-.47.35-.47-.35.18.56-.47.34h.58l.18.55.18-.55h.58zm1.82 1.99.18-.56h.58l-.47-.34.18-.55-.47.34-.47-.34.18.55-.47.34H14z"/>
</svg>
