<svg xmlns="http://www.w3.org/2000/svg" width="30" height="24" viewBox="0 0 30 24">
  <path fill="#00abc2" d="M0 24h30V0H0z"/>
  <path fill="#fff" d="M15.19 5.18c.1.2.13.47.1 1.07q-.05.72 0 .98.03.09.05.09l.05-.18q.07-.27.37-.94a5 5 0 0 0 .37-1.11c.02-.02.09.08.12.16.1.27.08.56-.09 1.2-.1.37-.11.51-.11.74 0 .26 0 .28.06.15q.12-.26.46-.78a5 5 0 0 0 .64-1.2l.03.03c.07.07.1.38.05.62-.03.17-.1.34-.22.61a3 3 0 0 0-.3.98l.09-.12q.14-.2.57-.67c.36-.4.54-.62.69-.89q.09-.17.1-.12.06.07.03.3c-.03.3-.11.5-.44.98-.23.35-.3.5-.36.7-.07.23-.07.24.15.01l.55-.48c.4-.34.63-.55.8-.76.14-.18.17-.2.21-.18s.02.23-.04.4c-.08.25-.2.41-.54.8a3 3 0 0 0-.45.57l-.1.25.1-.07c.13-.1.34-.24.72-.46.54-.32.72-.45.95-.67q.14-.13.18-.12.05-.01.03.05l-.04.16c-.1.32-.28.53-.77.92a3 3 0 0 0-.65.72l.13-.06c.18-.1.35-.18.8-.35a4 4 0 0 0 1.19-.58q.06.02-.03.23c-.13.26-.3.41-.89.76-.15.09-.34.2-.4.25-.12.08-.36.3-.35.32l.11-.04q.23-.1.8-.2a4 4 0 0 0 1.3-.4q.08 0 .05.03-.04.13-.2.3c-.16.18-.36.29-.87.48-.35.14-.52.22-.65.3-.11.08-.25.21-.2.2.15-.06.4-.09.97-.1.43-.02.57-.04 1.02-.15l.3-.06v.05q0 .03-.09.13c-.24.23-.52.35-1.16.5a3 3 0 0 0-.67.2l-.17.16h.12q.24-.02.87.04a4 4 0 0 0 1.38.01c.02.02-.07.14-.12.18a1 1 0 0 1-.42.2q-.21.04-.71.09c-.48.04-.7.07-.89.15l-.09.03.26.04c.14.03.38.08.54.13.75.2.91.24 1.29.27l.23.01-.07.07c-.19.19-.48.23-1.2.18a4 4 0 0 0-1.01.04l.14.04c.17.05.4.15.8.34s.58.27.86.32c.22.05.39.1.4.12s-.2.12-.32.15c-.24.05-.43.03-.99-.11a3 3 0 0 0-.83-.15q-.3-.01-.07.08c.19.08.35.18.76.45l.53.33a3 3 0 0 0 .65.27c.01.03-.08.09-.15.1q-.08.03-.29.02a2 2 0 0 1-.9-.27c-.4-.18-.59-.24-.84-.26l-.13-.01.14.1c.2.12.29.2.68.55a5 5 0 0 0 1.08.81l-.05.04c-.05.04-.27.03-.43 0a2 2 0 0 1-.82-.42c-.37-.24-.6-.36-.84-.4h-.08l.19.18c.1.1.32.36.49.57q.49.6.77.8.17.14.16.19.01.02-.11 0a1.6 1.6 0 0 1-.96-.46l-.3-.27a2 2 0 0 0-.66-.41l.07.1q.19.22.49.75c.31.56.46.77.66.96q.1.1.1.13c0 .04 0 .04-.1.03a1 1 0 0 1-.35-.12 4 4 0 0 1-.7-.71c-.25-.3-.4-.45-.54-.54q-.18-.12-.08.01.14.2.3.66c.26.73.32.85.5 1.1q.19.27.17.33c-.02.01-.23-.08-.35-.16-.2-.14-.36-.32-.6-.74l-.24-.38a2 2 0 0 0-.41-.45q-.05-.04.02.11c.07.18.13.41.2.83a4 4 0 0 0 .3 1c.09.25.11.3.1.31h-.02c-.07 0-.2-.07-.3-.16a3 3 0 0 1-.49-.9 3 3 0 0 0-.43-.8l-.07-.06.03.07c.06.18.08.37.1 1.02.01.5.02.54.13 1q.07.31.04.29l-.2-.15c-.18-.17-.26-.37-.41-.99l-.16-.58a2 2 0 0 0-.18-.38l-.04-.05v.2c.02.23 0 .48-.06.96-.05.39-.06.95-.02 1.11l.01.1c-.01.02-.14-.07-.18-.12-.15-.2-.22-.47-.26-1a4 4 0 0 0-.13-.98q-.07-.22-.07-.1 0 .26-.22 1.02A4 4 0 0 0 15 19q-.06-.02-.15-.15c-.11-.22-.14-.48-.1-1.03a4 4 0 0 0 0-1l-.03-.1-.06.16v.01c-.06.22-.14.41-.35.87a5 5 0 0 0-.4 1.19l-.04-.03c-.13-.13-.18-.49-.1-.87 0-.07.06-.3.12-.51.1-.43.14-.64.12-.8l-.02-.13-.1.18q-.17.33-.4.66a5 5 0 0 0-.62 1.16q-.02.1-.07.03-.08-.08-.08-.33c0-.28.06-.48.28-.95.15-.34.21-.51.25-.68l.04-.27-.05.07q-.12.2-.55.65a4 4 0 0 0-.79 1.03q-.08.13-.08.07l-.02-.22c0-.34.07-.52.42-1.05q.32-.5.38-.72.04-.2.03-.21s-.12.1-.25.24c-.17.18-.32.3-.52.47-.32.24-.63.54-.79.75q-.14.19-.19.18-.02.01 0-.12.01-.27.14-.5c.1-.2.18-.31.42-.58a2 2 0 0 0 .57-.85l-.12.08q-.23.19-.77.5c-.5.3-.68.43-.9.64q-.13.12-.17.12-.05.02-.02-.06c.01-.1.08-.29.14-.39.11-.21.28-.38.7-.72q.32-.24.45-.43l.16-.28-.07.03c-.13.09-.45.23-.68.31-.56.2-.65.24-.78.3l-.31.19c-.18.12-.24.15-.3.17q-.05.03-.03-.06 0-.07.06-.17c.1-.22.31-.4.72-.64.54-.32.67-.42.82-.58.13-.15.13-.15 0-.1-.18.08-.37.13-.78.2-.43.07-.57.1-.9.23-.4.16-.48.19-.49.18s.11-.23.19-.32c.16-.18.4-.3.92-.5q.6-.25.77-.42l.05-.06-.06.03a4 4 0 0 1-1.04.1 3 3 0 0 0-.92.13l-.3.07.04-.1q.13-.25.56-.4l.55-.15c.25-.06.52-.14.6-.17.15-.06.36-.18.35-.2l-.17.01c-.19.02-.4 0-.85-.06a3 3 0 0 0-.91-.04l-.35.03h-.1l.03-.05a1 1 0 0 1 .25-.22c.2-.1.4-.14.97-.18.54-.05.68-.07.88-.15q.27-.09 0-.1a4 4 0 0 1-.89-.19l-.2-.06a4 4 0 0 0-.85-.16L8 11.97l.07-.07c.18-.2.46-.23 1.2-.18.58.05.8.04 1-.02q.05 0 .05-.02l-.14-.04h-.01c-.2-.07-.4-.14-.75-.31a5 5 0 0 0-1.32-.47c-.02-.02.17-.1.29-.14.12-.03.39-.03.58 0l.48.11c.43.11.58.14.8.14h.16l-.23-.12-.59-.35a4 4 0 0 0-1.23-.64q-.03 0 0-.04c.06-.07.12-.08.31-.09.32-.01.5.04 1 .26.14.07.34.15.43.18.15.05.4.1.52.1h.06l-.14-.1a6 6 0 0 1-.63-.51 5 5 0 0 0-1.1-.87c.05-.07.37-.05.6.03.18.06.31.13.64.35.42.27.6.36.84.4l.12.03-.18-.17c-.09-.1-.25-.27-.34-.39a10 10 0 0 0-.93-1q-.16-.12-.17-.2a1.6 1.6 0 0 1 .88.31l.33.29c.26.24.38.34.52.42.1.06.26.13.26.12l-.07-.1q-.16-.19-.46-.7a5 5 0 0 0-.65-.98q-.15-.16-.13-.2c.02-.03.23.04.37.1.24.13.4.26.73.68a3 3 0 0 0 .76.7l-.06-.11a4 4 0 0 1-.33-.77 4 4 0 0 0-.45-.98c-.11-.16-.18-.3-.16-.3a1 1 0 0 1 .3.1c.12.08.33.29.44.44l.22.37a3 3 0 0 0 .6.78l-.05-.13a4 4 0 0 1-.2-.78 4 4 0 0 0-.3-1.08c-.09-.17-.13-.3-.1-.3s.18.09.26.15c.19.15.32.38.53.9.2.5.3.7.48.86q.11.12.06 0a4 4 0 0 1-.07-.86l-.03-.65-.17-.78c.02-.02.14.05.21.12q.08.08.14.18c.12.2.17.36.3.9l.12.48c.04.12.13.33.18.4v-.24c0-.27.01-.38.1-.93q.06-.47.02-.8c-.03-.22-.03-.4 0-.4l.11.1c.1.1.12.13.16.24.07.19.1.39.15.89l.06.59c.02.14.08.35.13.43l.03.05V7.2c.02-.22.07-.43.2-.88.15-.53.17-.67.18-1l.02-.3q.01-.05.08.03zm-.59 2.37a4.3 4.3 0 0 0-3.36 1.94 4.6 4.6 0 0 0-.67 3.5 4.4 4.4 0 0 0 4.2 3.48 4.5 4.5 0 0 0 3-.96c.17-.15.44-.42.59-.6q.25-.33.06-.14-.2.2-.49.36-.78.5-1.74.52c-.53.02-1-.07-1.5-.27a3.63 3.63 0 0 1 1.75-7.02q.99.1 1.93.82l.17.13-.08-.1a4.4 4.4 0 0 0-3.86-1.67m1.38 2.57-.28.76-.02.05-.25-.11-.86-.41-.07-.03.03.06.24.51c.3.62.3.62.27.63-.92.32-1.2.43-1.2.44l.36.13c.3.1.63.22.81.3l.05.02-.12.24-.4.85-.04.08.04-.01 1.15-.53.14.38.3.83.12-.3.31-.86.03-.06.44.21.59.28c.13.06.14.06.13.03l-.24-.51c-.27-.57-.3-.64-.29-.65h.01l.38-.14c.41-.14.81-.3.81-.3a18 18 0 0 1-1.17-.43l-.05-.03.06-.12c.08-.14.44-.91.47-1l.03-.05-.07.03-.52.25c-.52.24-.59.28-.6.26v-.01l-.16-.44-.28-.75-.02.03z"/>
</svg>
