<svg xmlns="http://www.w3.org/2000/svg" width="30" height="24" viewBox="0 0 30 24">
  <path fill="#4b92db" d="M0 0h30v24H0z"/>
  <path fill="#f5f5f5" d="M15 15.93a5.4 5.4 0 1 0-.01-10.8 5.4 5.4 0 0 0 .01 10.8m.62-10.23.46-.17q.98.21 1.8.77l-.2-.02c-.02 0-.06.16-.06.16l.22.09.05-.21q.33.23.63.5l-.32.32h-.05l-.05-.18-.17-.3-.6-.23-.42.2.24.52a4 4 0 0 0-2.01-.62V5.8l.42.14-.17-.31-.25.1v-.32q.28 0 .54.05l-.2.07zm2.8 3.95.1-.04.02-.25q.16.49.19 1.04h-.94l.03-.15.27-.03.22-.37v-.07l-.23.29-.14.03-.09-.1.1-.18-.22-.16-.2.17q-.08-.3-.22-.55l.1-.04.1-.06v-.1l.05-.07-.03-.02-.15.05-.05.14-.06.04q-.14-.23-.32-.44l.52-.52.13-.07-.02-.04.15-.15q.53.56.8 1.3l-.14-.19-.06.03zm-.69 3.42-.28-.28-.1-.28-.06.12-.1-.1.1-.35-.07-.24q.11-.18.2-.38c.02 0 .08-.08.08-.08l.16.02.4-.16-.15-.15-.1-.08-.07-.14-.12-.22v-.08h1.1c-.03.93-.4 1.77-.99 2.4m-5.37-.18.14-.24-.3-1.04-.23-.58.21-.1.06-.17h.14q.1.9.67 1.53l-.61.61zm.34-2.55v.06h-.04v-.07zm3.55 2.18-.05-.02-.6.23-.32-.12-.14.04v-.2l.15-.04.09.02.2.07-.12-.2.24.2.12.03-.03-.16.08-.26.28-.18.02.16-.34.19.07.13.35-.07zm-1.42-1.04-.02-.02h-.06l-.23-.1.24-.02.1-.29v.44zm-1.02-.59-.23-.03.12-.19h.07q0 .12.04.22m1.33-.96.06.02.08.1-.14.15zm.43 1.76-.1.13-.2.1-.06-.11-.04.22-.03.01v-.28h.08l.09.1.07-.08v-.07q.06 0 .12-.04zm-.08-1.45v.15h-.16zm.09.51h.18l.1.08-.04.06-.13-.08-.08.06.04.11-.32-.3h.21zm-.12.44-.17-.02-.12.31h-.03v-.61zm-.89-.8v-.05l-.13.06h-.05l.01-.08.08-.07-.06-.02-.06.1-.07.02v.05h-.06l.04-.17.12-.1.28.27zm-.51.28.03.04.02-.04h.1l-.13.14-.03-.14m.15.42.18-.3-.05-.05.08-.04.01-.03h.13l-.03.02-.01.04h.1l-.08.06-.07.02-.02.07-.22.23zm.65-1.48-.05-.01.04.17h.01v.43l-.23-.23.16-.1-.14-.24.21-.05zm-2.18 1.06v.05l-.02.07v-.12zm.13.33.18.17.14-.1.33.28.36.07.1-.28.11.17-.3.3.04-.12-.18-.03.06.21v.01l-.4.41q-.42-.46-.55-1.08zm1.42.5q.28.22.63.26v.57l-.08.02-.05.3.13-.02v.1l-.2.05-.07.07a2.3 2.3 0 0 1-1.15-.56zm2.33 1.14.2.05h.2l.11.11-.33-.01-.22-.12q.03 0 .04-.03m.2-.55-.07-.06h.13zm.31-2.67h-.2l-.14.12-.1.14-.04-.17.07-.16-.05-.06-.26.17-.05-.03.2-.2.04.01.13-.03-.07-.09.16-.15q.18.22.31.45m-.74-.41-.01-.04-.08.01-.05.1-.23.02.1.19-.29.28-.19-.13.04-.02-.04-.14-.03-.05-.13.14-.28-.07V8.2q.83.06 1.42.59zm-1.47.3q-.13 0-.26.05l.05-.1-.22.17-.2.13-.79-.78q.59-.53 1.42-.6zm-.87.4-.37.07v-.14l-.3-.1-.5.1q.16-.37.42-.67zm-1.2.02.16.03-.19.05zm-.41.67h-.03l.03-.03zm.3 2.66.56-.58q.49.44 1.11.6l-.2.19.43.56.28.01v.42a3.7 3.7 0 0 1-2-.66l.1-.06zm2.46.8.36.02v.08l.22.24q-.28.04-.58.06zm2.26-.73.14.14-.2.17zm.14-5.33-.08.08-.1-.2-.17-.1s-.17-.14-.25-.23q.32.2.6.45m-.64-.48.12.43.29.25.01.02-.56.56q-.67-.6-1.62-.67v-1.1q.97.04 1.76.51m-2.04.6c-.62.02-1.18.27-1.62.66l-.78-.78a3.7 3.7 0 0 1 2.4-1zm-1.81.86q-.46.5-.61 1.18l-.25.44h-.92c.04-.93.4-1.77 1-2.4zm-.99 1.9-.26.56-.37-.14-.07.25a4 4 0 0 1-.09-.68zm-.28 2.8.05.03-.54.54q-.56-.6-.91-1.34l.14.09.95.85zm.25.21.13.12.43-.08a4 4 0 0 0 2.27.8v1.12a5 5 0 0 1-3.38-1.4zm3.1.85a4 4 0 0 0 .7-.08l.02.17.66.49.74-.42.22-.45-.02-.27.14-.33-.03-.03.17-.16.13.13.04.24.14-.06.48.47a5 5 0 0 1-3.38 1.4zm2.98-1.1-.03-.3h-.03a4 4 0 0 0 .95-2.47h1.11a5 5 0 0 1-1.4 3.38zm.9-3.04a4 4 0 0 0-.57-1.92l.47.44.38-.32-.58-.88-.38-.29V7.4l.38-.38a5 5 0 0 1 1.4 3.38zm-4.15-3.87a4 4 0 0 0-2.6 1.08l-.78-.79a5 5 0 0 1 3.38-1.4zM12.07 7.8A4 4 0 0 0 11 10.4H9.89a5 5 0 0 1 1.4-3.38zM11 10.67q.02.61.21 1.18l-.04.15-1.08-.03a5 5 0 0 1-.2-1.3z"/>
  <path fill="#f5f5f5" d="m11.27 16.94 1-.16a.11.11 0 0 0 .07-.19 9 9 0 0 1-1-1.24 5 5 0 0 0-1.05-1.13s.13 1.7 1.42 2.3l-2.1-.55c-.82-.21-1.04-.46-1.04-.46s.64 1.64 2.7 1.43"/>
  <path fill="#f5f5f5" d="M10.28 15.03a6 6 0 0 0-.93-2.42s0 2.2.78 2.93c0 0-1.1-1.05-1.76-1.54-.62-.45-.89-.96-.89-.96s.17 1.38 1.06 2.07c.6.47 1.95.8 1.95.8s-.17-.45-.2-.88"/>
  <path fill="#f5f5f5" d="m8.17 13.4.67.57a.1.1 0 0 0 .19-.08c0-.23.01-.59.06-.8.08-.37.18-1.53-.22-2.37 0 0-.5 1.51-.11 2.77 0 0-.6-.96-1.22-1.69-.33-.38-.45-.83-.45-.83s-.01 1.51 1.08 2.42"/>
  <path fill="#f5f5f5" d="M7.99 11.9c.05.07.16.06.19-.02.09-.25.26-.69.49-1.1.41-.77.22-1.66.22-1.66s-.67 1.14-.86 2.41L8 11.34c-.18-.76-.9-2.68-.9-2.68s-.25 1.05.07 1.88c.16.43.6 1.07.83 1.36"/>
  <path fill="#f5f5f5" d="M7.85 10.22c.02.08.13.08.15 0 .06-.2.2-.5.47-.78a5 5 0 0 0 1.11-1.93s-1.1.9-1.45 1.5c0 0 .03-.83-.08-1.43-.1-.5.1-1 .1-1s-.7.68-.59 1.91c.07.78.2 1.39.29 1.73"/>
  <path fill="#f5f5f5" d="M8.55 8.1c.21-.19.58-.51.93-.71.47-.27.85-1.12.93-1.3 0 0-1.31 1.06-1.67 1.4 0 0 .22-.95.35-1.37.14-.41.12-.55.25-.72 0 0-.64.55-.8 1-.15.35-.12 1.18-.14 1.63 0 .09.09.13.15.08"/>
  <path fill="#f5f5f5" d="M9.88 6.18c.37-.3.95-1.18.95-1.18-.14.08-.73.29-1.23.8C9.1 6.3 9 7 9 7s.5-.52.88-.82"/>
  <path fill="#f5f5f5" d="M18.25 17.2a6.6 6.6 0 0 0-3.1-.09l-.15.05-.16-.05a6.6 6.6 0 0 0-3.1.09c-.97.19-1.9.02-1.9.02s.67.7 2.22.7c.67 0 1.52-.58 2.05-.6h.4c-1.16.48-1.68 1.19-1.7 1.2a.14.14 0 1 0 .22.17c.05-.06.9-.93 1.97-1.26a5 5 0 0 1 1.96 1.26.14.14 0 0 0 .23-.17c-.02-.01-.54-.72-1.7-1.2h.4c.53.02 1.38.6 2.05.6 1.55 0 2.23-.7 2.23-.7s-.94.17-1.92-.02"/>
  <path fill="#f5f5f5" d="M18.29 16.52c1.29-.6 1.42-2.3 1.42-2.3s-.67.51-1.05 1.13c-.28.45-.76.99-1 1.24a.11.11 0 0 0 .07.2l1 .15c2.06.21 2.7-1.43 2.7-1.43s-.22.25-1.04.46z"/>
  <path fill="#f5f5f5" d="M21.63 14c-.65.49-1.76 1.54-1.76 1.54.78-.74.78-2.93.78-2.93-.58.9-.9 2-.93 2.42-.04.43-.2.88-.2.88s1.33-.33 1.94-.8c.9-.69 1.06-2.07 1.06-2.07s-.27.51-.89.96"/>
  <path fill="#f5f5f5" d="M21.24 13.49c.39-1.26-.1-2.77-.1-2.77-.41.84-.31 2-.23 2.36.05.23.06.58.06.81 0 .1.12.15.19.08l.67-.58c1.1-.9 1.08-2.42 1.08-2.42s-.12.45-.45.83c-.62.73-1.22 1.69-1.22 1.69"/>
  <path fill="#f5f5f5" d="M21.97 11.53a8 8 0 0 0-.86-2.41s-.2.9.22 1.66c.23.41.4.85.5 1.1.02.08.13.1.18.02.22-.3.67-.93.83-1.36.32-.83.07-1.88.07-1.88s-.72 1.92-.9 2.68z"/>
  <path fill="#f5f5f5" d="M21.96 7.58c-.12.6-.09 1.42-.09 1.42-.35-.6-1.45-1.49-1.45-1.49a5 5 0 0 0 1.1 1.93c.28.28.42.57.48.78.02.08.13.08.15 0 .09-.34.22-.95.29-1.73.1-1.23-.6-1.9-.6-1.9s.22.49.11 1"/>
  <path fill="#f5f5f5" d="M21.26 7.5a47 47 0 0 0-1.67-1.42c.08.19.46 1.04.93 1.3.35.2.72.53.93.73a.1.1 0 0 0 .15-.08c-.02-.45.01-1.28-.13-1.64-.17-.44-.8-1-.8-1 .11.18.1.32.24.73.13.42.35 1.38.35 1.38"/>
  <path fill="#f5f5f5" d="M20.12 6.18c.37.3.88.81.88.81s-.1-.69-.6-1.2c-.5-.5-1.09-.7-1.23-.79 0 0 .58.88.95 1.18"/>
  <path fill="#f5f5f5" d="m17.86 9.03-.23.15.25.04.27.3.16-.1-.19-.37z"/>
  <path fill="#f5f5f5" d="m18.23 10.32.09.03.22-.59-.06-.08-.1.05-.15.53z"/>
  <path fill="#f5f5f5" d="m16.02 9.31-.07-.07-.15.2.03.06z"/>
  <path fill="#f5f5f5" d="m17.61 8.85.05-.13-.14.02-.04.02-.04.05.15.18.06-.06z"/>
  <path fill="#f5f5f5" d="M14.82 12.02v-.08l-.1.15.02.05z"/>
</svg>
