<svg xmlns="http://www.w3.org/2000/svg" width="30" height="24" viewBox="0 0 30 24">
  <path fill="#091e79" d="M0 8h30v8H0z"/>
  <path fill="#f7cf46" d="M30 8H0V0h30z"/>
  <path fill="#bf2c30" d="M30 24H0v-8h30z"/>
  <path fill="#fff" d="m9.2 13.72-.18-.65-.23.63-.67-.02.53.41-.23.63.56-.37.53.41-.19-.64.56-.38zm1.26-1.68.1-.67-.47.49-.6-.3.31.6-.47.48.66-.12.32.6.1-.67.66-.11zm1.73-1.24.28-.62-.58.34-.5-.45.14.65-.59.34.67.07.14.66.28-.61.67.06zm1.84-.97-.31-.6-.1.67-.66.12.6.3-.09.66.47-.48.6.3-.31-.6.47-.48zm7.32 4.26.53-.41-.67.02-.23-.63-.19.64-.67.03.56.38-.19.64.53-.41.56.37zm-1.34-1.57.66.12-.47-.48.32-.6-.6.3-.48-.49.1.67-.6.3.66.11.09.67zm-1.62-1.39.67-.07-.59-.34.14-.65-.5.45-.58-.34.27.62-.5.44.67-.06.28.61zM16.38 9.9l-.1-.66-.31.6-.67-.12.47.48-.31.6.6-.3.47.48-.1-.66.6-.3z"/>
</svg>
