<svg xmlns="http://www.w3.org/2000/svg" width="30" height="24" viewBox="0 0 30 24">
  <path fill="#fafafa" d="M0 0h30v24H0z"/>
  <path fill="#379543" d="M10.83 17.76s-.15.11-.3.07c-.16-.03-.4.01-.4.01L8.8 15.5s-.72.69-1.38.09c.35.1.77-.6 1.27-.3-.47-.44-1.37.33-1.82-.74.62.39.99-.23 1.56.16-.56-.64-1.37.06-1.7-.8.5.18.92-.38 1.37 0-.38-.79-1.54.3-1.77-1.02.5.27 1.06-.07 1.37.2-.59-1.15-1.13.17-1.63-1.5.35.5.83.02 1.34.8-.37-1.42-1.36-.24-1.67-1.9.62-.2.88.73 1.39.92-.31-1.1-.97-.78-.58-2.06.9.46.5 1.23.8 2.13.23-.32-.07-.72.1-1 .15-.29.23-.43.18-.57.82.95-.17 1.76-.08 2.1.08.34.22.46.22.46s-.09-.51.09-.81.45-.4.43-.67c.2.23.12.76-.1 1.02-.23.26-.26.92-.12 1.15-.06-.72.57-.67.46-1.4.35.07.47.88.1 1.18-.4.3-.1 1.13-.1 1.13s.02-.53.23-.77c.2-.25.33-.51.28-.76.28.23.31.88.12 1.2s-.49.5-.19 1c-.04-.93.59-.76.57-1.35.37.28.16.88-.05 1.07-.2.2-.17.64-.17.64s.22-.32.4-.44c.17-.13.29-.48.29-.48s.21 1.1-.47 1.14c-.02.51.96 2.03 1.3 2.45"/>
  <path fill="#0081c7" d="m22.8 12.96.35.17-1.96 2.36 1.83-3.53.27.39.51-2.34-1.5 1.74.39.09-1.37 2.6.43-1.84.35.32v-2.4L21 12.55h.4l-.76 3.2-.41.78-.47.18-.19.34-.13.02-1.53 1.65h.77l.16.77.65-.79-.24.78.7-.34.47.62.53-2.19-.24-.47v-.02l.13-.59 2.6-3.15.17.43 1.04-2.15zM3.03 9.5h-1.6s.35.07.5.44c.16.38 1.14 3.29 1.22 3.64.12.53-.26.63-.26.63h1.58s-.45-.08-.31-.63 1.06-3.28 1.16-3.62a.8.8 0 0 1 .4-.46H4.15s.54.13.38.57-.85 2.8-.85 2.8l-.92-2.8c-.14-.44.28-.57.28-.57m25.16 0h-1.45s.28.2.28.59l-.01 3.6c0 .38-.34.52-.34.52h1.59s-.43-.22-.43-.54V10c0-.34.36-.5.36-.5"/>
  <path fill="#f4c63d" d="M27.5 3.94c-.41.06-1.73.78-4.14 1.26q-.2-.16-.82.14c-.41.19-2.41.76-2.97.97-.55.2-.84.64-.78 1.02.12.67.6.77.44.97-.18.2-.7-.27-1.05-.05-.18.1-1.18-.14-1.2-.25a1.6 1.6 0 0 0-.47-.72s.3-.06.37-.18c-.49-.28-.8-.83-.8-.83s.31.14.42 0c-.4-.37-.37-1.21-.56-1.58s-.42-.66-.88-.67-.65.01-.93.38c-.2-.01-.25.23-.25.23l-.48.07c-.3.05-.48.43-.36.76.07-.2.45-.23.76-.26.32-.04.54.35.42.47s-.16.28-.23.58c-.06.3-.58.44-.58.44s.15.16.38.15c-.13.19-.49.46-.75.49.16.2.4.16.4.16s-.14.39-.4.62c0 0-.97.25-1.15.14-.34-.21-.87.24-1.04.05-.17-.2.31-.3.44-.97.06-.37-.23-.81-.79-1.02-.55-.21-2.55-.78-2.96-.97q-.62-.3-.82-.14C4.3 4.72 2.99 4 2.58 3.94c-.4-.05-.53.64.08.92-.18.2-.07.72.45.76-.21.23.05.7.99.92-.12.24.14.82 1.27 1.02-.13.35.26.72 1.1.83-.15.24.15.63.96.72-.26.4.44.69 1.32.67-.3.17-.17.67.24.76-.14.28.25.75.7.68.03.23.35.4.64.2 0 .3.64.63.83.24.15.15.57.25.85-.04l.05.2c-.12.35-.37.73-.78 1.04-.43.34-.65.88-.64 1.24.02.35-.12.61-.33.7l.2.07s-.32.43-.5.46-1-.07-1.16.09-.46.8-.26.92.3.33.42.45c.12.13.78-.07.92-.19s.12-.74.24-.81l1.27-.6.02.26s.19-.23.35-.3.19-.4.27-.56c.08-.15.65-.66 1.42-.82.1.05-.06.17-.06.17-.3-.07-.44.33-.42.5-.33.03-1.1 1.1-1.21 1.47-.12.37-.02.53.13.51-.01.27.2.49.42.41.02.28.18.46.37.44.03.3.2.48.41.42.04.3.26.46.56.37.02.4.31.8.73.36.07.8 1.06 1.07 1.16.05.37.33.84.16.84-.4.2.15.5-.06.52-.38.2.09.38-.12.38-.47.22.12.38-.13.36-.4.25.08.47-.17.42-.45.23.09.38-.27.1-.72-.43-.7-1.1-1.22-1.1-1.22s.1-.42-.46-.5c-.07-.01-.16-.11-.07-.16a2.5 2.5 0 0 1 1.4.82c.09.16.12.5.28.56.15.07.35.3.35.3l.01-.26s1.15.53 1.27.6.1.69.24.8c.14.13.8.33.92.2.12-.12.21-.33.42-.46.2-.12-.1-.75-.26-.91s-.99-.05-1.16-.09c-.18-.04-.49-.46-.49-.46l.19-.07c-.2-.09-.35-.35-.33-.7.02-.36-.2-.9-.64-1.24-.4-.3-.64-.67-.76-1.02l.05-.22c.28.28.7.19.84.04.2.39.84.05.84-.25.3.22.6.04.64-.19.45.07.83-.4.7-.69.41-.08.53-.58.24-.75.88.01 1.58-.27 1.32-.67.81-.1 1.1-.48.95-.73.85-.1 1.24-.47 1.11-.82 1.13-.2 1.4-.78 1.27-1.03.94-.2 1.2-.68 1-.91.51-.04.62-.57.44-.76.6-.28.48-.97.08-.92"/>
  <path fill="#fff" d="M11.5 9.89a5.4 5.4 0 0 0 1.11 3.26l.5.6q.3.3.57.54l.5.4q.41.33.86.59.42-.25.8-.55l.51-.4q.3-.26.61-.58l.5-.6q.36-.5.61-1.03c.3-.64.5-1.38.5-2.24z"/>
  <path fill="#a70033" d="M12 9.88v2.24q.27.57.61 1.03V9.88h.5v3.88l.57.53V9.9h.5v4.8q.32.25.6.43V9.88h.5v5.24q.27-.16.57-.39V9.88h.5v4.45q.3-.26.61-.58V9.88h.5v3.26q.36-.48.6-1.02V9.88z"/>
  <path fill="#172668" d="M15.04 7.36s-.87.46-1.82.46-1.72-.44-1.72-.44v2.45l.01.25h7.05l.02-.25V7.38s-.77.44-1.72.44-1.82-.46-1.82-.46"/>
</svg>
