<svg xmlns="http://www.w3.org/2000/svg" width="30" height="24" viewBox="0 0 30 24">
  <path fill="#2a6318" d="M0 24h30V0H0z"/>
  <path fill="#f8d548" d="M30 20.57H0V3.43l30 .07z"/>
  <path fill="#c4291c" d="M30 17.14H0V6.86h30z"/>
  <path fill="#000" d="M0 10.29h30v3.42H0z"/>
  <path fill="#fff" d="m0 24 15-12L0 0z"/>
  <path fill="#c1291b" d="m7.44 12.57 2.43-1.77h-3l-.93-2.86L5 10.8H2l2.43 1.77-.93 2.86 2.44-1.77 2.43 1.77z"/>
  <path fill="#f7d347" d="m8.01 12.36-2.07-1.62-.06-.68c0-.46-.58-.84-.9-.4-.23-.04-.54.13-.4.39.06.01.2-.01.26-.01.23.1.14.58.17.77l.02.51c-.12.23-.07.5-.04.75.04.5-.86.81-.47 1.34l.29 1.13c.53.06 1.67 0 2.23.03.05.02.08-.52.1-.53.03-.54.15-1.13.66-1.43.12.06.29.01.27-.14z"/>
</svg>
