<svg xmlns="http://www.w3.org/2000/svg" width="30" height="24" viewBox="0 0 30 24">
  <path fill="#00993e" d="M0 0h30v24H0z"/>
  <path fill="#fff" d="M30 3.43H0v3.43h30z"/>
  <path fill="#fff" d="M30 10.29H0v3.42h30z"/>
  <path fill="#fff" d="M0 17.14h30v3.43H0z"/>
  <path fill="#c8312a" d="M15 0H0v10.29h15z"/>
  <path fill="#fff" d="M6.2 5.68s-.15.06-.05 1.22c.08.96.42 1.27.42 1.27l.15.59h1.4s.03-.36.09-.48c.13-.28.66-.6.89-1.1.24-.3.12-.9.61-1.5.25-.29-.28-.16-.28-.16-.3.2-.44.42-.5.57-.06.3-.29.56-.3.34q.02 0-.34-1.12c-.02-.22-.13-.98-.15-1.56-.02-.38-.35-.4-.38-.02l-.04 1.52-.08-1.76c-.03-.5-.4-.42-.42 0L7.2 5.3l-.07-1.77c-.1-.34-.37-.14-.37.23l-.05 1.72-.07-1.34c0-.24-.29-.22-.32.12-.03.5-.1.9-.12 1.41"/>
  <path fill="#fff" d="m7.07 2.45.43-1.32.43 1.32-1.12-.82h1.38z"/>
  <path fill="#fff" d="m10.4 2.97-1.12-.81h1.38l-1.12.81.43-1.31z"/>
  <path fill="#fff" d="m12.51 4.54-1.12-.82h1.39l-1.12.82.42-1.32z"/>
  <path fill="#fff" d="m13.74 6.74-1.12-.8H14l-1.12.8.43-1.31z"/>
  <path fill="#fff" d="m4.6 2.97 1.12-.81H4.34l1.12.81-.43-1.31z"/>
  <path fill="#fff" d="m2.49 4.54 1.12-.82H2.22l1.12.82-.42-1.32z"/>
  <path fill="#fff" d="m1.26 6.74 1.12-.8H1l1.12.8-.43-1.31z"/>
</svg>
