<svg xmlns="http://www.w3.org/2000/svg" width="30" height="24" viewBox="0 0 30 24">
  <path fill="#fff" d="M0 0h30v24H0z"/>
  <path fill="#000" d="m22.25 15.63 1.54-.65q-.02.14-.15.2l-1.43.6-.1.04.1-.17zm-1.6-.75q.16.1.27.24.2.28.09.6l-.04.04a1 1 0 0 0 0-.33.6.6 0 0 0-.34-.36zm-4.27-.1q.11-.06.26-.05.12-.01.25.05c.04.03 0 .07-.03.1-.15.1-.32.17-.44.3q-.05.06.02.1l.2.02q.26-.01.47-.14l.12-.06q-.14.14-.3.24a1 1 0 0 1-.3.12q-.13.01-.25-.04a.2.2 0 0 1-.1-.22l.1-.11q.15-.14.32-.22h-.23q-.08.02-.12.06-.03-.08.03-.15m-3.1-.13q.12-.04.22.03.06.06.04.17l-.1.12-.2.02q-.05 0-.09.06v.12c.04.15.1.3.1.45l-.04.16-.07-.25q-.08-.22-.1-.45.01-.09.08-.16.1-.1.26-.1-.03-.05-.09-.04-.07.01-.11.07-.01-.12.1-.2m4.5-.03h.02q-.04.04-.06.09c-.06.1-.13.2-.11.3q0 .11.1.13.05-.04.07-.08.01.14-.11.23-.12-.03-.13-.14a.7.7 0 0 1 .22-.53m-13.33-1.1q.06-.1.16-.17-.15.23-.22.49-.04.1.03.2.07.05.15.03c.08-.01.12-.09.15-.14.03.04 0 .08-.01.13q-.04.15-.16.24-.13.06-.24 0c-.1-.07-.1-.18-.08-.27q.07-.27.22-.5m6.56-.7q.03-.08.14-.07.16.02.15.15l-.07.08q-.03-.08-.1-.1-.12.04-.15.14-.06.21-.08.42l-.05.03a.5.5 0 0 0-.13-.37q-.05-.03-.11-.03-.1-.04-.1-.13-.03-.06 0-.11.09 0 .14.05.15.14.24.31.02-.19.12-.36m10.77-.34q.12-.02.23.05.16.1.25.26.07.09.06.2.01.06-.04.12t-.14.01l-.15-.07a1 1 0 0 1-.38.4l-.35.19-.24.07q-.12.04-.25.04.09-.01.14-.05.36-.18.68-.4.16-.12.3-.28l-.15-.02q-.07-.16.04-.3-.05-.05-.05-.12-.01-.07.05-.1m.21.25.03.22.2.02q.05-.02 0-.06a1 1 0 0 0-.23-.18m-.22.12q.06.07.17.08.03-.05.03-.1c-.03-.04-.06-.1-.11-.1q-.07.05-.09.12m-4.34-.47q.06-.06.17-.06.06.01.07.07.04.11-.01.21l.06.04-.01.14-.11-.08q-.18.27-.5.4a1 1 0 0 1-.35.06q.36-.1.62-.33l.15-.18-.1-.1q-.03-.08.01-.17m.07.06q.03.06.08.1.03-.05.01-.1zm-13.03.44 1.4-.75q0 .15-.15.23l-1.3.7H4.4zm9.76-1.33.12-.13q-.04.1 0 .2l.07.22q.04.08.15.09.06 0 .06-.05l-.12-.25.05-.17h.07q.04.15.12.29.01.15-.04.3-.06.09-.2.08-.14-.05-.21-.16a.3.3 0 0 1-.2.18.2.2 0 0 1-.22-.07.4.4 0 0 1-.06-.23c0-.11.03-.24.15-.31H14h-.02a.4.4 0 0 0-.01.37.1.1 0 0 0 .1.06.3.3 0 0 0 .15-.09zm-9.2-.23q.16-.02.27.1.16.1.24.29l.02.1q-.01.08-.05.14-.07.05-.15 0l-.14-.06a1 1 0 0 1-.38.4l-.4.2q-.15.06-.31.09H4l.08-.01q.35-.16.66-.37.22-.14.38-.34l-.15-.02q-.07-.16.05-.3-.05-.05-.06-.12 0-.09.07-.1m.2.24.02.23.2.02q.04-.04 0-.07zm-.18.03q-.04.05-.04.1.06.07.17.08l.02-.07q0-.06-.06-.1-.04-.04-.09 0m7.77-.36q.08.08.15.19.18.27.32.55.31.61.43 1.28l.04.4q0 .43.18.81c.1.17.27.32.4.44q.08.04.1 0c.01 0 0-.12.03-.18q.06-.14.16-.24a1 1 0 0 1 .28-.2 7 7 0 0 1 1.17-.37l-2.25.01.11-.47q.12-.13.28-.24.66-.44 1.44-.73c-.06-.08-.15-.16-.16-.26-.03-.13.04-.27.12-.38q.07-.11.17-.19a.3.3 0 0 1 .26-.01c.28.1.57.3.79.47l.06.06-.15.42q-.34.05-.67.14c.03.12.06.25 0 .37q-.03 0-.05-.03a1 1 0 0 0-.12-.28q-.41.14-.8.32-.34.13-.59.37H18l-.23.42q-1.14.23-2.25.55-.46.13-.88.37-.05.03-.03.08.07.07.19.1.22.1.45.15l.33.09-.02.5-.28-.02q-.26-.02-.53-.08a1.4 1.4 0 0 1-.6-.34 2 2 0 0 1-.4-.58c-.14-.3-.2-.66-.23-.97l-.03.06q-.04.2-.12.4l-.06.07a7 7 0 0 1-1.17.94 2 2 0 0 1-.76.3q-.24.07-.45-.04a.6.6 0 0 1-.26-.38l-.4.26q-.19.12-.4.19-.53.16-1.09.26l-.79.15q.38-.17.74-.36 1-.48 1.94-1.05.12-.54.5-.99l-.05.12q-.24.37-.31.79.43-.27.82-.57l.45-.4q.08-.06.1-.13.01-.04-.01-.13l-.55-1.2.16-.52q.1.06.16.16l.29.4q.05.12.07.25l-.2-.18.02.04q.17.3.26.66.05.2.04.4 0 .24-.11.44-.11.18-.27.33-.51.5-1.13.92l.04.03q.23.1.48.04.18-.02.36-.1.42-.2.78-.49.48-.38.9-.8l-.3-.87-.16-.46q-.17-.3-.31-.6zm2.9.8q-.05.01-.05.07.02.04.06.06l.2.22.46-.14q-.18-.15-.4-.22a.4.4 0 0 0-.27 0m3.37-.2 1.4-.76q-.01.13-.11.21l-1.37.73zm-2.36-.95q.07-.03.13.02a.2.2 0 0 1 .03.18 1 1 0 0 1-.23.31q-.18.17-.44.22l.11-.07.3-.2q.08-.08.1-.17-.01-.09-.1-.1c-.1 0-.14.07-.2.11q-.01-.05.04-.1.1-.12.26-.2m-6.1-.26.42-.23q0 .14-.13.2-.47.27-.95.51l.11-.18zm13.79-.49q.32.19.47.5t.02.62q-.01.03-.05.06a1 1 0 0 0 0-.42 1 1 0 0 0-.46-.5zm-5.03.09.11-.11c-.04.07 0 .15 0 .23l.08.2q.06.07.17.07.04-.01.03-.05l-.12-.24q.02-.1.06-.17h.06q.04.15.13.29 0 .11-.03.22 0 .09-.1.13a.2.2 0 0 1-.16.01.4.4 0 0 1-.17-.14.3.3 0 0 1-.2.17.2.2 0 0 1-.21-.06q-.08-.1-.07-.22l.05-.22a.2.2 0 0 1 .12-.11.4.4 0 0 0-.03.37q.03.05.1.06.1-.01.16-.08v-.29zm-11.34-.8q.26.16.37.41a.6.6 0 0 1 0 .42l-.04.06a.5.5 0 0 0-.03-.4.7.7 0 0 0-.32-.29zm5.5-.14.13-.12q-.04.08 0 .15.02.14.07.27.03.05.1.07h.1q.02-.02 0-.06l-.1-.23.05-.17h.06q.04.16.13.3 0 .12-.03.23-.01.08-.09.12t-.18 0l-.16-.13a.3.3 0 0 1-.2.17.2.2 0 0 1-.2-.04q-.07-.09-.07-.2-.01-.14.04-.26a.2.2 0 0 1 .12-.11q-.1.14-.05.3 0 .09.1.13.1-.01.18-.08zm5.7-.14q.36-.15.74-.27 0 .09-.08.13l-1.07.41q-.12.05-.2.12.07.05.15.07v.1l-.2-.08V9.5q.04-.07.1-.1.28-.13.55-.23M8.11 8.71q-.02.04 0 .09 0 .09.05.18.01.03.06.04t.07-.01l-.08-.18.04-.1h.04q.03.1.08.19 0 .1-.03.19-.04.05-.12.05-.09-.02-.14-.1a.2.2 0 0 1-.17.12.14.14 0 0 1-.13-.1.4.4 0 0 1 0-.2q.01-.07.1-.1a.2.2 0 0 0-.04.2q.01.05.07.08.07 0 .11-.06l.01-.21zm2.05-.12q.04 0 .07.04.21.15.3.37a.6.6 0 0 1 0 .4q0 .04-.03.07v-.01a.5.5 0 0 0-.04-.37.7.7 0 0 0-.32-.3zm1.23-.12a.2.2 0 0 1 .22-.12q.07.02.1.09.04.11.03.24.1.09.14.2c.05.1 0 .2-.03.3-.05.13-.14.25-.16.4q-.01.05.05.08.09-.05.09-.14.04 0 .06.02 0 .09-.05.18-.03.07-.11.1-.07 0-.1-.06-.08-.15 0-.3c.08-.15.17-.3.16-.46a.3.3 0 0 0-.09-.2 2 2 0 0 1-.37.52q-.12.13-.3.19-.14.07-.3.12.31-.19.56-.42.22-.2.31-.45-.13-.07-.2-.16a.2.2 0 0 1 0-.13m.08.02v.04l.15.07q.01-.07-.04-.13-.05-.02-.11.02m7.82-.09q.05-.07.12-.07.1 0 .16.08.04.05 0 .1l-.05.04q-.04-.08-.12-.1-.1.06-.14.16-.06.2-.07.4l-.05.04a.5.5 0 0 0-.16-.4q-.09.01-.15-.05-.06-.1-.04-.2.09 0 .15.06.15.14.23.3.03-.19.12-.36m-14.88.05q.04-.08.12-.13c-.09.16-.19.32-.22.5q-.02.1.03.18.08.07.17.03t.13-.13l.02.02c-.03.12-.06.24-.17.33-.09.09-.28.04-.32-.06a.4.4 0 0 1 0-.24q.07-.27.24-.5m8.86-.19q.27.16.38.42.04.13.03.27a.4.4 0 0 1-.07.2v-.06a.5.5 0 0 0-.07-.4 1 1 0 0 0-.28-.23zm2.37-.09q.09.05.15.14.16.2.28.42l.01.11a.4.4 0 0 0-.18-.1v.07l.3.74q.09.24.1.5 0 .24-.08.47a1 1 0 0 1-.28.37.6.6 0 0 1-.4.1 1 1 0 0 1-.48-.2l-.17-.17h.02-.02q-.16-.25-.24-.53c0-.02-.05-.02-.04 0q-.1.42-.36.76-.15.2-.4.32a1 1 0 0 1-.6.03.7.7 0 0 1-.42-.33 1.3 1.3 0 0 1-.13-.72q.05-.3.14-.58.04-.09.01-.18l-.03-.01-.07.05q-.2.2-.29.48l-.11.42a2 2 0 0 1-.2.65q-.1.19-.32.25a.5.5 0 0 1-.38-.1.7.7 0 0 1-.2-.39q-.07-.37-.01-.75l.09-.45h.04q-.08.37-.08.77 0 .22.1.43.08.15.24.22.17.06.33-.01.14-.1.19-.26.09-.31.16-.64a3 3 0 0 1 .47-.97q.1-.16.26-.27h.04q.02.11-.01.22c0 .12-.06.23-.09.34l-.1.4c-.04.2-.08.4-.02.58q.08.24.33.36.16.07.34.07.26.03.5-.07.26-.14.38-.38t.14-.5c0-.34-.02-.69-.16-1q-.03-.08-.03-.14.03-.2.13-.38.01-.02.04-.02.1.24.16.5.07.32.1.66l.08.48q.05.2.2.36.17.22.47.28a.7.7 0 0 0 .47-.1c.07-.03.15-.1.13-.19q-.34-.77-.6-1.57l-.05-.13q.04-.21.15-.4m-6.37.44.24-.46q.22.45.37.95l-.01.2-.17-.25.06.45q.16 1.3.28 2.63.14-.1.2-.24.07-.15.19-.3.03-.06.12-.06.04.01.05.05c0 .08-.06.15-.05.24q.01.1.14.14.19.04.38 0 .1.01.16-.07l-.1-.24.17-.36.05-.08q.05.21.07.42.03.34-.15.65-.11.17-.31.22a.6.6 0 0 1-.36-.04.5.5 0 0 1-.26-.28q-.1.2-.26.37l.03.52q0 .3-.11.56l-.1.24a4.5 4.5 0 0 1-3.28 1.89q-.36 0-.7-.1-.33-.12-.52-.37-.62.06-1.24.06l1.1-.38c-.1-.4-.02-.82.1-1.22q.11-.37.27-.7c.08-.2.11-.28.27-.5-.16.25-.19.35-.26.53q-.16.4-.19.83c-.02.31 0 .64.17.92q.67-.27 1.3-.61.54-.29 1-.65.24-.18.41-.38.04-.06.01-.13l-.09-.2a2 2 0 0 1-.66.12 1 1 0 0 1-.36-.07.4.4 0 0 1-.2-.22 1 1 0 0 1 .01-.37 1 1 0 0 1 .25-.47q.16-.16.37-.18a.7.7 0 0 1 .44.16q.22.19.33.44.22-.1.39-.27.15-.16.35-.26c.03-.01.1-.03.11 0q.02.1-.01.19-.05.13.07.24.16.12.37.08l-.4-3.53q0-.06-.04-.11m-1.8 3.61q-.13.03-.16.13.03.06.14.08.25.03.5 0v-.03a.6.6 0 0 0-.34-.18q-.07-.02-.15 0m1.1.48q.02.36-.1.71-.05.12-.13.23a5 5 0 0 1-1.15.92q-.57.34-1.2.6l.23.06q.3.04.63 0a4.5 4.5 0 0 0 1.8-.67q.54-.35.96-.78c.1-.1.21-.2.23-.34l-.07-.68q-.24.09-.46-.02c-.16-.1-.22-.29-.25-.45q-.2.24-.49.42m8.03-4.42q.04-.08.13-.14-.15.22-.22.49-.04.12.05.22a.2.2 0 0 0 .13.01q.11-.04.15-.15.02.04 0 .07a1 1 0 0 1-.15.3c-.1.09-.3.03-.33-.08s0-.22.03-.32q.08-.2.2-.4m-10.42.3.26-.45q.21.47.32.96l-.02.18-.16-.23.07.74.07.96a1 1 0 0 0 .48-.25q.25-.31.27-.7c0-.3-.02-.63-.14-.93q-.04-.09-.05-.18.03-.19.1-.35.02-.05.07-.07l.15.45q.08.38.12.74.01.23.07.45.08.3.36.51.22.16.5.13a1 1 0 0 0 .35-.15q.07-.05.05-.14-.26-.6-.48-1.24l-.15-.43q-.02-.06 0-.11.05-.16.14-.33.09.05.14.13.18.23.3.48v.06a.3.3 0 0 0-.18-.1v.07l.25.64c.07.18.15.46.15.57-.02.17-.04.39-.1.54a1 1 0 0 1-.32.37.7.7 0 0 1-.44.05 1 1 0 0 1-.47-.27q-.24-.28-.33-.63h-.03q-.08.34-.27.66-.18.29-.51.44.07.84.1 1.68.01.42-.02.84 0 .06-.03.1l-.17.42q-.02-.8-.1-1.59l-.11-1.4a1 1 0 0 1-.5-.15.8.8 0 0 1-.27-.48 2 2 0 0 1-.03-.47q.06-.3.15-.6V9.4q0-.03-.02-.04-.04 0-.07.03-.14.14-.22.3-.16.35-.21.71-.04.24-.14.47a1 1 0 0 1-.24.3q-.17.08-.35.02a.5.5 0 0 1-.3-.28c-.1-.2-.1-.42-.1-.64q.03-.37.13-.75h.03q-.09.42-.07.85.02.2.1.37t.27.21c.1.03.23.03.31-.03q.14-.11.18-.27c.08-.25.11-.5.2-.76q.13-.37.33-.7.13-.18.27-.33.05-.06.11-.07.03.04.02.07 0 .17-.05.34-.1.33-.17.67a1 1 0 0 0 .03.53q.1.2.32.3.12.04.25.06l-.15-1.89c-.01-.1 0-.2-.05-.29m19.1 0 .22-.48q.18.5.34 1.03l.04.18-.03.14-.13-.21.2 2.65.06.86a4 4 0 0 1-.18 1.57q-.1.27-.27.53-.25.33-.63.52c-.44.23-.94.34-1.45.42q-.04 0-.05-.03.68-.29 1.28-.67.3-.19.57-.42.3-.3.4-.67c.08-.25.06-.5.04-.76l-.14-1.75-.2-2.7-.09-.17zm-1.14.15L24.9 8c0 .22-.12.43-.27.6q-.13.14-.3.26l-.13.11.04.18-.02.17-.17-.24.07.76.14 2.22q0 .03.03.04l.55.55q.2.24.37.5.23.34.3.73.02.24-.06.49c-.1-.43-.3-.82-.54-1.09q-.3-.35-.62-.67l.04.8q.01.5-.02 1.01-.01.1-.05.19l-.15.41-.05-.94-.12-1.69-.01-.13-.44-.42-.8-.69.15 1.76q.04.4.05.8v.7q.01.23-.06.44a1 1 0 0 1-.44.4q-.23.1-.5.11a1 1 0 0 1-.32-.07 1 1 0 0 1-.39-.4q-.09-.16-.12-.33 0-.1-.08-.15-.07-.02-.13.01-.16.07-.27.18c-.24.25-.35.56-.42.87a1 1 0 0 1-.19.37q-.11.14-.28.16l-.27-.07a.8.8 0 0 1-.38-.4c-.02-.04-.04-.07-.08-.23a2 2 0 0 1-.04-.67l-.04-.05a.2.2 0 0 1-.1-.2q0-.4.18-.76.17-.3.41-.55l.05-.05-.3-.27q-.1-.08-.18-.17l-.63-.6.05.89.03.82-.02.73q-.01.09-.05.18l-.16.42-.01-.34-.11-1.73-.1-1.33-.42-.44a6 6 0 0 1-.46-.55q-.29-.46-.68-.84v-.05l.02-.5q.28.16.55.36.2.14.37.33.1.1.1.2l-.2-.06-.08-.02q0 .06.06.12.3.38.62.74l.08.1-.06-.86-.09-1.32q0-.1-.03-.2-.02-.03.02-.06l.23-.38q.2.45.31.9.03.12-.01.23l-.16-.25q.1 1.17.16 2.32l.14.14q.63.62 1.28 1.22l.99-.96-.3-2.88q.01-.15-.05-.3l.25-.44q.07.13.11.25.12.3.2.62.04.08.03.14l-.02.14-.16-.24.23 2.47 1.01-.93.11-.11-.47-.59-.15-.2q-.14-.24-.36-.4l-.03-.57 1.04.79.07.09-.08-.88-.02-.08q-.02-.03-.01-.08l.23-.42q.21.42.33.87.03.06.02.12l-.01.15-.15-.21-.02-.04.1 1 .78-.68.35-.28-.02-.4c0-.03-.05-.08-.02-.11l.24-.42q.13.27.22.56m-1.52 1.63.02.16.25.26 1.02.95-.17-2.37zm-.71-.72q.15.22.33.42l-.03-.38-.02.04a.4.4 0 0 0-.28-.08m-.69 2.05-.2.2.06.68c.01.37-.06.76-.32 1.07V12.5q0-.2-.03-.34l-.27.25-.56.51q.29.28.33.65a1 1 0 0 1-.23.71 1.3 1.3 0 0 1-1.03.34l.06.31q.05.28.2.51.1.13.26.18.17.03.32-.1.1-.08.13-.21c.1-.23.13-.48.25-.7a1.5 1.5 0 0 1 .63-.68q.1-.07.23-.04.11.04.17.13c.08.13.1.29.16.42q.07.19.23.3.18.12.4.1c.25 0 .66-.18.68-.23s-.04-.43-.06-.65l-.32-3.2q-.01-.04-.05-.07zm-1.6 1.53a6 6 0 0 0-.58.7q-.06.07-.02.15.06.07.16.06.39-.03.72-.24.13-.05.1-.17-.06-.14-.16-.26z"/>
</svg>
