<svg xmlns="http://www.w3.org/2000/svg" width="30" height="24" viewBox="0 0 30 24">
  <path fill="#ea3323" d="M0 0h30v24H0z"/>
  <path fill="#000" d="M22.6 15.59c-.24-.3-.51-.31-.86.06-.36 0-.61.01-.97.03.2-.16.3-.29.49-.45.61.28.59-.46 1.16-.46-.17-.14-.31-.2-.62-.05-.45-.2-.49.08-.57.27l-.86.58c-.63-.19-1.13-.29-1.76-.47 1.25-.87-1.57-.66-1.66-2.22 0-1.2.54.58 1.05.77.99.12-.18-.49-.2-1.13.43-.97.64.87.97 1.02.33.6 1.49.55.9-.07-.8-.1-1.23-1.61-.52-1.28.84.75 1.88 2.78 3.15 1.79.25-.28.17-.6-.23-.52-.89.07-1.56-.36-2.3-1.53-.15-.27-.19-.64.13-.36.48.7 1.86 1.58 2.48 1 .19-.31.15-.66-.19-.55-.58.58-3.21-1.19-2.13-1.5.73.6 1.67 1.09 2.16.8.35-.22.36-.78-.1-.74-.9.12-1.24-.08-2.11-.83-.73-.87 1.97.73 2.25.13.93-1.38-1.21.16-2.35-1.1-.67-1.09 2.23.96 2.56-.67.25-1.16-1.45.8-2.45-.32-.91-.8 2.41.22 2.44-1.12.19-1.16-1.53.6-2.3.2-1.2-.63 2.48-.7 2.38-2.03-.13-1.72-1.5 1.23-2.7.95-.46-.57-1.5.45-2.18.66-.11.29.2 1.05-.14 1.26-.81.63-1.47-.57-.73-1.36.39-.83 1.95-.63 2.5-1.25-.28.12-.73.22-.94-.02.52-.04 1.37.12 1.67-.45.06-.25-.11-.3-.27-.13-.34.43-.74.48-1.27.4.19-.21.6-.52.82-.14.05-.28-.03-.59-.79-.46.01-.2-.44-.3-.71-.3-.56.09-1.2.42-1.84.42.24.2.29.22.53.39q-.46.19-.78.6c.32.01.43-.02.54.03-.45.13-.65.2-.9.44.7 0-.22.54-.35.79-.13-.25-1.04-.79-.35-.79-.24-.23-.45-.31-.9-.44.12-.05.22-.02.54-.03q-.3-.41-.78-.6c.24-.17.3-.18.53-.39-.64 0-1.27-.33-1.83-.42-.27 0-.73.1-.72.3-.75-.13-.83.18-.79.46.22-.38.64-.07.82.14-.52.08-.93.03-1.26-.4-.16-.17-.33-.12-.28.13.3.57 1.16.4 1.68.45-.22.24-.67.14-.94.02.55.62 2.1.42 2.5 1.25.74.8.08 1.99-.74 1.36-.34-.21-.02-.97-.13-1.26-.68-.22-1.72-1.23-2.2-.66-1.19.28-2.55-2.67-2.68-.96-.1 1.35 3.56 1.4 2.38 2.04-.78.4-2.5-1.36-2.3-.2.03 1.35 3.34.3 2.44 1.12-.47.33-1.3.65-2.02 0-.33-.26-.55-.05-.43.32.32.96 1.55.76 2.4.28.22-.12.42.17.15.38-1.13 1.27-3.27-.27-2.35 1.1.3.6 2.98-.99 2.26-.12-.87.75-1.22.95-2.12.83-.45-.04-.45.52-.1.73.5.3 1.43-.2 2.17-.8 1.08.32-1.56 2.09-2.14 1.51-.33-.11-.38.24-.2.55.64.58 2.01-.3 2.5-1 .31-.29.27.1.13.36-.74 1.17-1.42 1.6-2.3 1.53-.4-.07-.5.23-.24.52 1.26 1.6 3.49-3.27 3.47-1.3.16.4-1.76 1.04-.65 1.3.88.2 1.3-2.62 1.69-1.46-.02.64-1.2 1.25-.2 1.13.5-.19 1.03-1.98 1.05-.78-.1 1.57-2.91 1.35-1.67 2.23-.62.18-1.13.28-1.76.47l-.86-.58c-.08-.19-.12-.48-.57-.27-.3-.15-.45-.1-.62.05.58 0 .55.73 1.16.46.2.16.3.28.5.45l-.98-.03c-.34-.37-.62-.35-.86-.06-.19.03-.27.03-.4.26.46-.22.9.38 1.2-.02l1.03.06c-.13.11-.31.17-.44.28-.76-.26-1 .45-.97 1.03a.7.7 0 0 1 .28-.41c.48.12.65-.07.68-.36.23-.18.57-.22.8-.41l.66.22c.04.57 1.12.12 1.03.65.11-.2.11-.39-.15-.56-.09-.25-.3-.37-.57-.22-.25-.07-.32-.18-.57-.25.64-.2 1.1-.25 1.74-.45.83 1.14 1.1-.74 1.62-1.09.28-.46 1.02-.68.94.13-.1.77-.73 1.42-1.28 1.74-.37.24-.53.13-.82.12-.91.16.25.79.58.6 1.58-1.2.56.65-.32.54-.44.07-.36.32-.06.44.53.22 1-.2 1.25-.46.2-.21.33-.22.3.1-.03 1-1.56.61-.96 1.23.56.4.97-.27 1.16-.67.62-.63.37.96-.3 1.24l1.18 1.78c.36-.6.8-1.2 1.16-1.78-.66-.28-.9-1.88-.3-1.24.2.4.6 1.07 1.17.68.6-.62-.93-.25-.95-1.24-.04-.32.1-.31.29-.1.24.27.72.68 1.25.46.3-.12.38-.37-.06-.44-.89.11-1.9-1.75-.32-.54.33.19 1.49-.45.58-.6-.3.01-.45.12-.82-.12-.55-.32-1.18-.97-1.28-1.74-.08-.81.66-.59.94-.13.51.35.79 2.23 1.62 1.09.64.2 1.1.25 1.74.45-.25.07-.32.18-.58.25-.27-.15-.47-.03-.57.22-.25.17-.25.37-.14.56-.09-.53 1-.08 1.03-.65l.66-.22c.23.19.57.23.8.41.03.29.2.48.67.36q.23.16.29.4c.03-.57-.2-1.27-.97-1.02-.13-.1-.31-.17-.44-.28l1.02-.06c.31.4.75-.2 1.2.02-.12-.23-.2-.23-.39-.26"/>
</svg>
