<svg xmlns="http://www.w3.org/2000/svg" width="30" height="24" viewBox="0 0 30 24">
  <path fill="#000" d="M0 24h30V0H0z"/>
  <path fill="#bc2833" d="M30 0H0v12h30z"/>
  <path fill="#ffcb00" d="M11.6 10.6c.15.9.98 1.6 1.92 2.34l8.83 6.8c.36.28.43.68.19.96l-.04.03a.4.4 0 0 1-.33.1c-.54-.07-.56-.54-.7-.64l-1.52-1.05-.81-.55-6.47-4.15c-1.85-1.16-1.78-2.07-1.4-3.05zm-2.27 4.94a6.3 6.3 0 0 0 6.23.96l1.06.64c-.1.1-.4.25-.47.28l.17.66c-.4.14-.85.33-1.3.42l-.27-.67q-.64.15-1.29.15l-.09.7c-.4-.04-.9 0-1.36-.11v-.7a8 8 0 0 1-1.2-.3l-.33.6-.47-.2q-.38-.15-.73-.36l.25-.66a6 6 0 0 1-.86-.57zM16.05 3.8l.37-.61.61.29.6.32-.29.66c.37.24.82.6 1.06.89l.55-.43.47.5q.23.24.43.51l-.5.52c.32.47.45.69.68 1.23l.7-.16.18.52q.16.42.23.82l-.66.26c.07.28.15.75.17 1.18v.31l.7.1-.05.66q-.03.34-.09.67h-.72c-.1.44-.23.98-.4 1.39l.6.35-.28.61-.34.6-.66-.28a8 8 0 0 1-.84 1.04l.43.56-.34.32-1.41-1.1a6.4 6.4 0 0 0 2.35-4.92 6.3 6.3 0 0 0-5.01-6.17l.22-1.02c.4.08.86.25 1.24.38m-1.6 1.9L15 7.4h1.8l-1.45 1.07.56 1.72-1.47-1.05L13 10.2l.56-1.72L12.1 7.4h1.79z"/>
</svg>
