<svg xmlns="http://www.w3.org/2000/svg" width="30" height="24" viewBox="0 0 30 24">
  <path fill="#006233" d="M0 24h30V0H0z"/>
  <path fill="#fff" d="M16.33 9.59q-.11-.06-.17-.17 0-.65-.06-1.27l-.02.04-.1.12c.05.3.07.8.08 1.22q.16.24.35.3h-.02l.03.15h.03l-.01-.15.1.01c.17 0 .36-.1.57-.2q.24-.13.52-.24c.03-.02.13-.13.03-.17l-.24-.06-.29-.07-.15-.05q-.16-.07-.36-.09c-.18-.02-.4.1-.37.33a1 1 0 0 0 .08.3m.3.03c-.2.05-.22-.07-.23-.18l-.01-.07c-.03-.14-.01-.3.18-.25q.39.1.7.22z"/>
  <path fill="#fff" d="M15.05 9.36q.26-.03.32-.2-.11-.2-.48-.2-.5.02-.51.28h.09c.11 0 .2 0 .25.1q-.4.17-.92.16c-.5.02-.61-.15-.74-.33l-.04-.07-.09-.04c-.08 0-.15.13-.23.27s-.16.28-.26.28c-.14-.02-.16-.18-.17-.35l-.04-.19c-.04.3.06 1.4.66.2q.03-.05.06 0c.16.34.49.45.84.47q.46.01 1.08-.31l.04.04c.09.1.18.2.37.21q.12 0 .23-.03h.02v.07l.02-.08h.02v-.01q.24-.11.32-.32c.03-.11.04-.33-.1-.33-.12 0-.23.21-.26.47a.4.4 0 0 1-.48-.09m.03-.16q-.14-.15-.32-.04l.1.06.07.04zm.55.18v.02c.17-.07.17-.14.15-.27-.1.06-.12.14-.15.25"/>
  <path fill="#fff" d="M15.26 12.55c-.01-.74-.03-1.57-.1-2.08.18-.18.13-.25.04-.36a1 1 0 0 1-.14-.25l-.05.12c-.05.15-.1.29-.02.4q.07 1.18.1 2.35l.03-.01q.1-.03.14-.17"/>
  <path fill="#fff" d="m17.57 9.87-.17.21.1.71q.14 1.03.18 2.09c-.32.34-.79.2-.88-.17q0-.26-.05-.5c.33-.22.61-.5.57-.75-.07-.5-.35-.8-.66-.42-.3.38-.01.48.55.44-.04.16-.25.36-.52.52a4 4 0 0 0-.3-.65l-.13.22.22.53q-.22.1-.42.13 0-.86-.09-1.7c.18-.18.12-.25.03-.36q-.08-.08-.15-.25l-.04.13c-.05.15-.1.3-.01.4q.1.9.11 1.79c-.32-.01-.51-.26-.24-.96-.5.57-.27 1.2.25 1.24v.27q-.36.26-.63.39-.06-.19.04-.56-.21.35-.18.62l-.22.07q.05-.13.05-.26c.06-.62-.37-.65-.87-.65l.04-.11-.06.1h-.29q-.23.01-.42-.05.17-.19.36-.3h.01q.15.14.36.18c.38-.07.5-.25.63-.43l.04-.05c0-.28-.01-.75-.08-1.21.18-.19.12-.26.04-.37a1 1 0 0 1-.15-.25q0 .06-.04.13c-.05.14-.1.28-.02.4q.05.43.06.89l.03.42a1 1 0 0 1-.65.18h.01l.06-.03c.2-.1.34-.17.37-.3-.11-.4-1.23-.28-1.35.2.2-.08.36 0 .5.1v.01c-.11.14-.26.39-.26.39l-.17-.2-.07-.1-.03.07a.4.4 0 0 0-.05.2l.06.08.11.16.01.01q-.15.27-.2.49l-.03.02c-.42.35-1.3.37-.93-.6-.47.64-.13 1.06.35 1.09q.26 0 .58-.24c.02.51.43.78.88.79.37 0 .77-.18 1-.51l.03-.01q.18-.03.37-.1c.2.32.8.26 1.45-.68.22 1 1.07.38 1.12.17.09-.65.04-1.7-.14-2.53.73 1.15.76 1.99.37 2.55-.44.62-1.38.9-2.3 1.15 2.64.07 3.48-2.26 1.86-4.24m-2.8 3.46a1 1 0 0 0 .1-.29c.03-.38-.52-.37-.8-.36h-.02c-.03.38.16.65.62.66zm-.19.24q-.31.25-.72.28c-.43.03-.85-.28-.85-.63.18-.16.32-.38.32-.61q.22.08.64.07c-.17.58.15.87.61.89m-1.4-.94q.03.17-.1.28.03-.15.1-.28m2.88-.12q.2-.05.48-.19.06.2.07.39c-.46.5-.94.76-1.19.64q.38-.18.64-.49zm.76-1.42c-.07 0-.12.1-.08.13.1.06.25.02.27-.01.03-.07-.1-.12-.19-.12m-2.8.58-.18.13-.19-.1-.03-.03c.07-.06.31-.1.4 0"/>
  <path fill="#fff" d="M14.21 10.31q.1.18.1.35c-.04.17-.2.33-.37.33a.3.3 0 0 1-.3-.17c-.01-.02-.05-.06-.1-.04-.18.27-.31.39-.48.39s-.23-.08-.29-.17a.4.4 0 0 0-.24-.19c-.13 0-.34.12-.45.35-.4 1.04-.77 0-.61-.5.02.47.14.75.27.74.07 0 .14-.13.22-.28l.07-.13c.1-.15.3-.43.54-.43.09 0 .11.06.15.13.04.1.1.22.35.22q.3 0 .57-.43.05.01.06.07v.01c.03.1.22.37.47.12v-.04q0-.08-.07-.12z"/>
  <path fill="#fff" d="M12.55 11.28h-.04l-.13.12a.03.03 0 0 0 0 .05l.14.1q.02.03.04 0l.14-.1.01-.03.14.1h.04l.13-.11a.03.03 0 0 0 0-.06l-.14-.11a.03.03 0 0 0-.05 0l-.13.12v.02z"/>
  <path fill="#fff" d="m11.98 10-.04.01-.13.12a.03.03 0 0 0 0 .05l.14.1q.02.03.04 0l.14-.1a.03.03 0 0 0 0-.06z"/>
  <path fill="#fff" d="M12.04 10.36a.03.03 0 0 0-.05 0l-.12.12a.03.03 0 0 0 0 .05l.14.1q.01.03.04 0l.13-.1a.03.03 0 0 0 0-.06z"/>
  <path fill="#fff" d="M14.36 10.98a.03.03 0 0 0-.05 0l-.12.08-.01.03.01.02.1.1q.02.02.05 0l.12-.07.01-.03v-.03z"/>
  <path fill="#fff" d="M12.77 8.75a.03.03 0 0 0-.05 0l-.08.08a.03.03 0 0 0 0 .05l.1.07h.03l.1-.07v-.01l.07.05H13l.08-.07a.03.03 0 0 0 0-.05l-.1-.08h-.04l-.08.08v.01z"/>
  <path fill="#fff" d="M17.27 9.62h-.04l-.09.06a.03.03 0 0 0 0 .05l.07.07h.05l.08-.06a.03.03 0 0 0 0-.05z"/>
  <path fill="#fff" d="M15 16.3c2.57 0 4.66-1.9 4.66-4.24 0-1.29-.63-2.44-1.62-3.21.6.64.95 1.47.95 2.39 0 2.03-1.78 3.67-3.99 3.67s-4-1.64-4-3.67c0-.92.37-1.75.96-2.4a4 4 0 0 0-1.62 3.22c0 2.33 2.1 4.24 4.66 4.24"/>
  <path fill="#fff" d="M14.37 18.65a3.7 3.7 0 0 1-3.4-.3q-.09-.03-.02.13c.11.31.2.56-.14 1.01-.15.2.02.24.28.22 1.3-.12 2.59-.39 3.2-.61z"/>
  <path fill="#fff" d="M14.35 19.2c-.41.15-1.11.34-1.9.46-.31.05-.3.23.26.29s1.3-.32 1.75-.65z"/>
  <path fill="#fff" d="M15 18.19c.14 0 .4-.06.65-.09.48-.07.13.6-.65.6v.22c.8 0 1.62-.79 1.45-1.14-.25-.5-.92-.07-1.45-.07s-1.2-.44-1.45.07c-.17.35.66 1.14 1.45 1.14v-.22c-.78 0-1.13-.67-.65-.6.25.03.5.09.65.09"/>
  <path fill="#fff" d="M15.63 18.65c1.03.47 2.31.34 3.4-.3q.08-.03.02.13c-.12.31-.2.56.14 1.01.15.2-.02.24-.28.22-1.3-.12-2.6-.39-3.21-.61z"/>
  <path fill="#fff" d="M15.65 19.2c.41.15 1.1.34 1.9.46.31.05.3.23-.26.29s-1.31-.32-1.75-.65z"/>
  <path fill="#fff" d="M15.03 19.1c.03.18.06.57.33.4.36-.22.45-.39.45-.7 0-.21-.27-.5-.81-.5s-.8.29-.8.5c0 .31.08.48.44.7.27.17.29-.22.32-.4q.05-.07.07 0"/>
  <path fill="#fff" d="M14.66 5.49c-.15-.79-1.42-.84-1.62-.97-.24-.13-.2 0-.12.22.23.55 1.03.77 1.4.84.28.04.38.06.34-.09"/>
  <path fill="#fff" d="M15.05 5.51c.12-.8-1.14-1.19-1.29-1.37-.17-.19-.2-.07-.11.15.15.48.7 1.04 1.02 1.19.27.13.35.18.38.03"/>
  <path fill="#fff" d="M16.09 5.98c.11-.97-.92-1.12-1.18-1.42-.18-.2-.2-.09-.13.13.11.5.63 1.07.94 1.25.25.13.35.19.37.04"/>
  <path fill="#fff" d="M15.77 5.77c-1.06-.63-1.81-.28-2.11-.31s-.39.14.11.4c.62.3 1.49.26 1.83.14.35-.13.24-.2.17-.23"/>
  <path fill="#fff" d="M17.37 6.2c-.33-1.05-1.09-.88-1.3-1-.23-.13-.25-.1-.2.13.09.42.87.87 1.25 1.01.14.04.32.1.25-.15"/>
  <path fill="#fff" d="M17.22 6.37c-.91-.67-1.62-.17-1.9-.24-.22-.06-.12.07-.04.13.58.37 1.3.57 1.87.34.22-.09.23-.11.07-.23"/>
  <path fill="#fff" d="M19.2 7.05c0-.66-1.5-.93-1.8-1.34-.2-.24-.36-.11-.26.28.14.51 1.16 1.07 1.72 1.18.34.06.33-.04.33-.12"/>
  <path fill="#fff" d="M19.14 7.17c-.94-.78-1.74-.52-2.03-.6-.29-.06-.4.1.05.42.56.38 1.42.46 1.79.38.36-.07.26-.15.2-.2"/>
  <path fill="#fff" d="M20.84 8.3c-.27-1.12-1.12-1.35-1.33-1.57-.2-.2-.41-.15-.24.36.21.61.9 1.14 1.26 1.27.35.14.33.03.3-.05"/>
  <path fill="#fff" d="M20.83 8.45c-.7-1-1.6-.97-1.87-1.11s-.46-.02-.1.41c.42.53 1.29.83 1.69.85s.32-.07.28-.15"/>
  <path fill="#fff" d="M21.71 9.65c.4-1.14-.51-1.57-.6-1.76q-.16-.29-.27.01c-.26.82.57 1.62.7 1.78.13.14.15.07.17-.03"/>
  <path fill="#fff" d="M21.53 9.97c-.32-1.28-1.15-1.2-1.33-1.39-.2-.18-.23-.05-.2.18.1.63.93 1.05 1.3 1.27.12.06.26.13.23-.06"/>
  <path fill="#fff" d="M22.32 11.48c.57-1.2-.1-2.03-.32-2.2-.2-.18-.33-.25-.26 0 .09.36-.24 1.32.27 2.02.16.24.18.46.31.18"/>
  <path fill="#fff" d="M22.02 11.73a1.7 1.7 0 0 0-.84-1.7c-.3-.15-.3-.1-.3.11.02.7.73 1.27.94 1.59.2.3.19.07.2 0"/>
  <path fill="#fff" d="M21.89 13.66c-.42-1.4.45-2.21.72-2.37s.42-.23.3.03c-.17.4.02 1.49-.65 2.18-.2.23-.29.48-.37.16"/>
  <path fill="#fff" d="M21.98 13.35c.35-1.22-.4-1.91-.64-2.05-.22-.14-.36-.19-.26.03.14.34 0 1.3.57 1.9.2.2.26.4.33.12"/>
  <path fill="#fff" d="M21.55 12.78a1.8 1.8 0 0 0-.36 2.05c.17.3.2.29.36.06.44-.65.17-1.58.2-2 .01-.39-.13-.18-.2-.11"/>
  <path fill="#fff" d="M22.59 13.76c0 .85-.57 1.54-1.18 1.75-.35.12-.35.08-.3-.17.16-.96.97-1.3 1.26-1.62.28-.3.22-.05.22.04"/>
  <path fill="#fff" d="M20.42 16.28c1.02-.85.48-1.44.52-2 .03-.29-.1-.22-.22-.11-.65.58-.69 1.63-.55 2.03.06.18.15.16.25.08"/>
  <path fill="#fff" d="M21.8 15.73a2.4 2.4 0 0 1-2 1.54c-.45.02-.43 0-.28-.28.57-1 1.59-1.12 2.04-1.37.42-.24.27.02.23.11"/>
  <path fill="#fff" d="M19 17.48c1.34-.6 1.07-1.61 1.31-1.86.18-.19-.03-.16-.14-.1-.78.41-1.41 1.07-1.42 1.77 0 .27.02.3.25.2"/>
  <path fill="#fff" d="M17.18 18.61c1.68.25 2.47-.91 2.96-1.02.25-.05.07-.15-.06-.16-1.12-.11-2.55.36-2.98.9-.17.2-.17.25.08.28"/>
  <path fill="#fff" d="M18.89 16.8c-.34 1-1.6 1.83-2.55 1.9-.44.03-.44-.01-.28-.28.76-1.25 2.08-1.47 2.55-1.78.4-.28.31.06.28.15"/>
  <path fill="#fff" d="M15.34 5.49c.15-.79 1.42-.84 1.62-.97.23-.13.2 0 .12.22-.24.55-1.03.77-1.4.84-.28.04-.38.06-.34-.09"/>
  <path fill="#fff" d="M14.95 5.51c-.13-.8 1.14-1.19 1.29-1.37.17-.19.2-.07.11.15-.15.48-.7 1.04-1.02 1.19-.27.13-.35.18-.38.03"/>
  <path fill="#fff" d="M13.91 5.98c-.11-.97.91-1.12 1.18-1.42.18-.2.19-.09.13.13a2.4 2.4 0 0 1-.94 1.25c-.25.13-.35.19-.37.04"/>
  <path fill="#fff" d="M14.23 5.77c1.06-.63 1.8-.28 2.11-.31s.39.14-.11.4c-.62.3-1.49.26-1.83.14-.35-.13-.24-.2-.17-.23"/>
  <path fill="#fff" d="M12.63 6.2c.33-1.05 1.09-.88 1.3-1 .23-.13.25-.1.2.13-.09.42-.87.87-1.26 1.01-.14.04-.31.1-.24-.15"/>
  <path fill="#fff" d="M12.78 6.37c.91-.67 1.62-.17 1.9-.24.21-.06.12.07.04.13-.58.37-1.3.57-1.87.34-.22-.09-.23-.11-.07-.23"/>
  <path fill="#fff" d="M10.8 7.05c0-.66 1.5-.93 1.8-1.34.2-.24.36-.11.26.28-.14.51-1.16 1.07-1.73 1.18-.33.06-.32-.04-.32-.12"/>
  <path fill="#fff" d="M10.85 7.17c.95-.78 1.74-.52 2.04-.6.29-.06.4.1-.05.42-.56.38-1.43.46-1.79.38-.36-.07-.27-.15-.2-.2"/>
  <path fill="#fff" d="M9.16 8.3c.27-1.12 1.12-1.35 1.33-1.57.2-.2.41-.15.24.36-.21.61-.9 1.14-1.26 1.27s-.33.03-.3-.05"/>
  <path fill="#fff" d="M9.17 8.45c.7-1 1.6-.97 1.87-1.11s.46-.02.1.41c-.43.53-1.29.83-1.69.85s-.32-.07-.28-.15"/>
  <path fill="#fff" d="M8.29 9.65c-.4-1.14.51-1.57.6-1.76q.16-.29.27.01c.26.82-.57 1.62-.7 1.78-.13.14-.15.07-.17-.03"/>
  <path fill="#fff" d="M8.47 9.97C8.8 8.7 9.62 8.77 9.8 8.58c.2-.18.23-.05.2.18-.1.63-.93 1.05-1.3 1.27-.12.06-.26.13-.23-.06"/>
  <path fill="#fff" d="M7.68 11.48c-.57-1.2.1-2.03.31-2.2s.34-.25.27 0c-.1.36.24 1.32-.27 2.02-.16.24-.18.46-.31.18"/>
  <path fill="#fff" d="M7.98 11.73c-.13-.75.34-1.43.84-1.7.3-.15.3-.1.3.11-.02.7-.73 1.27-.94 1.59-.2.3-.19.07-.2 0"/>
  <path fill="#fff" d="M8.11 13.66c.42-1.4-.45-2.21-.72-2.37s-.42-.23-.3.03c.17.4-.02 1.49.65 2.18.2.23.28.48.37.16"/>
  <path fill="#fff" d="M8.02 13.35c-.35-1.22.4-1.91.64-2.05.22-.14.36-.19.26.03-.14.34 0 1.3-.58 1.9-.18.2-.25.4-.32.12"/>
  <path fill="#fff" d="M8.45 12.78c.63.61.64 1.52.36 2.05-.17.3-.2.29-.36.06-.44-.65-.18-1.58-.2-2-.01-.39.13-.18.2-.11"/>
  <path fill="#fff" d="M7.41 13.76c0 .85.57 1.54 1.18 1.75.35.12.35.08.3-.17-.16-.96-.97-1.3-1.26-1.62-.28-.3-.22-.05-.22.04"/>
  <path fill="#fff" d="M9.58 16.28c-1.03-.85-.48-1.44-.52-2-.03-.29.1-.22.22-.11.65.58.69 1.63.55 2.03-.06.18-.15.16-.25.08"/>
  <path fill="#fff" d="M8.2 15.73a2.4 2.4 0 0 0 2 1.54c.44.02.43 0 .28-.28-.57-1-1.59-1.12-2.04-1.37-.42-.24-.27.02-.24.11"/>
  <path fill="#fff" d="M11 17.48c-1.34-.6-1.07-1.61-1.31-1.86-.18-.19.03-.16.14-.1.78.41 1.41 1.07 1.42 1.77 0 .27-.02.3-.26.2"/>
  <path fill="#fff" d="M12.82 18.61c-1.69.25-2.47-.91-2.96-1.02-.25-.05-.07-.15.06-.16 1.12-.11 2.55.36 2.98.9.17.2.17.25-.08.28"/>
  <path fill="#fff" d="M11.11 16.8c.34 1 1.6 1.83 2.55 1.9.44.03.44-.01.28-.28-.76-1.25-2.08-1.47-2.55-1.78-.4-.28-.31.06-.28.15"/>
  <path fill="#006233" d="M16.97 6.47c-.22-.15-1.04-.07-1.19-.16.3.22.95.06 1.2.16"/>
  <path fill="#006233" d="M18.95 6.85c-.18-.29-1.22-.48-1.37-.73.27.49 1.07.42 1.37.73"/>
  <path fill="#006233" d="M18.8 7.18c-.4-.34-1.29-.2-1.56-.4.63.52.98.11 1.55.4"/>
  <path fill="#006233" d="M16.54 5.67c.25.12.55.23.7.51-.17-.21-.49-.3-.75-.48q.03 0 .05-.03"/>
  <path fill="#006233" d="M20.37 7.86c-.15-.32-.69-.67-.74-.79.16.42.6.51.74.79"/>
  <path fill="#006233" d="M20.51 8.42c-.47-.67-1.2-.6-1.5-.85.23.25 1.07.4 1.5.85"/>
  <path fill="#006233" d="M21.6 9.45c.03-.7-.55-.97-.58-1.38 0 .48.6 1.13.58 1.38"/>
  <path fill="#006233" d="M21.3 9.84c-.11-.62-.9-.66-1.05-1.02 0 .34.94.69 1.05 1.02"/>
  <path fill="#006233" d="M21.96 9.48c.42.47.13 1.18.3 1.7-.2-.38-.1-1.33-.3-1.7"/>
  <path fill="#006233" d="M21.27 11.48c.63.62.37 1.3.63 1.6-.32-.4-.27-1.22-.63-1.6"/>
  <path fill="#006233" d="M22.58 11.57c-.54.54-.21 1.36-.5 1.74.32-.33.28-1.34.5-1.74"/>
  <path fill="#006233" d="M21.9 11.57c-.07-.63-.71-.96-.77-1.3-.07.34.62.87.77 1.3"/>
  <path fill="#006233" d="M21.57 13.07c.1.43-.28 1.37-.16 1.65-.26-.5.22-1.44.16-1.65"/>
  <path fill="#006233" d="M22.4 14.06c-.25.78-.77.73-.93 1.2.11-.45.8-.86.93-1.2"/>
  <path fill="#006233" d="M20.73 14.43c-.34.52-.06 1.11-.34 1.48.4-.37.2-1.06.34-1.48"/>
  <path fill="#006233" d="M21.55 15.85c-.4.69-1.25.63-1.59 1.13.34-.63 1.38-.74 1.59-1.13"/>
  <path fill="#006233" d="M20.07 15.76c-.73.46-.5.94-1.05 1.45.68-.51.63-1.07 1.05-1.45"/>
  <path fill="#006233" d="M19.73 17.61c-.7-.02-1.7.81-2.31.75.6.11 1.72-.63 2.3-.75"/>
  <path fill="#006233" d="M18.6 16.87c-.05.65-1.87 1.06-2.07 1.5.22-.58 1.82-1 2.07-1.5"/>
  <path fill="#006233" d="M14.47 4.92c-.23-.18-.51-.33-.6-.51.07.23.3.4.53.56z"/>
  <path fill="#006233" d="M14.08 5.1c-.36-.15-.79-.14-.97-.36.11.22.51.3.85.42z"/>
  <path fill="#006233" d="M13.03 6.47c.22-.15 1.04-.07 1.19-.16-.3.22-.95.06-1.2.16"/>
  <path fill="#006233" d="M11.05 6.85c.18-.29 1.22-.48 1.37-.73-.27.49-1.08.42-1.37.73"/>
  <path fill="#006233" d="M11.2 7.18c.39-.34 1.29-.2 1.56-.4-.63.52-.98.11-1.56.4"/>
  <path fill="#006233" d="M12.76 6.18c.22-.42.85-.48 1.01-.73-.24.38-.78.44-1.01.73"/>
  <path fill="#006233" d="M14.56 5.8c.64-.27 1.27-.03 1.57-.16-.37.18-1.26.1-1.57.17"/>
  <path fill="#006233" d="M9.63 7.86c.15-.32.69-.67.73-.79-.15.42-.6.51-.73.79"/>
  <path fill="#006233" d="M9.49 8.42c.47-.67 1.2-.6 1.5-.85-.23.25-1.07.4-1.5.85"/>
  <path fill="#006233" d="M8.4 9.45c-.03-.7.55-.97.57-1.38.02.48-.6 1.13-.57 1.38"/>
  <path fill="#006233" d="M8.7 9.84c.11-.62.9-.66 1.05-1.02 0 .34-.94.69-1.06 1.02"/>
  <path fill="#006233" d="M8.04 9.48c-.42.47-.13 1.18-.3 1.7.2-.38.1-1.33.3-1.7"/>
  <path fill="#006233" d="M8.73 11.48c-.63.62-.37 1.3-.63 1.6.31-.4.27-1.22.63-1.6"/>
  <path fill="#006233" d="M7.42 11.57c.54.54.21 1.36.5 1.74-.32-.33-.28-1.34-.5-1.74"/>
  <path fill="#006233" d="M8.1 11.57c.07-.63.71-.96.77-1.3.07.34-.62.87-.77 1.3"/>
  <path fill="#006233" d="M8.43 13.07c-.1.43.28 1.37.16 1.65.26-.5-.22-1.44-.16-1.65"/>
  <path fill="#006233" d="M7.6 14.06c.25.78.77.73.93 1.2-.12-.45-.8-.86-.93-1.2"/>
  <path fill="#006233" d="M9.27 14.43c.34.52.06 1.11.34 1.48-.4-.37-.2-1.06-.34-1.48"/>
  <path fill="#006233" d="M8.45 15.85c.4.69 1.25.63 1.59 1.13-.34-.63-1.38-.74-1.6-1.13"/>
  <path fill="#006233" d="M9.93 15.76c.73.46.5.94 1.05 1.45-.69-.51-.63-1.07-1.05-1.45"/>
  <path fill="#006233" d="M10.27 17.61c.7-.02 1.7.81 2.31.75-.6.11-1.73-.63-2.3-.75"/>
  <path fill="#006233" d="M11.4 16.87c.05.65 1.87 1.06 2.07 1.5-.22-.58-1.82-1-2.07-1.5"/>
  <path fill="#006233" d="M14.05 5.83c.14-.57.84-.68.94-1.02-.04.36-.87.77-.94 1.02"/>
  <path fill="#006233" d="M16.12 4.4c-.1.44-.86.69-.97 1.02.04-.45.82-.7.97-1.01"/>
  <path fill="#006233" d="M15.52 5.44c.37-.53 1.11-.4 1.37-.7-.19.36-1.1.37-1.37.7"/>
  <path fill="#f7c608" d="M14.5 6.87q0-.06.09-.09h.81c.05.01.09.09.09.13v.07l.49.07.03-.1q.03-.07.1-.07l.18.04.22.05q.21.05.39.12c.04.02.05.1.04.14l-.02.05q.3.1.56.23l.05-.09q.05-.04.12-.03l.16.09.2.1.33.2c.04.04.02.12 0 .15l-.03.05q.25.17.46.36l.08-.07q.05-.03.12 0l.13.13.15.15.26.28q.03.08-.05.14l-.04.03q.19.22.34.46l.09-.03q.06-.02.12.03l.08.15.1.18q.1.18.16.34c.01.05-.05.1-.1.12l-.03.02q.1.26.17.53l.1-.01a.1.1 0 0 1 .1.06l.03.17.04.2q.05.18.05.37c0 .04-.08.08-.12.09h-.05v.56l.1.01a.1.1 0 0 1 .08.09l-.04.37-.07.36c-.02.04-.1.07-.15.06h-.05l-.16.53.09.03q.06.04.05.1l-.07.16-.09.19-.17.33c-.03.04-.12.04-.17.02l-.05-.02-.32.47.08.06q.05.04.02.1l-.12.14-.14.16-.27.28c-.04.02-.13 0-.16-.03l-.05-.04q-.22.2-.46.37l.07.08q.03.06-.02.11l-.15.1-.19.11-.35.2c-.04.01-.12-.03-.14-.07l-.04-.05q-.27.13-.55.23l.04.1q.01.07-.05.1l-.18.06-.6.16q-.09-.02-.12-.1l-.03-.07-.59.08v.12q0 .07-.08.09h-.19l-.22.01h-.4q-.08-.05-.09-.13v-.08l-.58-.08-.04.11q-.03.07-.1.06l-.4-.1-.39-.1q-.06-.06-.04-.15l.02-.07-.54-.22-.07.1q-.05.05-.12.02l-.16-.09-.53-.31c-.03-.03-.02-.11.01-.15l.04-.05-.46-.36-.09.07q-.05.04-.12 0l-.13-.13-.15-.14-.26-.3q-.01-.06.06-.13l.05-.04q-.18-.22-.33-.46l-.1.04q-.08.02-.12-.03l-.08-.16-.1-.18q-.1-.17-.16-.34 0-.07.1-.12l.05-.03-.17-.52-.11.01a.1.1 0 0 1-.1-.06l-.04-.17-.03-.2-.05-.37c0-.04.08-.08.13-.09h.06v-.56l-.11-.01a.1.1 0 0 1-.08-.09l.02-.17.03-.2.07-.36c.01-.04.1-.06.15-.06h.06q.06-.26.17-.52l-.1-.04q-.06-.04-.05-.1l.16-.35q.07-.17.18-.33c.03-.03.12-.03.16-.01l.05.02q.15-.24.33-.46l-.08-.07q-.05-.05-.02-.11l.12-.13.14-.16q.14-.16.28-.27c.04-.03.12 0 .16.02l.05.04.45-.36-.06-.08q-.03-.06.02-.12l.15-.1.54-.3c.04-.01.12.03.14.07l.04.05q.27-.12.55-.22l-.04-.1q0-.08.06-.1l.39-.12.4-.1c.04 0 .1.06.1.1l.03.07.6-.08zm.98 10.06q.3-.02.57-.07l-.02-.05q-.02-.06.05-.1a4 4 0 0 0 .79-.2q.06-.02.1.04l.02.06.52-.22-.04-.05q-.03-.06.02-.1a4 4 0 0 0 .69-.41.1.1 0 0 1 .11.02l.04.05q.23-.15.44-.34l-.06-.05q-.06-.05-.01-.1a4 4 0 0 0 .53-.57.1.1 0 0 1 .11 0l.07.04.31-.44-.08-.04q-.06-.03-.04-.1a4 4 0 0 0 .33-.67q.04-.06.11-.04l.08.03q.1-.24.16-.5l-.09-.02q-.06-.01-.07-.08a3 3 0 0 0 .11-.74q.01-.07.1-.06h.09v-.52l-.1.01q-.08 0-.1-.06a3 3 0 0 0-.12-.74q0-.07.07-.08l.1-.02q-.08-.26-.18-.5l-.08.03a.1.1 0 0 1-.11-.03 4 4 0 0 0-.35-.68q-.02-.06.04-.1l.09-.03q-.15-.23-.33-.44l-.06.05a.1.1 0 0 1-.12 0 4 4 0 0 0-.54-.56q-.05-.06 0-.1l.07-.06-.44-.34-.05.06a.1.1 0 0 1-.1.03 4 4 0 0 0-.7-.4q-.06-.04-.02-.1l.04-.06-.53-.21-.02.06q-.03.07-.1.05a4 4 0 0 0-.79-.2q-.08-.02-.06-.1l.02-.05-.46-.06v.05q0 .08-.09.08a5 5 0 0 0-.81 0q-.08 0-.08-.08v-.05l-.57.07.01.06q.03.07-.05.09a4 4 0 0 0-.78.2q-.09.02-.1-.04l-.03-.06-.52.22.04.05q.03.06-.03.1a4 4 0 0 0-.68.4.1.1 0 0 1-.12-.02l-.04-.05q-.23.16-.43.34l.05.04q.06.06.01.1a4 4 0 0 0-.53.57.1.1 0 0 1-.12 0l-.06-.04-.31.44.07.03q.07.04.04.1a4 4 0 0 0-.34.68q-.04.06-.1.04l-.08-.03q-.1.24-.16.5l.08.01q.07 0 .07.09a3 3 0 0 0-.12.73q-.01.07-.1.06h-.07v.52h.08q.07-.01.09.05a3 3 0 0 0 .12.74q0 .07-.07.08l-.08.02q.06.26.16.5l.07-.03q.09-.02.11.04a4 4 0 0 0 .34.67q.03.06-.04.1l-.07.03q.14.23.32.44l.05-.04a.1.1 0 0 1 .12 0 4 4 0 0 0 .53.57q.04.05 0 .1l-.06.04q.21.19.44.34l.04-.05a.1.1 0 0 1 .1-.02 4 4 0 0 0 .7.4q.06.05.02.1l-.03.05q.25.13.52.22l.02-.05q.02-.07.1-.05a4 4 0 0 0 .78.2q.08.03.06.1l-.02.05.56.07v-.04q0-.08.08-.08a5 5 0 0 0 .82 0q.07 0 .08.07z"/>
</svg>
