<svg xmlns="http://www.w3.org/2000/svg" width="30" height="24" viewBox="0 0 30 24">
  <path fill="#b92932" d="M0 0h30v24H0z"/>
  <path fill="#071b65" d="M0 0h15v12H0z"/>
  <path fill="#f8f8f9" d="M18.21 7a.2.2 0 0 0-.21.22v7.88c0 .64.42 2.77 4.5 3.4 4.08-.63 4.5-2.76 4.5-3.4V7.22a.2.2 0 0 0-.2-.21z"/>
  <path fill="#73af00" d="M22.5 18.51c3.4-.53 4.26-2.1 4.45-2.98h-8.9c.19.87 1.05 2.45 4.45 2.98"/>
  <path fill="#82afff" d="M25.29 11.48s.21-.21 0-.64l-2.79-.12-2.79.12c-.21.43 0 .64 0 .64-.21.21-.21.42-.21.42h.43l.46.77 2.11 1.15 2.11-1.15.46-.77h.43s0-.2-.21-.42"/>
  <path fill="#f8f8f9" d="M24.61 12.67s-.13-.3-.5-.26c0 0-.19-.26-.52-.19 0 0-.38-.22-.6.2 0 0-.72-.08-.76.46 0 0 1.11 1.65 1.14 1.67s1.32.01 1.32.01l.6-.66-.6-.84z"/>
  <path fill="#f0c850" d="M22.53 13.2s-.94-1.53-1.08-1.66c-.13-.12-.38-.24-.64-.03 0 0-.78-.06-.67.53l.22.89s-.2.6-.28.67l-.42.23.18.74 2.5-.13z"/>
  <path fill="#965032" d="m23.56 12.53-.07-.16-.03-.03h-.04l-.46.2-.54-.9a.1.1 0 0 0 .02-.09.1.1 0 0 0-.1-.04l-.12.04-.08-.25a.05.05 0 0 0-.07-.03.05.05 0 0 0-.03.07l.08.25-.13.04a.1.1 0 0 0-.05.1.1.1 0 0 0 .08.06h.01l.18 1.09-.11.05-.03.06.06.19v.15l-.74-1.28a.08.08 0 0 0-.07-.14l-.12.05-.08-.25-.03-.03h-.04l-.03.06.08.25-.13.05a.1.1 0 0 0-.05.1q.02.05.07.05l.32 2.02-.13.05s-.15.72-.03.75l1.29.4 1.66-.8c.03-.01.1-.53.1-.53zm-1.24-.85.55.9-.26.12-.34-1zm-.19.07.04-.01.34 1-.2.1zm-.84.34.8 1.39q-.06.17-.25.38l-.59-1.75zm-.2.07.06-.02.6 1.8q-.13.12-.34.22z"/>
  <path fill="#ff4b55" d="M25.24 10.47s-.05-.1-.19-.12c-.13 0-.16.11-.16.11s-.03-.02-.18-.01c-.15 0-.12.25-.12.25q.02.02-.25-.06c-.2-.06-.33-.02-.33-.02 0-.1-.06-.17-.06-.17-.17.06-.3-.01-.33-.07s.05-.15.05-.22-.1-.08-.14-.14q-.05-.09.1-.15c.1-.04.18-.2.12-.33s-.23-.1-.23-.1c.06 0 .1.12.01.14s-.18-.33-.18-.33c.22.15.39.06.43-.07.05-.13-.07-.22-.07-.22-.1.16-.27.02-.18-.08a.5.5 0 0 0 .1-.27c-.2.1-.32-.02-.32-.02.26-.19.18-.44.18-.44-.1-.05-.3-.01-.3-.01.04-.1.03-.25.03-.25a.4.4 0 0 0-.24.05c.04-.12-.01-.34-.01-.34-.08.01-.23.06-.23.06-.06-.14-.24-.23-.24-.23s-.17.09-.24.23c0 0-.15-.05-.23-.06 0 0-.05.22-.01.34a.4.4 0 0 0-.24-.05s0 .16.04.25c0 0-.21-.04-.31 0 0 0-.08.26.19.45 0 0-.13.12-.33.02 0 0 0 .17.1.27.09.1-.08.24-.18.08 0 0-.12.09-.07.22s.2.22.43.07c0 0-.08.35-.18.33s-.05-.14.01-.15c0 0-.17-.02-.23.1-.06.14.03.3.12.34q.16.05.1.15c-.04.07-.14.06-.14.14 0 .07.08.16.05.22s-.16.13-.33.06c0 0-.05.08-.06.18 0 0-.13-.04-.33.02l-.25.06s.03-.25-.12-.25l-.18.01s-.02-.12-.16-.1c-.14 0-.2.1-.2.1s-.18-.03-.23.06-.07.22.04.28c.1.06.4.3.4.3l.4.17 1.4-.62.74.19.74-.2 1.4.63.4-.18s.3-.23.4-.29.1-.2.04-.28c-.05-.1-.24-.05-.24-.05"/>
  <path fill="#f8f8f9" d="M22.06 8.26s.02.19.3.14c0 0-.01-.2-.3-.14"/>
  <path fill="#ff4b55" d="M21.02 15.69s-.2-.01-.4.14-.3.05-.51.05c-.2 0-.26.21-.26.21s-.4.1-.24.4c.1.18.24.18.33.15 0 .12.03.26.17.29.28.04.4-.1.34-.33 0 0 .03.23.21.23q.29 0 .28-.35c-.02-.24.3-.1.55-.45z"/>
  <path fill="#82afff" d="M19.85 16.54s-.13.17-.1.33c0 0-.26-.09-.12-.48 0 0 .19-.05.22.15m.42.22s-.07.2.03.39c0 0-.34-.01-.27-.42 0 0 .1-.11.24.03m.34-.02s.05.17 0 .34c0 0 .27-.02.22-.41 0 0-.14-.06-.22.07"/>
  <path fill="#ff4b55" d="M20.36 12.76c-.02-.2-1.32-.33-1.24.75 0 0-.14 0-.21.13s-.23.1-.27.05c0 0 0 .24.3.23 0 0-.09.08-.07.19s.09.24.08.34-.09.22-.09.22.23-.08.25-.24c.01-.17-.03-.3.02-.39 0 0-.02.12.08.26a.5.5 0 0 1 .07.44s.25-.13.2-.37-.1-.22-.07-.36c0 0 .26.27.22.5 0 0 .08-.1.07-.29s-.14-.32-.14-.32.89-.44.8-1.14m4.03 3.07c.2.16.3.05.5.05s.26.21.26.21.4.1.24.4c-.1.18-.24.18-.33.15 0 .12-.03.26-.17.28-.28.05-.4-.1-.34-.32 0 0-.03.23-.21.22q-.29.01-.28-.34c.02-.24-.3-.1-.55-.45l.47-.34s.2-.01.4.14"/>
  <path fill="#82afff" d="M25.15 16.54s.13.17.1.33c0 0 .26-.09.12-.48 0 0-.19-.05-.22.15m-.42.22s.07.2-.03.39c0 0 .34-.01.27-.42 0 0-.1-.11-.24.03m-.34-.02s-.05.17 0 .34c0 0-.27-.02-.22-.41 0 0 .14-.06.22.07"/>
  <path fill="#ff4b55" d="M24.64 12.76c.02-.2 1.32-.33 1.24.75 0 0 .14 0 .21.13s.23.1.27.05c0 0 0 .24-.3.23 0 0 .09.08.07.19s-.09.24-.08.34.09.22.09.22-.23-.08-.25-.24c-.01-.17.03-.3-.02-.39 0 0 .02.12-.08.26a.5.5 0 0 0-.07.44s-.25-.13-.2-.37.1-.22.07-.36c0 0-.26.27-.22.5 0 0-.08-.1-.07-.29s.14-.32.14-.32-.89-.44-.8-1.14"/>
  <path fill="#ffe15a" d="M25.17 10.91a.1.1 0 0 0-.15.03.4.4 0 0 1-.27.19c-.39.06-.94-.31-1.1-.43-.23-.17-.52-.2-.71-.08-.08.02-.31.1-.44.1s-.36-.08-.44-.1c-.19-.12-.48-.09-.7.08-.17.12-.72.5-1.1.43a.4.4 0 0 1-.28-.19.1.1 0 0 0-.18.12q.15.22.41.28h.14c.41 0 .87-.28 1.13-.47.19-.14.4-.14.5-.06q.04.04.04.1l-.04.05a.1.1 0 0 0-.18-.1q-.09.1-.02.22a.2.2 0 0 0 .27.08.3.3 0 0 0 .14-.12q.15-.04.31-.05s.15 0 .31.05q.05.09.14.12a.2.2 0 0 0 .27-.08q.06-.12-.02-.21a.1.1 0 0 0-.18.09l-.04-.06q0-.05.04-.09c.1-.08.31-.08.5.06.26.19.72.48 1.13.48l.14-.01a.6.6 0 0 0 .41-.28.1.1 0 0 0-.03-.15"/>
  <path fill="#82afff" d="m19.77 11.03-.03-.31c0-.08-.15-.14-.2-.06s-.08.22.23.37m.05-.07s.21-.17.18-.26q-.04-.15-.15-.11c-.07.02-.1.19-.03.37m.41-.14c.03-.03.04-.17-.04-.19s-.2.11-.2.27c0 0 .18-.02.24-.08m-.09.09c-.1.03-.19.11-.19.11s.18.13.3.09.06-.26-.1-.2"/>
  <path fill="#f8f8f9" d="M22.94 8.26s-.02.19-.3.14c0 0 .01-.2.3-.14"/>
  <path fill="#82afff" d="m25.23 11.03.03-.31c0-.08.15-.14.2-.06s.08.22-.23.37m-.05-.07s-.21-.17-.18-.26q.04-.15.15-.11c.07.02.1.19.03.37m-.41-.14c-.03-.03-.04-.17.04-.19s.2.11.2.27c0 0-.18-.02-.24-.08m.09.09.19.11s-.18.13-.3.09-.06-.26.1-.2"/>
  <path fill="#464655" d="m22.39 8.7.08.09a.04.04 0 0 0 .06 0l.08-.09a.04.04 0 0 0-.02-.06h-.18a.04.04 0 0 0-.02.06"/>
  <path fill="#464655" d="M22.34 9.05a.2.2 0 0 1-.15-.06.2.2 0 0 1-.05-.17q.01-.03.05-.03.03 0 .03.05a.1.1 0 0 0 .03.1q.04.04.1.04c.1 0 .11-.1.11-.1V8.7q0-.03.04-.04.04 0 .04.04v.17c-.01.06-.06.17-.18.17z"/>
  <path fill="#464655" d="M22.66 9.05h-.02a.2.2 0 0 1-.18-.16V8.7q0-.04.04-.04t.04.04v.17s.02.1.1.1q.08 0 .11-.04a.1.1 0 0 0 .03-.1.04.04 0 0 1 .03-.05q.03 0 .05.03a.2.2 0 0 1-.05.17.2.2 0 0 1-.15.06"/>
  <path fill="#f8f8f9" d="M23.79 14.46s-.27-.42-.58-.14c-.32.28-.43.63-.79.6-.2-.01-.3-.1-.35-.18q.17-.12.1-.37c-.17-.38-.76-.26-.92.15 0 0 .19-.6-.47-.4 0 0-.08-.43-.45-.31q-.28.11-.31.28a.3.3 0 0 0-.27.06l.47 1.27h.72l.16.25.94.58.17.36h.59s.04-.36.35-.47c.32-.1.83-.33.88-.52l.05-.2h.57c.07-.04.49-.72.49-.72l.2-.88c-.11-.01-1.35-.17-1.55.64m1.54-.65h.01"/>
  <path fill="#ffe15a" d="M21.44 15.82c-.23-.09-.31-.22-.34-.29q-.03-.09-.02-.13l.05-.06.04.01v.04l-.03.08.03.08a.1.1 0 0 0 .12.02l.03-.02a.2.2 0 0 0 .07-.16.3.3 0 0 0-.06-.18.3.3 0 0 0-.23-.08l-.07.03c.02-.15-.04-.23-.08-.26a.2.2 0 0 0-.26 0 .2.2 0 0 0-.12.23c0 .06.07.1.12.09a.12.12 0 0 0 .1-.13l.03-.02v.1q-.05.19-.19.22a.4.4 0 0 1-.37-.12 7 7 0 0 1-.55-1.37c.68-.32.76-.85.75-1.14-.02-.45-.3-.92-.6-1.01a.6.6 0 0 0-.42.02.3.3 0 0 0-.15.17c-.04.15.05.27.16.3a.2.2 0 0 0 .28-.11.1.1 0 0 0-.1-.15.1.1 0 0 0-.1.07l-.03-.02V12l.04-.04a.4.4 0 0 1 .26 0c.18.05.43.38.45.8 0 .26-.07.72-.71.99a.1.1 0 0 0-.06.13c.04.13.41 1.3.62 1.53a.6.6 0 0 0 .45.2q.18 0 .32-.12l.03.12c.04.1.16.29.48.42.65.25.7.43.7.5l-.03.05-.02.01a.1.1 0 0 0 0-.12.1.1 0 0 0-.14-.04.2.2 0 0 0-.08.24q.05.12.2.13h.05a.3.3 0 0 0 .24-.27c.02-.32-.47-.55-.86-.7m2.12 0c.23-.09.32-.22.34-.29q.03-.09.02-.13l-.05-.06-.04.01v.04a.1.1 0 0 1-.08.19q-.04 0-.07-.03a.2.2 0 0 1-.07-.16q0-.1.06-.18a.3.3 0 0 1 .23-.08l.07.03c-.02-.15.04-.23.08-.26a.2.2 0 0 1 .26 0q.13.09.12.23c0 .06-.07.1-.12.09a.12.12 0 0 1-.1-.13l-.03-.02v.1q.05.19.19.22a.4.4 0 0 0 .37-.12c.12-.14.4-.88.55-1.37-.68-.32-.76-.85-.75-1.14.02-.45.3-.92.6-1.01a.6.6 0 0 1 .42.02.3.3 0 0 1 .15.17.24.24 0 0 1-.16.3.2.2 0 0 1-.28-.11.1.1 0 1 1 .2-.08l.03-.02V12l-.04-.04a.4.4 0 0 0-.26 0c-.18.05-.43.38-.45.8 0 .26.07.72.71.99a.1.1 0 0 1 .06.13c-.04.13-.41 1.3-.62 1.53a.6.6 0 0 1-.45.2.4.4 0 0 1-.32-.12l-.03.12c-.04.1-.16.29-.48.42-.65.25-.7.43-.7.5v.03l.03.02.02.01a.1.1 0 0 1 .02-.15.1.1 0 0 1 .12 0c.07.03.13.13.08.23a.2.2 0 0 1-.2.13h-.05a.3.3 0 0 1-.24-.27c-.02-.32.47-.55.86-.7"/>
  <path fill="#fff" d="M5.5 9.77V12h4V9.77L12.54 12H15v-1.24L11.24 8H15V4h-2.74L15 2V0h-1.44L9.5 2.98V0h-4v2.8L1.75 0H0v1.9L2.99 4H0v4h3.76L0 10.76V12h2.46z"/>
  <path fill="#b92932" d="m0 1 4.09 3h1.36L0 0zm0 11 5.45-4v1l-4.09 3z"/>
  <path fill="#b92932" d="M8.5 12h-2V7H0V5h6.5V0h2v5H15v2H8.5z"/>
  <path fill="#b92932" d="M15 11.67 10 8v1l4.1 3h.9zM15 0h-.25L9.3 4h1.37L15 .82z"/>
</svg>
