<svg xmlns="http://www.w3.org/2000/svg" width="30" height="24" viewBox="0 0 30 24">
  <path fill="#f8d047" d="M30 0 0 24V0z"/>
  <path fill="#ed7135" d="M30 24H0L30 0z"/>
  <path fill="#fff" d="M26.08 6.2c-.74.02-1.23-.07-2 .2.29-.46 1.04-.39 1.2-.9-.49.3-1.01-.08-1.39.46.19-.8.64-1.4.78-2.07-.72.62-.86 1.85-1.52 2.3-.66.15-1.15-.81-1.7-.54-1.2-.1-2.43-1.42-3.67-1.11.4-.03.7.1.95.26-.23.04-.5-.2-.66-.03.32.02.61.14.46.45-.73-.52-1.58-.46-2.1-.01.38-.2.74-.04 1.03.09-.22.18-.62-.02-.75.23q.17-.09.52-.01a1 1 0 0 0-.05.37c-1.07-.88-2.6.71-1.2.5-1.04-.38.66-.61 1.66.07-.35-.08-1.06.06-1.2-.37q-.1.27.07.41c-.63.28-1.77.2-2.06.8.47-.45 1.2-.08 1.72-.19a.4.4 0 0 0-.05.25c-.15.02-.24.37-.17.49-.1.48-1.5 1.34-.16.74-.04.46-.56.62-.3 1.13.04-.43.39-.48.72-.56-.09.24.13.58.4.53-.11.19-.01.54.24.59-.12.34-.59-.01-.72.33.36-.11.58.38.96.2-.05.15-.02.24.08.4-.24-.04-.61.08-.72-.2-.19.32.39.33.38.56-.04-.14-.28-.24-.38-.11-.06-.38-.52-.4-.7-.3.07-.24-.4-.42-.5-.26-.13-.38-.54-.66-.7-.96-.2.25.14.35.07.62-.1-.1-.3-.15-.4-.03-.07-.15-.36-.22-.47-.06-.07-.15-.35-.2-.46-.04-.1-.46-.7-.22-.85-.58-.12.32.36.35.29.67-.3-.2-.7.05-.6.4-.21-.2-.63 0-.56.3-.32-.27-1.03.05-1.18.31.2-.11.45-.04.66.02-.09.13-.2.37-.08.54-.34 0-.45.44-.32.7-.41.1-.7.69-1.18.53.2.37.66.03.94.07-.12.08-.24.52-.1.67-.16.08-.3.32-.29.46-.26.03-.38.36-.66.27.05.12.22.2.42.24-.13.09-.24.24-.42.17a.4.4 0 0 0 .15.28c-.19-.01-.42.1-.6.02q0 .15.08.3c-.32-.09-.78-.16-.96.1.16-.01.33.04.38.13-.86.16-2.13-.77-2.65-.13.57-.04 1.39.2 1.92.44-.5.04-1.65.2-1.97.57.43-.03 1.03-.16 1.4-.18-.85.5-1.88.76-2.7 1.28.58.13 1.28-.37 1.9-.5-.82.39-1.5 1.08-2.41 1.44 1.47.01 2.97-1.1 4.12-1.85-.32.17-.33.63-.75.68.53.2.78-.54 1.33-.49-.28.46-.67.24-.8.72 1.54-.31 2.07-2.13 3.6-2.12a1 1 0 0 1-.06.46q-.73-.15-.2.25c-.22.06-.26.37-.53.43.13.17.45.06.57-.07 0 .12.14.23.07.37.24.02.13-.4.38-.4-.09.1 0 .28.16.25-.08.08-.02.19.09.19-.08.14 0 .3-.05.47-1.22.14-.42 2.28.5 2.27.9-.02 1.32-1.47.83-2.1a.3.3 0 0 0 .23-.06q.09.16.3.16c.14.23.34.45.24.78.5-.55-.1-1.85-.82-1.37a.4.4 0 0 0-.31-.1q.04-.3-.18-.34c-.25-.48-.5-.88-.24-1.43 2.8 1.91 3.28-2.01.85-1.2.04-.06.06-.18.02-.24a.4.4 0 0 0 .21-.26c.13.02.32-.07.44-.04-.44-.63-1.33-.04-1.2.62-.65.41-.5-.6-.47-.94.09-.05.09-.28.04-.35.08-.02.17-.15.17-.25.15.02.27-.16.28-.28.15.08.4 0 .45-.16.12.1.42.1.5-.03q1.77.61 3.7.85-.1.22-.02.36c-.3.05-.59-.13-.8.03.25.02.17.19.51.22-.36.04-.3.53-.63.5.3.34.48-.2.76-.16-.01.13.11.27-.01.46.2 0 .3-.22.34-.38.11.1.22.38.46.27 0 .18.31.3.44.23.07.17.41.23.53.14.03.1.16.14.27.18.24.08.46-.11.65.02.1.05.19.15.3.14-.77 1.38 2.56 2.3 2.6.55-.18-.66-.17-1.82-1.18-1.49q-.04-.04-.1-.02.18-.14.13-.32c.3.01.31-.37.66-.24-.3-.36-1.3-.23-1.27.3-.17-.08-.37.08-.37.26-.1-.02-.25.03-.33.18-.4-.24-.83-.38-1.28-.32-.05-.12-.26-.26-.42-.21.57-1.02.82-2.37 1.36-3.1.45-.17.52.44.12.54.16.12.37.03.48-.12-.12.32-.06.7.28.79-.15-.25.13-.38.08-.6.18.1.33.33.31.5.25-.25-.07-.57-.09-.83.44.09.81-.22 1.12-.42l.23-.1c4.02 2.04 1.67-4.58-.02-.88-1.25.2-2.84 0-3.7-1.12.65-.07.92.73 1.48.63-.43-.12-.44-.65-.93-.73a1.67 1.67 0 0 1 2.28.36c-.17.09-.23.36-.44.35q.3.17.57-.07c-.04.18 0 .35.23.42-.15-.17.04-.29.14-.41.07.12.24.2.15.36.25-.03.31-.48.12-.63.19-.23-.03-.54-.27-.62.5-.42.72.37.5.81.25-.16.25-.46.25-.7.67.4 2.32-.7 2.46.36.32-.4-.17-.65-.68-.7.01-.28-.33-.58-.57-.36.28-.04.36.37.03.48.07-.3-.28-.56-.55-.4.47.15.11.6-.29.51.01-.37.41-.67.13-1.06.1-.01.1-.11.01-.16.12.02.18-.1.06-.16.08.01.16-.03.12-.1.78-.3 1.88-.36 2.52-.71zm-4.92 1.46c.14-.41.78-.61.6-.05.17-.32.84-.36.4.07.16.04.36-.08.53-.07-.18.8-1.06.05-1.53.05"/>
</svg>
