<svg xmlns="http://www.w3.org/2000/svg" width="30" height="24" viewBox="0 0 30 24">
  <path fill="#012a87" d="M0 0h30v24H0z"/>
  <path fill="#fff" d="M30 0H11L0 10v14z"/>
  <path fill="#f9d90f" d="M0 0v10L11 0z"/>
  <path fill="#000" d="M13.93 9.62 15 9l-1.07-.62a5 5 0 0 0-4.31-4.31L9 3l-.62 1.07a5 5 0 0 0-4.31 4.31L3 9l1.07.62a5 5 0 0 0 4.31 4.31L9 15l.62-1.06a5 5 0 0 0 4.31-4.32M9 13.33a4.34 4.34 0 1 1 .01-8.68A4.34 4.34 0 0 1 9 13.33"/>
  <path fill="#dc171d" d="m10.71 9 .86-1.48H9.86L9 6.03l-.86 1.49H6.43L7.29 9l-.86 1.48h1.71L9 11.97l.86-1.49h1.7z"/>
</svg>
