<svg xmlns="http://www.w3.org/2000/svg" width="30" height="24" viewBox="0 0 30 24">
  <path fill="#459a45" d="M0 0h30v24H0z"/>
  <path fill="#fedf00" d="M2.47 12 15 20l12.53-8L15 4z"/>
  <path fill="#002776" d="M14.9 16.85a5 5 0 1 0 0-10 5 5 0 0 0 0 10"/>
  <path fill="#cbe9d4" d="M10.49 9.5a5 5 0 0 0-.52 1.56c3.09-.22 7.29 1.47 9.09 3.56a5 5 0 0 0 .68-1.55c-2.22-2.18-6.13-3.59-9.25-3.57"/>
  <path fill="#88c9f9" d="M10.27 12.09h.78v.77h-.78zm.78 1.55h.77v.77h-.77z"/>
  <path fill="#55acee" d="M12.6 12.09h.77v.77h-.77zm1.54.77h.78v.78h-.78zm3.1 1.55h.78v.77h-.78zm-2.32.77h.77v.78h-.77zm2.32-4.64h.78v.77h-.78z"/>
  <path fill="#3b88c3" d="M15.7 13.64h.77v.77h-.78z"/>
</svg>
