<svg xmlns="http://www.w3.org/2000/svg" width="30" height="24" viewBox="0 0 30 24">
  <path fill="#061b65" d="M0 0h30v24H0z"/>
  <path fill="#fff" d="M22.63 18.97a6.7 6.7 0 0 1-3.92-1.55q-.24.2-.43.2c-.3-.05-.84-.41-.9-.86a.9.9 0 0 1 .42-.79c.24-.19.49-.44.52-.51q.22-.3.42-.33a1.4 1.4 0 0 1-.14-.59l.03-6.91h8.04v6.92q0 .32-.16.62c.3.09.45.28.6.46.13.15.3.36.42.4l.15.1a.9.9 0 0 1-.2 1.27q-.28.16-.58.18a.6.6 0 0 1-.39-.14 6.3 6.3 0 0 1-3.75 1.54z"/>
  <path fill="#006129" d="M22.58 17.49c-2.44-1.26-3.71-1.96-3.73-2.95l.03-6.67h7.54v6.68c.01.9-1.36 1.76-3.73 2.94l-.06.02z"/>
  <path fill="#fff" d="M23.8 15.2c-.03-.7-.45-2.23-.6-2.72.32-.84.96-2.3-.2-2.8-.16-.17.16 0 .25-.27.3-.34-.27-1.11-.63-.89-.71.18-.01.33-.33.61-.06.6.6.28-.05.78-.23.1-.31.73-.31.97-.25.38-1.22 1.18-.7 1.62.3-.14.1-.59.28-.73.13-.09.5-.36.63-.53.04.28-.36.98-.16 1.01-.26.83-.2 1.93-.15 2.71-.11.23-.2.66.11.72-.23-.01-.14.2 0 .22.13-.17.93-.2.66-.42.16.02.06.33.36.23.22.6.51-.1.6-.17.14-.12.42.03.24-.34m-.6-3.77c.08-.16-.02-.32.07-.46.2.14-.05.8-.06.46"/>
  <path fill="#ffc72c" d="M22.63 18.72c-1.9 0-3.5-1.27-3.94-1.64l-.05.06c-.1.1-.23.22-.36.22-.17-.02-.6-.3-.64-.63s.26-.52.3-.54c.22-.18.58-.51.62-.65q.14-.18.26-.16c.2 0 .38.16.4.18.03.03 1.54 1.74 3.22 1.74h.14a4.6 4.6 0 0 0 3.23-1.48c.05-.1.3-.43.58-.43.23.05.36.2.53.4.16.2.34.42.52.48l.08.06c.23.37 0 .74-.19.86a1 1 0 0 1-.43.14l-.14-.03a.3.3 0 0 1-.19-.21v-.03c-.4.36-1.98 1.67-3.81 1.67z"/>
  <path fill="#fff" d="M5.5 9.77V12h4V9.77L12.54 12H15v-1.24L11.24 8H15V4h-2.74L15 2V0h-1.44L9.5 2.98V0h-4v2.8L1.75 0H0v1.9L2.99 4H0v4h3.76L0 10.76V12h2.46z"/>
  <path fill="#d22d32" d="m0 1 4.09 3h1.36L0 0zm0 11 5.45-4v1l-4.09 3z"/>
  <path fill="#d22d32" d="M8.5 12h-2V7H0V5h6.5V0h2v5H15v2H8.5z"/>
  <path fill="#d22d32" d="M15 11.67 10 8v1l4.1 3h.9zM15 0h-.25L9.3 4h1.37L15 .82z"/>
</svg>
