<svg xmlns="http://www.w3.org/2000/svg" width="30" height="24" viewBox="0 0 30 24">
  <path fill="#13348f" d="M0 0h30v24H0z"/>
  <path fill="#bf312d" d="M0 13h30v4H0z"/>
  <path fill="#fff" d="M0 12h30v2H0zm0 4h30v2H0z"/>
  <path fill="#f7d116" d="m5.98 15.86.24.74H7l-.63.46.24.75-.63-.47-.64.46.25-.74-.64-.46h.78zm-.07-3.9.25.74h.78l-.64.46.25.75-.64-.46-.63.46.24-.75-.63-.46h.78zm11.1 0 .24.74h.78l-.63.46.24.75-.63-.46-.64.46.24-.75-.63-.46h.78zm-.08 3.9.25.74h.78l-.64.46.25.74-.64-.46-.63.46.24-.74-.64-.46h.79zm-5.47-7.9.24.74h.79l-.64.46.24.75-.63-.47-.64.47.24-.75-.63-.46h.78zm0 11.68.24.75h.79l-.64.46.24.75-.63-.46-.64.46.25-.75-.64-.46h.79zM8.03 9.07l.24.74h.79l-.64.46.24.75-.63-.46-.64.46.25-.75L7 9.81h.78zm6.85 9.46.24.75h.79l-.63.46.24.75-.64-.46-.63.46.24-.75-.63-.46h.78zm-6.73.1.24.74h.79l-.64.46.24.75-.63-.47-.64.47.25-.75-.64-.46h.79zm6.63-9.65.25.75h.78l-.63.46.24.74-.64-.46-.63.46.24-.74-.63-.46h.78z"/>
</svg>
