<svg xmlns="http://www.w3.org/2000/svg" width="30" height="24" viewBox="0 0 30 24">
  <path fill="#039" d="M0 0h30v24H0z"/>
  <path fill="#fc0" d="M9.98 11.8h-2.2v1.38h2.2a5.07 5.07 0 0 0 8.6 2.9l-.92-.93a3.75 3.75 0 0 1-6.43-2.66 3.76 3.76 0 0 1 6.03-3.01l.86.86 1.94-1.94-.97-.97-1.03 1.03a5 5 0 0 0-2.37-.99V2.43h-1.37v5.04a5.1 5.1 0 0 0-4.34 4.34"/>
  <path fill="#fc0" d="M25.16 11.8h-4.42v1.38h4.42z"/>
  <path fill="#fc0" d="M16.53 10.96a2.16 2.16 0 0 0-3.7 1.53 2.17 2.17 0 0 0 3.7 1.53l-.91-.91a.87.87 0 0 1-1.49-.62.87.87 0 0 1 1.49-.62z"/>
  <path fill="#fc0" d="M10.26 8.67a.69.69 0 1 0 0-1.38.69.69 0 0 0 0 1.38"/>
  <path fill="#fc0" d="M6.22 13.18a.69.69 0 1 0 0-1.38.69.69 0 0 0 0 1.38"/>
  <path fill="#fc0" d="M15 19.76a.69.69 0 1 0 0-1.38.69.69 0 0 0 0 1.38"/>
  <path fill="#fc0" d="M15 21.96a.69.69 0 1 0 0-1.37.69.69 0 0 0 0 1.37"/>
  <path fill="#fc0" d="M19.42 13.18a.69.69 0 1 0 0-1.38.69.69 0 0 0 0 1.38"/>
  <path fill="#fc0" d="m10.39 16.1-.98.97.98.98.97-.98z"/>
  <path fill="#fc0" d="m20.63 17.15-.98.98.98.96.97-.96z"/>
</svg>
