<svg xmlns="http://www.w3.org/2000/svg" width="30" height="24" viewBox="0 0 30 24">
  <path fill="#fff" d="M0 0h30v24H0"/>
  <path fill="#da251d" d="M4 16h26v8H4"/>
  <path fill="#2b7338" d="M4 0h26v14H4"/>
  <path fill="#fc0" d="M1.02 6.56c.4-.64 1.26-.73 1.78-.27.4.35.58.97.23 1.44-.33.44-1.04.51-1.36.03a.65.65 0 0 1 .35-1.02.2.2 0 0 1 .25.14.2.2 0 0 1-.15.24c-.14.03-.26.22-.12.42.14.22.5.24.71-.04.2-.26.12-.66-.18-.93a.77.77 0 0 0-1.17.19c-.34.56-.08 1.2.36 1.7l.86.81c.48.54.9 1.38.4 2.17-.38.63-1.24.74-1.76.28-.4-.36-.59-.97-.24-1.44.34-.45 1.05-.52 1.37-.03.27.4.08.91-.36 1.02a.2.2 0 0 1-.24-.14.2.2 0 0 1 .15-.24c.13-.03.25-.22.12-.43-.14-.2-.5-.23-.71.05-.2.26-.12.65.19.92.32.3.88.24 1.14-.2.36-.55.1-1.2-.35-1.7l-.86-.8v-.01c-.48-.54-.9-1.37-.4-2.16"/>
  <path fill="#fc0" d="M1.02 12.56c.4-.64 1.26-.73 1.78-.27.4.35.58.97.24 1.43s-1.05.52-1.38.03c-.27-.4-.07-.9.36-1a.2.2 0 0 1 .25.13.2.2 0 0 1-.15.23c-.14.04-.26.23-.12.43.14.22.5.24.71-.04.2-.26.11-.66-.18-.93a.77.77 0 0 0-1.17.18c-.34.57-.08 1.2.36 1.7l.86.82v.01c.48.54.9 1.37.4 2.15-.38.64-1.24.75-1.76.29-.4-.36-.59-.96-.24-1.43.34-.45 1.05-.52 1.37-.03.27.4.08.9-.36 1a.2.2 0 0 1-.24-.13.2.2 0 0 1 .15-.24c.13-.03.25-.22.12-.43-.14-.2-.5-.23-.71.05-.2.26-.12.65.19.93.32.28.88.23 1.14-.2.36-.56.1-1.2-.35-1.7l-.86-.82c-.49-.54-.9-1.38-.4-2.16"/>
  <path fill="#fc0" d="M1.02.56c.4-.64 1.26-.73 1.78-.27.4.35.58.97.23 1.44-.33.44-1.04.51-1.36.03A.65.65 0 0 1 2.02.74a.2.2 0 0 1 .25.14.2.2 0 0 1-.15.24c-.14.03-.26.22-.12.42.14.22.5.24.71-.04.2-.26.12-.66-.18-.93a.77.77 0 0 0-1.17.19c-.34.56-.08 1.2.36 1.7l.86.81c.48.54.9 1.38.4 2.16-.38.64-1.24.75-1.76.29-.4-.36-.59-.97-.24-1.44.34-.45 1.05-.52 1.37-.03.27.4.08.91-.36 1.02a.2.2 0 0 1-.24-.14.2.2 0 0 1 .15-.24c.13-.03.25-.22.12-.43-.14-.2-.5-.23-.71.05-.2.26-.12.65.19.92.32.3.88.24 1.14-.2.36-.55.1-1.2-.35-1.7l-.86-.8v-.01c-.48-.54-.9-1.37-.4-2.16"/>
  <path fill="#fc0" d="M1.02 18.56c.4-.64 1.26-.73 1.78-.27.4.35.58.97.23 1.44-.33.44-1.04.51-1.36.03a.65.65 0 0 1 .35-1.02.2.2 0 0 1 .25.14.2.2 0 0 1-.15.24c-.14.03-.26.22-.12.42.14.22.5.24.71-.04.2-.26.12-.66-.18-.93a.77.77 0 0 0-1.17.19c-.34.56-.08 1.2.36 1.7l.86.81c.48.54.9 1.38.4 2.16-.38.64-1.24.75-1.76.29-.4-.36-.59-.97-.24-1.44.34-.45 1.05-.52 1.37-.03.27.4.08.91-.36 1.02a.2.2 0 0 1-.24-.14.2.2 0 0 1 .15-.24c.13-.03.25-.22.12-.43-.14-.2-.5-.23-.71.05-.2.26-.12.65.19.92.32.3.88.24 1.14-.2.36-.55.1-1.2-.35-1.7l-.86-.8v-.01c-.48-.54-.9-1.37-.4-2.16"/>
</svg>
