<svg xmlns="http://www.w3.org/2000/svg" width="30" height="24" viewBox="0 0 30 24">
  <path fill="#db362f" d="M0 0h30v24H0z"/>
  <path fill="#ff0" d="M6.96 6.15 6.19 3.8l-.77 2.36H2.93l2.02 1.46-.77 2.37 2.01-1.46L8.2 9.98 7.43 7.6l2.02-1.46zm4.76-1.96.43.7.07-.82.81-.18-.76-.33.07-.82-.54.62-.77-.32.43.7-.54.63zm2.14 2.18.12.82.39-.73.82.14-.58-.6.39-.73-.75.37-.57-.6.11.83-.74.36zm.74 3.24.65-.5-.83.02-.28-.78-.23.8-.83.03.69.46-.23.8.65-.51.7.46zm-2.34 1.93.04-.83-.52.64-.77-.29.45.7-.52.64.8-.22.46.7.04-.83.8-.22z"/>
</svg>
