<svg xmlns="http://www.w3.org/2000/svg" width="30" height="24" viewBox="0 0 30 24">
  <path fill="#004990" d="M0 24h30V0H0z"/>
  <path fill="#ffd51d" d="m17.18 15.67.04.01.94 1.76.63 1.87-.01.03-.05.02-.02.01-.04-.01-.93-1.74-.64-1.89q0-.02.02-.03z"/>
  <path fill="#ffd51d" d="m13.9 8.33-.03-.01-.94-1.74-.63-1.89.01-.03.07-.03.03.01.94 1.76.63 1.87-.01.03z"/>
  <path fill="#ffd51d" d="M17.74 15.37h.03l1.21 1.6.92 1.74-.01.04-.02.01-.04.03-.04-.01-1.2-1.57-.92-1.77.01-.03z"/>
  <path fill="#ffd51d" d="m13.31 8.62-1.2-1.57-.92-1.76.01-.04.06-.04.03.01 1.21 1.59.92 1.75-.01.03-.06.04z"/>
  <path fill="#ffd51d" d="M18.24 14.99h.04l1.44 1.38 1.18 1.58V18l-.06.05h-.03l-1.43-1.37-1.2-1.6.01-.04z"/>
  <path fill="#ffd51d" d="M12.84 9.01h-.03l-1.43-1.36-1.2-1.6.01-.04.05-.05h.04l1.44 1.38 1.18 1.59v.04z"/>
  <path fill="#ffd51d" d="m18.71 14.53 1.65 1.13 1.41 1.39v.03l-.04.06h-.04l-1.62-1.12-1.43-1.4v-.04l.04-.05z"/>
  <path fill="#ffd51d" d="m12.37 9.47-1.62-1.12-1.43-1.4v-.03l.04-.06h.04L11.04 8l1.41 1.38v.04l-.04.05z"/>
  <path fill="#ffd51d" d="m19.07 14 1.8.87 1.62 1.15v.04l-.03.05q0 .03-.04.01l-1.78-.86-1.63-1.15v-.04l.03-.06z"/>
  <path fill="#ffd51d" d="m12.01 10-1.78-.86L8.6 7.98q-.02 0 0-.03l.03-.06q0-.02.03-.01l1.8.86 1.62 1.15v.04l-.03.06q0 .02-.04 0"/>
  <path fill="#ffd51d" d="M11.74 10.57 9.84 10l-1.79-.89q-.02 0-.01-.03l.02-.06Q8.07 9 8.1 9l1.91.58 1.78.88q.02 0 .01.03l-.02.05v.01q0 .03-.04.02"/>
  <path fill="#ffd51d" d="m11.56 11.18-1.96-.27-1.9-.6-.03-.03.02-.06q0-.03.03-.02l1.98.27 1.9.6.01.02-.01.07q0 .03-.04.02"/>
  <path fill="#ffd51d" d="m11.48 11.81-1.98.04-1.98-.3q-.02 0-.02-.02v-.07l.03-.03 2-.03 1.96.29q.03 0 .02.02v.07q0 .03-.03.03"/>
  <path fill="#ffd51d" d="M11.53 12.42q0 .02-.03.02l-1.94.35-2 .02-.04-.02v-.07q0-.03.02-.03l1.97-.35 1.98-.02q.03 0 .03.03z"/>
  <path fill="#ffd51d" d="M11.64 13.03q0 .03-.02.04l-1.87.64-1.97.33q-.03 0-.03-.02l-.02-.06q0-.03.02-.03l1.89-.66 1.95-.32q.03 0 .03.02z"/>
  <path fill="#ffd51d" d="m11.85 13.63-.01.03-1.75.93-1.9.64-.03-.02-.03-.06.02-.04 1.76-.93 1.88-.63q.02 0 .03.02z"/>
  <path fill="#ffd51d" d="M18.93 9.82v-.04l1.6-1.2 1.77-.91h.03v.01l.04.06-.01.03-1.58 1.2-1.78.92-.03-.02z"/>
  <path fill="#ffd51d" d="M12.15 14.18v.04l-1.58 1.19-1.78.92-.03-.01-.04-.06v-.03l1.6-1.2 1.76-.91h.04z"/>
  <path fill="#ffd51d" d="M18.55 9.32v-.04l1.38-1.44 1.6-1.17h.04l.04.06v.03L20.24 8.2l-1.61 1.18h-.04z"/>
  <path fill="#ffd51d" d="M12.54 14.68v.04l-1.37 1.42-1.62 1.19h-.03l-.05-.06v-.03l1.39-1.44 1.6-1.17h.03z"/>
  <path fill="#ffd51d" d="M18.09 8.88v-.03l1.14-1.64 1.39-1.4h.03l.06.04v.04L19.58 7.5l-1.4 1.42h-.04z"/>
  <path fill="#ffd51d" d="M13 15.12v.04l-1.13 1.61-1.4 1.42h-.04l-.05-.04v-.03l1.14-1.64 1.39-1.4h.03z"/>
  <path fill="#ffd51d" d="M17.57 8.52q-.02 0-.01-.03l.87-1.8 1.15-1.6h.06l.04.03v.04l-.85 1.77-1.17 1.62q0 .02-.03 0z"/>
  <path fill="#ffd51d" d="M13.52 15.48q.02 0 .01.03l-.86 1.77-1.17 1.63h-.03l-.06-.03-.01-.04.87-1.79 1.15-1.6q.02-.02.04 0z"/>
  <path fill="#ffd51d" d="m17.06 8.28-.07-.03v-.03l.57-1.9.89-1.77q0-.02.03-.01l.06.02q.03.01.02.04L18 6.48l-.9 1.79z"/>
  <path fill="#ffd51d" d="m14.05 15.73.04.02.02.03-.58 1.89-.89 1.78q0 .02-.03.01l-.07-.02-.01-.04.58-1.9.88-1.76q0-.03.04-.02z"/>
  <path fill="#ffd51d" d="m16.49 8.07-.04.02-.06-.02-.02-.03.27-1.97.6-1.88.03-.02.07.02q.02 0 .02.03l-.27 1.95z"/>
  <path fill="#ffd51d" d="m14.63 15.91.07.02q.02 0 .02.03l-.27 1.95-.6 1.9-.03.02-.07-.02q-.03 0-.02-.03l.27-1.97.6-1.88z"/>
  <path fill="#ffd51d" d="m15.83 8-.07-.01q-.02 0-.03-.03l-.04-1.99.3-1.95q0-.02.03-.02h.06q.03 0 .03.03L16.15 6l-.3 1.97q0 .03-.02.02"/>
  <path fill="#ffd51d" d="m15.26 16 .07.01q.02 0 .02.03L15.4 18l-.3 1.97q0 .02-.02.02H15q-.02 0-.02-.03l-.05-1.99.3-1.95q0-.02.03-.02"/>
  <path fill="#ffd51d" d="M15.13 8q-.03 0-.03-.02l-.36-1.95-.01-1.98.02-.03h.07q.03 0 .03.02l.35 1.94.02 2-.03.02z"/>
  <path fill="#ffd51d" d="M15.96 16q.02 0 .03.02l.35 1.94.02 1.99q0 .02-.03.03h-.06q-.03 0-.03-.02L15.88 18l-.01-1.97q0-.02.02-.03z"/>
  <path fill="#ffd51d" d="m14.5 8.12-.03-.02-.66-1.88-.32-1.94q0-.03.02-.03l.07-.02q.02 0 .03.02l.65 1.86.33 1.96q0 .03-.02.03z"/>
  <path fill="#ffd51d" d="M16.58 15.88q.03 0 .04.02l.65 1.86.33 1.96-.02.04-.07.01q-.02 0-.03-.02l-.66-1.87-.32-1.95q0-.02.02-.03z"/>
  <path fill="#ffd51d" d="m12.98 12.09.56-.27.06-.03.48-.21a12 12 0 0 0 .66 1.57l-.04.02-1.04.5a6 6 0 0 1-.68-1.58"/>
  <path fill="#ffd51d" d="m15.27 12.91-.2.1q-.2-.36-.31-.67l-.37-.9.65-.29.1-.03.76-.32.01.03a15 15 0 0 1 .68 1.53z"/>
  <path fill="#ffd51d" d="M17.78 11.02q.16.39.27.79l-.61.22-.14.05-.38.15a10 10 0 0 0-.7-1.56l.23-.09.3-.12.62-.24q.24.4.41.8"/>
  <path fill="#ffd51d" d="m18.7 11.61-.38.11a5 5 0 0 0-.68-1.6l.53-.17.09-.01h.03a3.5 3.5 0 0 1 .67 1.61h-.02l-.03.01-.2.05z"/>
  <path fill="#ffd51d" d="M12.86 14.15a3.5 3.5 0 0 1-.72-1.6l.01-.01.05-.05h.01l.18-.11.34-.18a5 5 0 0 0 .7 1.59l-.37.21z"/>
  <path fill="#ffd51d" d="M12.1 12.3q-.08-.81.24-1.6l.04-.02.32-.2-.04.18q-.1.58 0 1.23v.02l.01.05-.03.01z"/>
  <path fill="#ffd51d" d="m13.67 9.98.06-.03a6 6 0 0 0 .26 1.36l-.57.26-.5.26a3.5 3.5 0 0 1 .02-1.48z"/>
  <path fill="#ffd51d" d="m14.4 9.65.18-.08.06-.02.38-.16a6 6 0 0 1 .75 1.16l-.1.04-.64.27-.4.17-.08.03-.02.02-.18.07-.05.02-.18-.59a5 5 0 0 1-.15-.74z"/>
  <path fill="#ffd51d" d="m15.38 9.25.28-.1q.23-.1.45-.16l.3.18q.43.3.81.82V10l-.57.2-.1.05-.46.18a8 8 0 0 0-.82-1.14z"/>
  <path fill="#ffd51d" d="m16.72 8.81.05-.01q.8.3 1.37.94h-.02l-.22.06-.41.11-.02-.01-.04-.06a4 4 0 0 0-1.06-.94z"/>
  <path fill="#ffd51d" d="M15.38 8.58q.54-.03 1.06.11l-.02.01-.3.08a2 2 0 0 0-.74-.2"/>
  <path fill="#ffd51d" d="m14.66 8.81-.1-.03a2 2 0 0 1 1.28.08l-.13.05-.12.04q-.22.07-.49.18l-.03-.03q-.16-.15-.41-.29"/>
  <path fill="#ffd51d" d="m14.18 8.9.1-.02q.18.01.3.1.14.08.29.24l-.45.18h-.01l-.46.21q0-.21.02-.38.05-.25.2-.33"/>
  <path fill="#ffd51d" d="M13.03 10.07q.1-.25.25-.45.22-.31.56-.53l-.04.08v.01q-.07.2-.08.5v.04z"/>
  <path fill="#ffd51d" d="M13.15 9.52q-.23.3-.37.7l-.3.18q.27-.5.67-.88"/>
  <path fill="#ffd51d" d="m14.78 15.1-.26.13-.07.04a3.5 3.5 0 0 1-1.47-.95H13l.18-.11.38-.2h.01l.03.03.01.02.06.07a4 4 0 0 0 1.12.96"/>
  <path fill="#ffd51d" d="m15.37 14.8-.02.02-.13.06-.23.1-.3-.19a4 4 0 0 1-.84-.84l-.02-.04-.02-.02.75-.35.31-.15a8 8 0 0 0 .86 1.25l-.06.03z"/>
  <path fill="#ffd51d" d="m16.53 14.29-.56.24-.36-.52-.42-.75.07-.03.58-.26.09-.04.76-.3a11 11 0 0 1 .4 1.42z"/>
  <path fill="#ffd51d" d="m17.4 13.92-.07.03a6 6 0 0 0-.32-1.46h.02l.5-.2.11-.05.47-.18.02.08a4 4 0 0 1-.03 1.5l-.07.04z"/>
  <path fill="#ffd51d" d="m18.49 13.71.06-.03q-.29.53-.72.9l.08-.1q.22-.3.35-.68h.01l.09-.04z"/>
  <path fill="#ffd51d" d="M18.03 13.89a2 2 0 0 1-.8 1.04l.05-.1a2 2 0 0 0 .07-.66l.24-.1.19-.08.16-.06z"/>
  <path fill="#ffd51d" d="M16.9 15.12a.4.4 0 0 1-.2 0l-.2-.07a2 2 0 0 1-.34-.3l-.02-.02-.02-.03.07-.03.22-.1.06-.02.1-.05.04-.01.5-.2v.05q.03.26 0 .45c-.03.09-.08.26-.21.33"/>
  <path fill="#ffd51d" d="M16.51 15.24a2 2 0 0 1-1.3-.14l.17-.07.08-.04.07-.03.1-.04.25-.12.12.12a2 2 0 0 0 .5.32z"/>
  <path fill="#ffd51d" d="M15 15.2a3 3 0 0 0 .88.23q-.6.05-1.18-.09h.01l.18-.09.06-.03h.03z"/>
  <path fill="#ffd51d" d="M18.98 11.77c.05.57-.06 1.16-.3 1.69l-.09.02-.08.03-.19.06.06-.24a4 4 0 0 0-.01-1.35v-.01l.04-.02.35-.12.04-.01.16-.05z"/>
</svg>
