<svg xmlns="http://www.w3.org/2000/svg" width="30" height="24" viewBox="0 0 30 24">
  <path fill="#dd4446" d="M0 12h30v6H0z"/>
  <path fill="#fff" d="M0 6h30v6H0z"/>
  <path fill="#f8d448" d="M30 6H0V0h30z"/>
  <path fill="#163aa0" d="M30 24H0v-6h30z"/>
  <path fill="#439543" d="m0 24 15-12L0 0z"/>
  <path fill="#fff" d="M3.96 12.54a4.5 4.5 0 0 1 3.92-5 4.63 4.63 0 1 0 0 8.92 4.5 4.5 0 0 1-3.92-3.93"/>
  <path fill="#fff" d="m8.1 8.71-.22-.66-.21.66h-.7l.56.4-.21.67.56-.41.56.4-.21-.65.56-.4zm-.22 1.38-.21.66h-.7l.56.4-.21.67.56-.4.56.4-.21-.66.56-.4h-.7zm0 2.05-.21.65h-.7l.56.41-.21.66.56-.4.56.4-.21-.66.56-.4h-.7zm.21 2.7-.21-.66-.21.66h-.7l.56.4-.21.66.56-.4.56.4-.21-.66.56-.4z"/>
</svg>
