<svg xmlns="http://www.w3.org/2000/svg" width="30" height="24" viewBox="0 0 30 24">
  <path fill="#fff" d="M0 0h30v24H0z"/>
  <path fill="#4e5b31" d="M9.1 15.89h-.06c.04.38.3.61.52.75q.22.14.48.2a2 2 0 0 0-.57-.81.6.6 0 0 0-.36-.14zm-.7-.4q.28.16.43.18h.04v-.02q.01-.03 0-.07l-.07-.22-.17-.34a5 5 0 0 0-.55-.54q-.14-.1-.24-.1h-.05v.3q0 .3.15.46.16.16.46.34m2.2 1.34q-.2-.68-.48-.98a.6.6 0 0 0-.4-.22h-.03l-.12.03q.23.55.66.93.17.14.38.24m-1.7-.59a.5.5 0 0 0-.13-.27c-.12-.13-.37-.28-.9-.3q.02.13.08.25c.05.12.14.26.31.3l.45.03zm.35.66h-.02q-.21 0-.42.05V17q0 .06.04.1c.05.08.16.18.43.24a2 2 0 0 0 .95 0q-.25-.31-.64-.4zm3.07.73c-.23-.7-.69-.82-.94-.82h-.04l-.16.02q.06.19.2.34c.16.17.44.38.94.46m1.97.87c-.45-.86-.92-.95-1.1-.95l-.1.02q-.02.2.1.39c.12.2.41.44 1.1.54M10.5 17l-.16.03.04.1q.06.12.17.21c.16.14.48.32 1.1.34-.5-.59-.93-.68-1.14-.68m2.67 1.51a.7.7 0 0 0-.44.13l-.11.12q.37.21.79.22.4 0 .73-.2-.56-.27-.96-.27m-2.04-.66h-.05a3 3 0 0 0-.62.09c.27.26.7.36 1 .36h.02q.26 0 .36-.08a.1.1 0 0 0 .04-.09.2.2 0 0 0-.09-.1 1 1 0 0 0-.66-.18m1.09.35q.22.15.66.15l.46-.03a1.4 1.4 0 0 0-.94-.43h-.04a1 1 0 0 0-.31.07l.02.08a.4.4 0 0 0 .15.16m6.4-1.04a1 1 0 0 0 .2-.34l-.15-.02h-.05c-.25 0-.7.12-.94.82.5-.08.78-.3.93-.46m-.26.52c.62-.02.94-.2 1.1-.34l.17-.22.04-.1-.16-.02h-.01c-.21 0-.64.1-1.14.68m2.08-1.05c.22-.14.48-.37.52-.75h-.07a.6.6 0 0 0-.36.14q-.3.24-.57.82.26-.08.48-.21m.72-.97q.16-.02.44-.19.31-.18.46-.35.14-.15.16-.46v-.28l-.06-.01q-.1 0-.24.1l-.26.22q-.16.14-.28.32a4 4 0 0 0-.26.56v.07l.02.02zm-2.23 2.2h-.06q-.44 0-.66.16a.2.2 0 0 0-.09.11.1.1 0 0 0 .04.09q.1.07.36.08h.02c.31 0 .74-.1 1-.36a3 3 0 0 0-.61-.09m-1.33.03c-.23 0-.57.08-.94.43q.22.03.46.03.44 0 .66-.15a.4.4 0 0 0 .15-.16l.02-.08a1 1 0 0 0-.3-.07zm-2.27.98.23-.11-.12-.13-.42.17h-.04l-.42-.17-.12.13.23.1.03.02-.55.4.16.15.12.1.05.09.02-.01.06-.07.19-.23.24-.31.5.6.02.02.02-.04.03-.04.12-.11.16-.15-.55-.4zm1.5-.36q-.41 0-.97.27.34.2.73.2.43 0 .79-.22l-.11-.12a.7.7 0 0 0-.44-.13m-.02-.56a.6.6 0 0 0 .1-.4h-.1c-.18 0-.65.09-1.1.94.69-.1.98-.35 1.1-.54m4.42-2a.5.5 0 0 0-.12.28 2 2 0 0 0 .63-.03c.17-.03.26-.17.31-.29q.06-.12.07-.25c-.52.02-.77.17-.89.3m-.46.94h-.02q-.18 0-.34.03-.4.09-.64.4a2 2 0 0 0 .95 0c.27-.06.38-.16.43-.23l.04-.1v-.05a2 2 0 0 0-.42-.05m-.46-1.27h-.03c-.1 0-.24.04-.4.22q-.27.3-.49.97.2-.09.38-.24.44-.38.66-.92z"/>
  <path fill="#d57800" d="M24.21 4.4c-.43.25-.9.69-1.46.67-.6.26-1.43 1.11-2.33 1.24-1.56.27-2.74.88-4.36.86-1.37-.25-2.81-.06-4.02-.66.29.81.28 2.85-1.05 2.48-.65-.5-1.5-.4-2.07-.15-1.22 2.92-3.06-.88-2.03 1.64.14.5-.07 1.18.54 1.41.36.18.06.89.46.95.58.5 1.46.65 2.24 1 1.25-.15 1.77-.56 2.16.74 1.63.16-.66-.65 1.53-1.33 1.55.27 2.64-.8 4-1.06.39-.41.08-1.18.65-1.47a1.8 1.8 0 0 1 1.5.3c.44-.32.94-.56 1.46-.31.48.22.4.2.3-.2-.5-.77-1.41-1.28-1.47-2.06.1-1.07.63-1 1.4-1.2.43-1.27 2.32-1.36 2.97-2.4.4-.56 1.33-.44 1.4-1.17z"/>
  <path fill="#fff" d="M26 1H4a3 3 0 0 0-3 3v1a3 3 0 0 1 3-3h22a3 3 0 0 1 3 3V4a3 3 0 0 0-3-3" opacity=".2"/>
</svg>
