<svg xmlns="http://www.w3.org/2000/svg" width="30" height="24" viewBox="0 0 30 24"><path fill="#da352e" d="M30 24H0v-6h30z"/><path fill="#1f4c9e" d="M0 12h30v6H0z"/><path fill="#fadf4b" d="M30 12H0V0h30z"/><path fill="#fadf4b" d="M11.03 7.93c-.01 0-.04.01-.05.75v1.69l1.05 1.07.4.4.18-.45.03-.28.38-1.15z"/><path fill="#000" d="m12.43 11.93-1.52-1.54v-.02l.01-1.7c.01-.76.04-.77.08-.79l.03-.01.04.02 1.98 2.03.02.02v.03l-.39 1.16-.03.27zm-.36-.5.33.32.15-.38.03-.26.38-1.14-1.91-1.95-.03.66v1.67z"/><path fill="#b4bbc0" d="m10.87 16.43-.12-.15-.71.68v.07l-.2.06s-.1.3-.2.39c.14-.08.34-.16.4-.16v-.01c0-.08.02-.18.06-.2h.06zm.36 1.78v.07c-.01 0-.1.05-.19.06 0 0-.1.3-.21.39.14-.08.35-.16.4-.16v-.01q0-.14.07-.2h.06l1.3-1.27-.12-.14zm-.22-10.78-.02-.02h-.01a.5.5 0 0 1-.08.38l-.07-.26s-.35-.13-.46-.27v.01c.1.16.19.43.2.5.09.01.2.03.24.1a.4.4 0 0 1-.43.05v.02l.05.03a1 1 0 0 0 .28.08l.14-.02a.3.3 0 0 0 .2-.19.5.5 0 0 0-.04-.41m-.83 2.08-.02-.06-.04-.01h-.02l.02-.04c.05-.07.15-.2.14-.25v-.02l-.01-.01c-.06-.04-.2.08-.27.14l-.02-.01-.04.02a1 1 0 0 1-.1-.36s-.55-.17-.72-.38c.16.24.32.65.33.76h.01c.13 0 .3.02.37.1l-.02.03v.05a.3.3 0 0 1-.16.09c-.1.02-.19-.1-.19-.1l-.03.13c0 .22.17.4.38.4q.08 0 .15-.04s-.1-.07-.11-.18q.01-.13.08-.18l.03.01h.02l.01.06q.03.02.06.01 0 .06.06.1a.2.2 0 0 0 .13.07.1.1 0 0 0 .09-.04q.07-.1-.03-.22z"/><path fill="#fadf4b" d="M16.85 17.11c-.01-.2-.68-1.09-.7-1.13 0 0-.4-.05-.62-.06l-.12.01-.02-.17-.03-.17v-.01l-.35.26-.35-.26-.02.17v.01l-.03.17h-.12q-.3 0-.61.05c-.03.04-.7.94-.71 1.13q-.03.17.05.26.05.06.2.05l.2-.01s.19-.04.36-.05c-.04.2-.1.49-.11.6l-.01.03.02.06q.03.03.12.03h.03q.26-.02.39-.07l-.02.44v.06c.02.09.12.12.2.12h.03c.13-.02.36-.17.38-.18.02.01.25.16.38.18h.03c.08 0 .18-.03.2-.12v-.06L15.6 18q.13.05.39.07h.03q.09 0 .12-.03l.02-.06-.12-.63c.17.01.36.05.36.05l.19.02q.15 0 .21-.06.08-.1.05-.26"/><path fill="#000" d="M15.42 18.68h-.03c-.12-.02-.31-.13-.38-.17-.07.04-.26.15-.38.17-.11.01-.25-.04-.28-.16v-.09l.02-.35-.34.05q-.14 0-.18-.05a.1.1 0 0 1-.04-.09v-.05c.03-.1.07-.34.1-.53l-.29.05q-.33.06-.44-.06-.09-.1-.06-.29c.02-.21.69-1.12.71-1.15l.02-.02h.02c.04-.01.41-.06.62-.06h.08l.02-.12.02-.18.02-.09.38.3.39-.3v.08l.03.18.02.13h.09c.2 0 .57.05.6.05h.03l.01.02c.04.04.7.95.72 1.16.01.12.02.22-.06.3q-.1.1-.44.05l-.3-.05.1.53.01.05a.1.1 0 0 1-.04.1q-.04.04-.18.04l-.34-.05.02.35v.1c-.02.1-.14.15-.24.15m-.41-.3.03.03c.06.04.26.16.36.17.04 0 .15-.01.17-.08v-.05l-.03-.44v-.06l.07.01q.14.05.38.07h.03l.08-.02v-.06l-.11-.59-.02-.06h.07l.38.06q.27.04.35-.03.05-.05.03-.21a6 6 0 0 0-.68-1.1l-.7-.04-.05.02-.01-.06-.04-.27-.3.23-.32-.23-.01.09-.03.18V16l-.06-.02h-.1q-.3 0-.6.05c-.22.3-.67.95-.68 1.09q-.02.15.03.2.08.09.36.04l.37-.06h.07l-.02.06-.11.59V18l.08.02h.03q.25-.02.38-.06l.06-.02V18c0 .13 0 .31-.02.44v.05c.02.07.12.09.17.08.1-.01.3-.13.36-.17z"/><path fill="#3f2921" d="M20.35 6.23c-1.06-.51-3.59-1.95-4.33-.68-.45.51-1.27.06-1.8.4-.7-1.3-2.17-1.06-3.58-.34-1.09.67-1.61.69-.45.64-.13.18.32.04.54 0-.16.22.22.14.53.04-.27.26.29.17.47.07-.26.24.1.13.33.06-.27.3.1.3.4.08-.26.3.04.27.27.16-.23.28.03.32.27.19-.19.24 0 .31.22.22-.12.26.12.25.26.1-.02.38.15.2.3 0-.06.27.08.44.26.16 0 .14-.05.26.08.24-.2.29-.96 1.76-.53 1.35.13-.01.25-.15.43-.3-.02.1.04.05.09.01-.1.51.32-.4.25.01-.02.05-.02.14.05.18-.02-.11.16-.2.2-.34.02.19.1-.17.27.03 0 0 .05 0 .03-.02q.05.02.05.08c.05-.04.03-.13.01-.16-.37-.56.93-.93.04.1.5-.43.25.55.45.17.06.04 0-.2-.02-.25.17.06.24.11.3.23.17-.29-.42-.32-.29-.67V8h.01c.09.17.23-.3.2-.3l.03.05c.02-.05.1-.17.1-.27h.01v-.13c.14.23.3.16.26-.1.17.2.34.24.3-.06.15.19.37.18.26-.08.22.1.41.04.23-.21.24.14.5.11.26-.18.25.13.54.16.29-.15.28.22.66.25.41-.04.18.05.53.17.37-.01.16.07.7.12.42-.11.27.1.67.19.46-.03.34.1.7.16.3-.11.3.16.84.23.35-.02.34.14.48.05.11-.12.27.08.65.22.52.1"/><path fill="#fadf4b" d="M18.99 7.93H19c.01 0 .04.01.05.75v1.69L18 11.44l-.4.4-.18-.45-.03-.28L17 9.97z"/><path fill="#000" d="m17.59 11.93-.22-.54-.03-.27-.39-1.17.02-.02 1.98-2.03q.03-.03.07-.02c.04.02.06.03.08.8v1.73zm-.12-.56.15.38 1.39-1.4-.04-2.33-1.9 1.96.36 1.12z"/><path fill="#b4bbc0" d="m19.15 16.43.12-.15.71.68v.07l.2.06s.1.3.2.39a1 1 0 0 0-.4-.16v-.01c0-.08-.02-.18-.06-.2h-.06zm-.36 1.78v.07c.01 0 .1.05.19.06 0 0 .1.3.2.39a1 1 0 0 0-.39-.16v-.01q0-.14-.07-.2h-.06l-1.3-1.27.12-.14zm.23-10.78.01-.02h.01a.5.5 0 0 0 .08.38l.07-.26s.35-.13.46-.27v.01q-.12.24-.2.5c-.09.01-.2.03-.24.1q.18.15.43.05v.02l-.05.03a1 1 0 0 1-.28.08l-.14-.02a.3.3 0 0 1-.2-.19.5.5 0 0 1 .05-.41m.82 2.08.02-.06.04-.01h.02l-.02-.04c-.05-.07-.15-.2-.14-.25v-.02l.01-.01c.06-.04.2.08.27.14l.02-.01.04.02q.05-.1.1-.36s.55-.17.72-.38c-.16.24-.32.65-.33.76h-.01c-.13 0-.3.02-.37.1l.02.03v.05c.01.02.08.08.16.09.1.02.19-.1.19-.1l.03.13a.4.4 0 0 1-.38.4l-.15-.04s.1-.07.11-.18q-.02-.13-.08-.18l-.03.01h-.02l-.01.06q-.03.02-.06.01l-.06.1a.2.2 0 0 1-.13.07.1.1 0 0 1-.09-.04q-.07-.1.03-.22z"/><path fill="#fadf4b" d="M15.16 15.76q-.14 0-.27-.02h-.04a2.5 2.5 0 0 1-1.66-1.04 4.4 4.4 0 0 1-.8-2.9L10.3 9.68c-.05.02-.05 1.38-.03 3.43v1.68c0 .26.06.68.2 1.1q.12.35.3.62.23.32.5.5.37.22.82.22.6 0 1.34-.37.36-.14.72-.32c.35-.18.8-.46 1.01-.77"/><path fill="#000" d="M12.1 17.28a1.6 1.6 0 0 1-1.36-.74 3 3 0 0 1-.31-.64 4 4 0 0 1-.2-1.1l-.01-1.56v-.13c-.03-3.29 0-3.45.06-3.48h.04l.03.02 1.86 1.89.23.24v.02l.02.68c.08.87.34 1.63.77 2.2q.64.86 1.63 1.01h.02l.28.02h.1l-.05.09c-.22.32-.68.6-1.04.78-.39.2-.73.33-.73.33q-.74.36-1.35.37m-1.77-7.5c-.04.35-.02 2-.01 3.33v1.68c0 .26.06.67.2 1.08q.12.35.3.62.21.3.48.48.8.48 2.1-.15.38-.14.72-.32c.32-.17.74-.41.95-.69l-.17-.01-.18-.03a2.6 2.6 0 0 1-1.57-1.03 4.4 4.4 0 0 1-.8-2.92l-.22-.21z"/><path fill="#fadf4b" d="M14.86 15.76q.14 0 .27-.02h.04q1-.15 1.66-1.04a4.4 4.4 0 0 0 .8-2.9l2.09-2.12c.05.02.05 1.38.03 3.43v1.68c0 .26-.06.68-.2 1.1a3 3 0 0 1-.3.62q-.2.3-.5.5-.37.22-.82.22-.6 0-1.34-.37-.36-.14-.72-.32a3 3 0 0 1-1.01-.77"/><path fill="#000" d="M17.93 17.28q-.6 0-1.36-.38s-.34-.12-.72-.32a3 3 0 0 1-1.03-.78l-.06-.09h.1q.14 0 .27-.02h.03q.97-.16 1.63-1.02c.43-.56.7-1.32.77-2.19l.02-.68v-.02l.01-.02.23-.23 1.85-1.88.02-.03h.04c.08.04.1.2.07 3.5v1.67c0 .26-.06.69-.2 1.11a3 3 0 0 1-.32.64q-.21.32-.51.5-.39.24-.84.23m-2.98-1.47c.21.27.63.52.95.69a7 7 0 0 0 .7.31q1.32.64 2.11.15.28-.16.5-.48.17-.26.29-.61c.14-.41.2-.83.2-1.08V13.1c.01-1.4.03-2.99-.01-3.34l-1.8 1.84-.21.21-.02.67a4.4 4.4 0 0 1-.79 2.24q-.63.84-1.57 1.04l-.18.03z"/><path fill="#b4bbc0" d="M15 8.49c-.7 0-1.36.38-1.85 1.06-.5.68-.77 1.6-.77 2.57s.27 1.88.77 2.56c.49.68 1.15 1.07 1.85 1.07s1.36-.39 1.85-1.07c.5-.68.77-1.6.77-2.56 0-.97-.27-1.89-.77-2.57-.49-.68-1.15-1.06-1.85-1.06"/><path fill="#000" d="M15 15.8c-1.47 0-2.67-1.65-2.67-3.68s1.2-3.68 2.67-3.68 2.67 1.65 2.67 3.68-1.2 3.68-2.67 3.68m0-7.26c-1.42 0-2.57 1.6-2.57 3.58 0 1.97 1.15 3.58 2.57 3.58s2.57-1.6 2.57-3.58S16.42 8.54 15 8.54"/><path fill="#7bc1dd" d="M15 8.94c-1.18 0-2.17 1.45-2.17 3.18 0 1.72 1 3.18 2.17 3.18 1.18 0 2.17-1.46 2.17-3.18s-1-3.18-2.17-3.18"/><path fill="#000" d="M15 15.35c-1.2 0-2.22-1.48-2.22-3.23S13.8 8.89 15 8.89s2.22 1.48 2.22 3.23-1.02 3.23-2.22 3.23m0-6.36c-1.15 0-2.12 1.43-2.12 3.13s.97 3.13 2.12 3.13 2.12-1.44 2.12-3.13c0-1.7-.97-3.13-2.12-3.13"/></svg>