<svg xmlns="http://www.w3.org/2000/svg" width="30" height="24" viewBox="0 0 30 24">
  <path fill="#1c44a6" d="M0 24V0h30v24z"/>
  <path fill="#fff" d="M0 8h30v8H0z"/>
  <path fill="#1c44a6" d="M14.43 11.3 13.27 10s-.19 2.4.17 2.97z"/>
  <path fill="#1c44a6" d="m14.13 12.23-1.53-1s-.13 1.8.54 2.07zm1.44-.93 1.16-1.3s.19 2.4-.17 2.97z"/>
  <path fill="#1c44a6" d="m15.87 12.23 1.53-1s.13 1.8-.54 2.07z"/>
  <path fill="#f7cf46" d="M15 15.54a3.54 3.54 0 1 1 0-7.09 3.54 3.54 0 0 1 0 7.1m0-6.56a3.02 3.02 0 1 0 0 6.05 3.02 3.02 0 0 0 0-6.05"/>
  <path fill="#fff" d="m15 9.8-2.09 3.62h4.18z"/>
  <path fill="#f7cf46" d="M17.54 13.68h-5.08L15 9.28zm-4.18-.52h3.28L15 10.33z"/>
</svg>
