<svg xmlns="http://www.w3.org/2000/svg" width="30" height="24" viewBox="0 0 30 24"><path fill="#3e5eb9" d="M30 24H0V0h30z"/><path fill="#ffd900" d="M0 4h30v16H0z"/><path fill="#b10d0d" d="M0 5h30v14H0z"/><path fill="#fff" d="m22.93 10.78 1.3.6 1.27-.6-1.27-.5z"/><path fill="#ffd900" d="M23.78 10.8q0 .11-.07.2a.2.2 0 0 1-.17.08H4.82a.2.2 0 0 1-.17-.08.3.3 0 0 1-.07-.2q0-.12.07-.2t.17-.08h18.72c.13 0 .24.13.24.28"/><path fill="#fff" d="m23.76 9.78 1.3.6 1.28-.6-1.28-.5z"/><path fill="#ffd900" d="M24.6 9.8q0 .12-.06.2a.2.2 0 0 1-.17.08H5.65A.2.2 0 0 1 5.5 10a.3.3 0 0 1-.07-.2q0-.12.07-.2.06-.08.16-.08h18.72l.1.02.07.06.05.1zm3.5 2.2-.02.15-.08.14-.11.1-.14.02H2.62a.3.3 0 0 1-.25-.12.5.5 0 0 1-.1-.3q0-.17.1-.3a.3.3 0 0 1 .25-.12h25.13c.2 0 .36.19.36.42"/><path fill="#fff" d="M15.3 17.52c4.1-.14 7.4-5.49 7.4-5.49s-3.39-5.49-7.56-5.49h-.02c-.57.66-.78 1.22-.7 1.52q.12.34.28.58l.13.26q0 .05.03.08c.04.14.06.21.28.25.18.03.2.14.22.24l.04.12.01.02c.07.1.13.22.25.24q.17.04.09.67c-.06.42-.07.98.2 1.15l.18.09c.21.1.36.17.09.38-.35.28-.56.71-.56.92s0 .5-.27.75l-.1.09c-.23.2-.41.37-.15.56q.24.15.53.28c.17.08.33.16.39.22.12.12.14.37-.3.44h-.03c-.42.06-.87.12-.89.3-.01.15.33.32.66.49l.32.16.13.07c.28.15.64.35.75.85q-.68.22-1.4.25"/><path fill="#000" d="M15.82 16.35c-.37-.2-1-.45-.98-.64s.49-.25.92-.31c.44-.07.42-.32.3-.44-.12-.13-.63-.3-.92-.5s-.02-.4.25-.65c.26-.25.27-.54.27-.75s.2-.64.55-.92c.35-.27.02-.3-.26-.47-.27-.17-.26-.73-.2-1.15q.08-.64-.09-.67c-.12-.02-.2-.14-.26-.26-.07-.11 0-.32-.26-.36s-.24-.15-.31-.34c-.07-.18-.3-.47-.4-.83-.09-.3.12-.86.69-1.52-4.16.02-7.53 5.5-7.53 5.5s3.38 5.48 7.55 5.48q.81-.01 1.56-.25c-.12-.59-.59-.75-.88-.92"/><path fill="#fff" d="M10.4 10.04h.36v1.48h-.36zm0 2.46h.36v1.48h-.36zm.71-2.46h.37v1.48h-.37zm0 2.46h.37v1.48h-.37zm.71-2.46h.37v1.48h-.37zm0 2.46h.37v1.48h-.37zm.71-2.46h.37v1.48h-.37zm0 2.46h.37v1.48h-.37zm.72-2.46h.36v1.48h-.36zm0 2.46h.36v1.48h-.36zm.7-2.46h.37v1.48h-.36zm0 2.46h.37v1.48h-.36z"/><path fill="#000" d="M16.02 10.04h.37v1.48h-.37zm0 2.46h.37v1.48h-.37zm.72-2.46h.36v1.48h-.36zm0 2.46h.36v1.48h-.36zm.7-2.46h.37v1.48h-.36zm0 2.46h.37v1.48h-.36zm.72-2.46h.36v1.48h-.36zm0 2.46h.36v1.48h-.36zm.71-2.46h.37v1.48h-.37zm0 2.46h.37v1.48h-.37zm.71-2.46h.37v1.48h-.37zm0 2.46h.37v1.48h-.37z"/><path fill="#3d5da7" d="M12.63 7.6c-.33.26-1.02 1.07-1.06 1.67.15-.16.32-.2.32-.2s-.2.34-.17.74a1 1 0 0 1 .23-.22s.07.38.33.77c.13-.1.17-.25.17-.25s.08.33.35.58c.1-.03.1-.17.1-.17s.16.4.82.57c-.11-.26.26-.63.12-1.05.12.08.24.29.24.29s.11-.2-.12-.58c.14.15.22.3.22.3s.09-.66-.22-1.07l.36.2s-.03-.78-.52-1.14c-.62-.45-1.17-.12-1.17-.45m-9.17 4.3s.3.33-.11.38c-.42.05-.76.64-.75 1.24l.23-.13s-.07.4.03.67c.1-.26.23-.25.23-.25s.02.4.07.69c.1-.16.1-.33.1-.33s.15.06.23.33.12.47.3.6c.08-.05.12-.18.12-.18s.15.16.4.28c-.05-.42.29-.37.43-.67.05.08.06.24.06.24s.1-.24.1-.47c0-.24.13-.43.13-.43v.29c.11-.08.14-.97.09-1.26.08.08.14.25.14.25s.1-.45 0-.74-.35-.52-.68-.38c-.32.14-.8-.23-.8-.23s.07.23-.03.3c-.1.09-.01-.12-.29-.2m22.83-.15s-.26.1-.68.58c-.41.47-.54 1.26-.54 1.26s.23-.23.32-.26c-.22.6.21.89.14 1.37.17-.03.33-.39.33-.39s.31.67.76 1.05c.1-.36.4-.66.4-.66l.06.2.19-.54.13.27s.11-.31 0-.65c.01.06.2.22.2.22v-.75s.1.24.17.3c0-.33-.15-.56-.09-.7l.1.19s.07-.52-.38-.93c-.46-.4-.88-.37-.98-.32-.1.06-.13-.24-.13-.24"/><path fill="#a70000" d="M12.38 8.58c.24-.09.16.84-.13 1.22.16-.64-.17-1.11.13-1.22m.57-.27c.06-.24.47.4 1 .42-.46.1-1.07-.12-1-.42m-.16.97c.14-.08.18.86 0 1.13.02-.47-.2-1.02 0-1.13m.52-.23c-.18.06.35.57.65.54-.28-.06-.37-.64-.65-.54m-.1 1c-.2 0 0 .6.33.73-.12-.22-.03-.74-.34-.74M3.52 12.6c.17 0-.05.7-.42.98.2-.34.17-.98.42-.98m.56-.11c-.14.13.25.7.69.74-.29-.24-.52-.9-.7-.74m-.42.9c.1-.02.13.66-.17.83.16-.43.02-.8.17-.82m.5 0c.17-.12.26.4.5.58-.41-.12-.67-.45-.5-.57m-.22.5c.18-.09.27.66 0 .88.1-.48-.15-.8 0-.87m22.01-.66c.18 0-.14.63-.41.8.26-.46.22-.8.41-.8m.65-.33c-.13.1.25.42.44.42-.23-.09-.27-.56-.44-.42M26.13 14c.13-.13.2.29 0 .58.12-.3-.19-.41 0-.58m.56-.43c-.15.07.13.56.33.6-.22-.18-.13-.7-.33-.6m-.2.5c.12-.11.36.6.08.95.13-.52-.3-.75-.08-.95"/></svg>