<svg xmlns="http://www.w3.org/2000/svg" width="30" height="24" viewBox="0 0 30 24">
  <path fill="#be2a2c" d="M0 0h30v24H0z"/>
  <path fill="#f6d44a" d="M5 5h20v14H5z"/>
  <path fill="#357960" d="m5 5 10 7-10 7zm20 0-10 7 10 7z"/>
  <path fill="#be2a2c" d="M15 9a3 3 0 1 0 0 6 3 3 0 0 0 0-6"/>
  <path fill="#f6d44a" d="m16 12.34 1.62-1.18h-2L15 9.26l-.62 1.9h-2L14 12.34l-.62 1.9L15 13.06l1.62 1.18zm-.46-9.15.88-.64h-1.08L15 1.5l-.34 1.04h-1.08l.88.64-.34 1.03.88-.64.88.64zm-4.84 0 .88-.64h-1.09l-.33-1.04-.34 1.04H8.73l.88.64-.33 1.03.88-.64.88.64zm8.6 0-.88-.64h1.09l.33-1.04.34 1.04h1.09l-.88.64.33 1.03-.88-.64-.87.64zm-3.76 18.05.88-.64h-1.08L15 19.56l-.34 1.04h-1.08l.88.63-.34 1.04.88-.64.88.64zm-4.84 0 .88-.64h-1.09l-.33-1.04-.34 1.04H8.73l.88.63-.33 1.04.88-.64.88.64zm8.6 0-.88-.64h1.09l.33-1.04.34 1.04h1.09l-.88.63.33 1.04-.88-.64-.87.64z"/>
  <path fill="#be2a2c" d="M7.07 12.13a4 4 0 0 0 1.61 1.7 6 6 0 0 0-.5-2.26z"/>
  <path fill="#f6d44a" d="M6.45 9.85c.51 1.1-1.4 3.65 1.71 4.3a3.2 3.2 0 0 1-.48-2.1c.65.27 1.3.9 1.55 1.5 1.07-2.98-2.1-2.7-2.78-3.7"/>
</svg>
