<svg xmlns="http://www.w3.org/2000/svg" width="30" height="24" viewBox="0 0 30 24">
  <path fill="#fff" d="M0 7h30v10H0z"/>
  <path fill="#e06535" d="M30 8H0V0h30z"/>
  <path fill="#2c6837" d="M30 24H0v-8h30z"/>
  <path fill="#2c2c6b" d="M15 8.3a3.7 3.7 0 1 0 0 7.4 3.7 3.7 0 0 0 0-7.4m3.04 4.1a.14.14 0 0 0 .12.16q-.05.27-.14.54a.14.14 0 0 0-.19.18q.02.05.08.08l-.13.25-1.61-1.07-.6-.25.04-.08.6.24 1.89.38-1.84-.62-.63-.08.01-.09.64.08L18.2 12l-1.93-.12-.64.08-.01-.09.63-.08 1.84-.62-1.9.38-.6.25-.03-.09.6-.24 1.6-1.07.14.24a.14.14 0 0 0 0 .26q.05.03.1 0 .1.27.15.54a.14.14 0 1 0 .04.28 3 3 0 0 1 0 .56.14.14 0 0 0-.16.12m-.58-2.46a.14.14 0 0 0 .17.22l.15.24-1.73.86-.52.39-.05-.07.5-.4 1.29-1.45-1.45 1.28-.4.51-.06-.05.38-.52.87-1.73.23.15a.14.14 0 0 0 .22.17q.22.2.4.4M15.28 8.8a.14.14 0 1 0 .28.03q.27.05.54.15a.14.14 0 0 0 .18.18.1.1 0 0 0 .08-.08l.25.13-1.07 1.62-.25.59-.08-.04.24-.6.38-1.89-.62 1.84-.08.63h-.09l.08-.65L15 8.8l-.12 1.93.08.64-.09.01-.08-.63-.62-1.84.38 1.9.25.6-.09.03-.24-.6-1.07-1.6.24-.14a.14.14 0 0 0 .19.08.14.14 0 0 0 .07-.18 3 3 0 0 1 .54-.15.14.14 0 1 0 .28-.03 3 3 0 0 1 .56 0m-3.11 4.36a.14.14 0 0 0-.18-.07 3 3 0 0 1-.15-.54.14.14 0 0 0-.03-.28 3 3 0 0 1 0-.56.14.14 0 1 0 .03-.28q.05-.27.15-.54a.14.14 0 0 0 .1-.26l.13-.24 1.62 1.06.59.25-.04.08-.6-.24-1.89-.38 1.84.62.63.08v.09l-.65-.08-1.93.12 1.93.12.64-.08.01.09-.63.08-1.84.62 1.9-.38.6-.24.03.08-.6.25-1.6 1.06-.14-.24a.14.14 0 0 0 .08-.19m.77-3.63a.14.14 0 0 0 .22-.17l.24-.15.86 1.73.39.52-.07.05-.4-.5-1.45-1.29 1.28 1.45.51.4-.05.06-.52-.38-1.73-.86.15-.24a.14.14 0 1 0 .18-.22q.18-.21.4-.4zm-.4 4.52a.14.14 0 0 0-.17-.22l-.15-.24 1.73-.86.52-.38.05.06-.5.4-1.29 1.45L14.18 13l.4-.51.06.05-.38.52-.86 1.73-.24-.15a.14.14 0 1 0-.22-.17 3 3 0 0 1-.4-.4m2.18 1.13a.14.14 0 0 0-.07-.13.14.14 0 0 0-.19.05l-.02.05a3 3 0 0 1-.54-.14.14.14 0 0 0-.03-.16.14.14 0 0 0-.15-.03.1.1 0 0 0-.08.08l-.24-.13 1.06-1.61.25-.6.08.04-.24.6-.38 1.89.62-1.83.08-.64.09.01-.08.64.12 1.93.12-1.93-.08-.64.09-.01.08.63.62 1.84-.38-1.9-.24-.6.08-.03.25.6 1.06 1.6-.24.14a.14.14 0 0 0-.26.1 3 3 0 0 1-.54.15.14.14 0 0 0-.28.04 3 3 0 0 1-.56 0m2.34-.73a.14.14 0 0 0-.22.17l-.24.15-.86-1.73-.38-.52.06-.05.4.5 1.45 1.29-1.28-1.45-.51-.4.05-.06.52.38 1.73.87-.15.23a.14.14 0 0 0-.17.22 3 3 0 0 1-.4.4"/>
</svg>
