<svg xmlns="http://www.w3.org/2000/svg" width="30" height="24" viewBox="0 0 30 24">
  <path fill="#ea3323" d="M0 0h30v24H0z"/>
  <path fill="#ff5" d="m15 19-.24-2.39a.3.3 0 0 1 .08-.21q.07-.06.16-.05a.2.2 0 0 1 .2.1q.05.08.04.17zm7-7-2.39-.24a.3.3 0 0 0-.21.08.2.2 0 0 0-.05.16.2.2 0 0 0 .1.2q.08.05.17.04zm-.09 1.1-2.32-.61a.3.3 0 0 0-.22.04.2.2 0 0 0-.08.15.2.2 0 0 0 .08.21q.06.06.16.07zm-.25 1.06-2.2-.96a.3.3 0 0 0-.23.01.2.2 0 0 0-.1.13.2.2 0 0 0 .05.23q.06.07.14.09zm-.42 1.02-2.02-1.3a.3.3 0 0 0-.23-.02.2.2 0 0 0-.12.11.2.2 0 0 0 0 .23q.05.09.14.11zm-.58.93-1.79-1.59a.3.3 0 0 0-.22-.06.25.25 0 0 0-.05.45zm-.71.84-1.52-1.86a.3.3 0 0 0-.2-.09.2.2 0 0 0-.16.07.2.2 0 0 0-.06.22q.02.09.09.15zm-.84.71-1.2-2.07a.3.3 0 0 0-.2-.12.2.2 0 0 0-.15.05.2.2 0 0 0-.1.2q0 .1.06.16zm-.93.58L17.3 16a.2.2 0 0 0-.17-.15.2.2 0 0 0-.17.02.2.2 0 0 0-.12.2q-.02.07.04.16zm-1.02.42-.5-2.35a.2.2 0 0 0-.15-.17.2.2 0 0 0-.17 0 .2.2 0 0 0-.15.16.3.3 0 0 0 .01.17zm-1.07.25-.13-2.4a.2.2 0 0 0-.12-.19.2.2 0 0 0-.16-.03.2.2 0 0 0-.18.14.3.3 0 0 0-.01.17zM8 12l2.39-.24q.13 0 .21.08.06.07.05.16a.2.2 0 0 1-.1.2.3.3 0 0 1-.17.04zm.09-1.1 2.39.14a.2.2 0 0 1 .2.12q.04.06.03.16a.2.2 0 0 1-.14.18.3.3 0 0 1-.17.01zm.25-1.06 2.35.5a.2.2 0 0 1 .17.15q.04.06 0 .17a.2.2 0 0 1-.16.15.3.3 0 0 1-.17-.01zm.42-1.02L11 9.7a.2.2 0 0 1 .15.17q.01.1-.02.17a.2.2 0 0 1-.2.12q-.07.01-.16-.04zm.58-.94L11.4 9.1q.11.06.12.2 0 .07-.05.15a.2.2 0 0 1-.2.1.3.3 0 0 1-.16-.07zm.71-.83 1.86 1.52q.1.08.09.2 0 .1-.07.15a.2.2 0 0 1-.22.07.3.3 0 0 1-.15-.1zm.83-.71 1.6 1.79q.08.1.06.22a.25.25 0 0 1-.45.05zm.94-.58 1.3 2.02a.3.3 0 0 1 .02.23.2.2 0 0 1-.11.12.2.2 0 0 1-.23-.01.3.3 0 0 1-.11-.13zm1.02-.42.96 2.2a.3.3 0 0 1-.01.22.2.2 0 0 1-.13.1.2.2 0 0 1-.23-.04.3.3 0 0 1-.09-.14zm1.06-.26.61 2.32a.3.3 0 0 1-.04.23.2.2 0 0 1-.15.07.2.2 0 0 1-.21-.07.3.3 0 0 1-.07-.16zM15 5l.24 2.38a.3.3 0 0 1-.08.22.2.2 0 0 1-.16.05.2.2 0 0 1-.2-.11.3.3 0 0 1-.04-.16zm-1.1 13.9.61-2.32a.3.3 0 0 0-.04-.22.2.2 0 0 0-.15-.08.2.2 0 0 0-.21.08.3.3 0 0 0-.07.16zm-1.06-.25.96-2.2a.3.3 0 0 0-.01-.23.2.2 0 0 0-.13-.1.2.2 0 0 0-.23.05.3.3 0 0 0-.09.14zm-1.02-.43 1.3-2.01a.3.3 0 0 0 .02-.23.2.2 0 0 0-.11-.12.2.2 0 0 0-.23 0 .3.3 0 0 0-.11.13zm-.94-.57 1.6-1.79a.3.3 0 0 0 .06-.22.25.25 0 0 0-.45-.05zm-.83-.71 1.86-1.52a.3.3 0 0 0 .09-.2.2.2 0 0 0-.07-.16.2.2 0 0 0-.22-.06.3.3 0 0 0-.15.09zm-.71-.84 2.07-1.2a.3.3 0 0 0 .12-.2.2.2 0 0 0-.05-.16.2.2 0 0 0-.2-.1.3.3 0 0 0-.16.07zm-.58-.93L11 14.3a.2.2 0 0 0 .15-.17.2.2 0 0 0-.02-.17.2.2 0 0 0-.2-.13q-.07 0-.16.04zm-.42-1.02 2.35-.5a.2.2 0 0 0 .17-.15.2.2 0 0 0 0-.17.2.2 0 0 0-.16-.15.3.3 0 0 0-.17 0zM8.1 13.1l2.39-.13a.2.2 0 0 0 .2-.12q.04-.07.03-.16a.2.2 0 0 0-.14-.18.3.3 0 0 0-.17-.02zm8-8-.13 2.39a.2.2 0 0 1-.12.2.2.2 0 0 1-.16.02.2.2 0 0 1-.18-.14.3.3 0 0 1-.01-.16zm1.07.25-.5 2.34a.2.2 0 0 1-.15.18.2.2 0 0 1-.17 0 .2.2 0 0 1-.15-.16.3.3 0 0 1 .01-.17zm1.02.42L17.3 8a.2.2 0 0 1-.17.16.2.2 0 0 1-.17-.03.2.2 0 0 1-.12-.19q-.02-.08.04-.16zm.93.57-1.2 2.07a.3.3 0 0 1-.2.13.2.2 0 0 1-.15-.05.2.2 0 0 1-.1-.2q0-.1.06-.16zm.84.72L18.43 8.9a.3.3 0 0 1-.2.1.2.2 0 0 1-.16-.08.2.2 0 0 1-.06-.22q.02-.08.09-.14zm.71.83-1.79 1.6a.3.3 0 0 1-.22.06.25.25 0 0 1-.05-.45zm.58.94-2.02 1.3a.3.3 0 0 1-.23.02.2.2 0 0 1-.12-.12.2.2 0 0 1 0-.22.3.3 0 0 1 .14-.11zm.42 1.01-2.2.97a.3.3 0 0 1-.23-.01.2.2 0 0 1-.1-.14.2.2 0 0 1 .05-.22.3.3 0 0 1 .14-.09zm.25 1.07-2.32.61a.3.3 0 0 1-.22-.04.2.2 0 0 1-.08-.15.2.2 0 0 1 .08-.22q.06-.06.16-.06z"/>
  <path fill="#ff5" d="M15 7.77a4.23 4.23 0 1 0 0 8.46 4.23 4.23 0 0 0 0-8.46"/>
  <path fill="#ea3323" d="M15 15.62a3.62 3.62 0 1 1 0-7.24 3.62 3.62 0 0 1 0 7.24m0-6.95a3.33 3.33 0 1 0 0 6.66 3.33 3.33 0 0 0 0-6.66"/>
</svg>
