<svg xmlns="http://www.w3.org/2000/svg" width="30" height="24" viewBox="0 0 30 24">
  <path fill="#21428e" d="M0 0h30v24H0z"/>
  <path fill="#eee" d="M17 0v10h13v4H17v10h-4V14H0v-4h13V0z"/>
  <path fill="#fff" d="M9.89 7.3c-.31-.62-3.05-.88-4.05-.31.9-.88 3.58-.24 3.67-1.67.07-1.14-1.84-1.04-2.58-1.26s-.09-.44.48-.71S8.6 2.82 8.46 1.9 6.93 1.04 6.29 1c-.64-.03-1.45.24-1.26.68-.5.23-1.08.2-1.43 0 0 .16.22.21.22.21l-.37.1c.43.23 1.32.12 1.7-.1.07.1.31.16 1.24.1s1.04-.25 1.26-.02c.38.4-.41.54-1.41.95s-.57 1.4-.04 1.7c.54.31 1.07.29 1.97.45s.26.37-.26.4c-.2.02-1.7.08-2.52.57-.94.56-.75 1.28-.84 1.4-.09.1-.91.07-1.55-.14.22.7 1.3.7 1.67.71.38.02.72 1.03 3.01.99S10.2 7.92 9.9 7.3m-3.95.34c.22-.29 3.3-.42 3.14.06-.22.6-3.41.3-3.14-.06M9.89 21.3c-.31-.62-3.05-.88-4.05-.31.9-.88 3.58-.24 3.67-1.67.07-1.14-1.84-1.05-2.58-1.26s-.09-.44.48-.71c.57-.28 1.19-.53 1.05-1.45s-1.53-.86-2.17-.9-1.45.24-1.26.68c-.5.23-1.08.2-1.43 0 0 .16.22.21.22.21l-.37.1c.43.23 1.32.12 1.7-.1.07.1.31.16 1.24.1s1.04-.25 1.26-.02c.38.4-.41.54-1.41.95s-.57 1.4-.04 1.7c.54.31 1.07.29 1.97.45s.26.37-.26.4c-.2.02-1.7.08-2.52.57-.94.56-.75 1.28-.84 1.4-.09.1-.91.07-1.55-.14.22.7 1.3.7 1.67.71.38.02.72 1.03 3.01.99s2.52-1.09 2.21-1.7m-3.95.34c.22-.29 3.3-.42 3.14.06-.22.6-3.41.3-3.14-.06M26.89 7.3c-.31-.62-3.05-.88-4.05-.31.9-.87 3.58-.24 3.67-1.67.07-1.14-1.84-1.04-2.58-1.26s-.09-.44.48-.71 1.19-.53 1.05-1.45-1.53-.86-2.17-.9c-.64-.03-1.45.24-1.26.68-.5.23-1.08.2-1.43 0 0 .16.22.22.22.22l-.37.1c.43.22 1.32.1 1.7-.1.07.1.31.15 1.24.1.93-.07 1.04-.26 1.26-.03.38.4-.41.54-1.41.95s-.57 1.4-.04 1.7c.54.31 1.07.29 1.97.45s.25.37-.26.4c-.2.02-1.7.08-2.52.57-.94.56-.75 1.28-.84 1.4-.09.1-.91.07-1.55-.14.22.7 1.3.7 1.67.71.38.02.72 1.03 3.01.99s2.52-1.08 2.2-1.7m-3.96.34c.23-.29 3.31-.42 3.14.06-.21.6-3.4.3-3.14-.06M26.9 21.3c-.31-.62-3.05-.88-4.05-.31.9-.88 3.58-.24 3.67-1.67.07-1.14-1.84-1.05-2.58-1.26s-.09-.44.48-.71c.57-.28 1.19-.53 1.05-1.45s-1.53-.86-2.17-.9c-.64-.03-1.45.23-1.26.68-.5.23-1.08.2-1.43 0 0 .16.22.21.22.21l-.37.1c.43.23 1.32.12 1.7-.1.07.1.31.16 1.24.1s1.04-.25 1.26-.02c.38.39-.41.54-1.41.95s-.57 1.4-.04 1.7c.54.31 1.07.29 1.97.45s.25.37-.26.4c-.2.02-1.7.08-2.52.57-.94.56-.75 1.27-.84 1.39s-.91.08-1.55-.13c.22.7 1.3.7 1.67.71.38.02.72 1.03 3.01.99s2.52-1.09 2.2-1.7m-3.96.34c.23-.29 3.31-.42 3.14.06-.21.6-3.4.3-3.14-.06"/>
</svg>
