<svg xmlns="http://www.w3.org/2000/svg" width="30" height="24" viewBox="0 0 30 24">
  <path fill="#83b2da" d="M0 0h30v24H0z"/>
  <path fill="#fff" d="m15 3.63-.59 1.81h-1.9l1.54 1.12-.6 1.82L15 7.25l1.54 1.13-.59-1.82 1.55-1.12h-1.91zm6.53 8.93 1.73-.56-1.73-.56V9.63l-1.07 1.46-1.72-.56L19.8 12l-1.07 1.47 1.72-.56 1.07 1.47zm-5.58 4.88.6-1.82L15 16.76l-1.54-1.12.59 1.8-1.54 1.13h1.9l.59 1.81.59-1.81h1.9zm-6.41-6.35L8.47 9.63v1.8L6.74 12l1.73.56v1.81l1.07-1.46 1.72.56L10.2 12l1.06-1.47z"/>
</svg>
