<svg xmlns="http://www.w3.org/2000/svg" width="30" height="24" viewBox="0 0 30 24">
  <path fill="#071b65" d="M0 0h30v24H0z"/>
  <path fill="#fff" d="M5.5 9.77V12h4V9.77L12.54 12H15v-1.24L11.24 8H15V4h-2.74L15 2V0h-1.44L9.5 2.98V0h-4v2.8L1.75 0H0v1.9L2.99 4H0v4h3.76L0 10.76V12h2.46z"/>
  <path fill="#b92932" d="m0 1 4.09 3h1.36L0 0zm0 11 5.45-4v1l-4.09 3z"/>
  <path fill="#b92932" d="M8.5 12h-2V7H0V5h6.5V0h2v5H15v2H8.5z"/>
  <path fill="#b92932" d="M15 11.67 10 8v1l4.1 3h.9zM15 0h-.25L9.3 4h1.37L15 .82z"/>
  <path fill="#55acee" d="M27 6H17v7.52l5 2 5-2z"/>
  <path fill="#9f1d22" d="m17 13.52.01.25a4.3 4.3 0 0 0 1.49 2.87c1.44 1.28 3.5 1.56 3.5 1.86 0-.3 2.06-.58 3.5-1.86a4.3 4.3 0 0 0 1.49-2.87v-.25z"/>
  <path fill="#000" d="M22.35 8.26h1.9v-.63h-1.9v-.85h-.67v.85h-1.94v.63h1.94v7.95h.67z"/>
  <path fill="#77b253" d="M22.35 9.2q.15-.16.25-.16.12.01.23-.01c.07-.02.43-.07.57-.02q.07 0 .22.12c.1.08.24.23.2.63-.06.41-.04.58-.06.81-.04.4-.13.73-.29.7.22.38.24.71.38.97s.23.8.18 1.37-.21 1.86.25 2.73c-.08.05-.26 0-.43-.18s-.23-.17-.37-.06c-.41.3-.8.69-1.37.3-.13-.08-.17-.18-.08-.45.24-.66.36-1.56.32-1.99z"/>
  <path fill="#faaa34" d="M20.02 14.1c.34.35 1.43 1.5 1.57 1.63s.21.12.27-.01c.4-.94.3-2.15-.68-3.33q-.25.88-1.2 1.1c-.33.06-.39.27-.33.35.09-.15.28-.16.38.02.07.15-.03.33-.19.38s-.4.04-.5-.13c-.1-.16-.18-.55.27-.75s.94-.4 1.03-.8.22-.59.5-.62c1.5 1.38 1.7 2.93 1.07 4.3-.16.34-.4.43-.56.23a99 99 0 0 0-1.9-2.21.3.3 0 0 0 .27-.16"/>
  <path fill="#f6ddcd" d="M22.74 8.78q.06.16 0 .32a.4.4 0 0 0 .02.4c.13-.19.32-.15.43-.26.1-.1.13-.2.21-.23-.08-.07-.2-.15-.18-.35s.32-.38.06-.69a.4.4 0 0 0-.53-.07l-.1.13c-.02.03 0 .11-.04.16l-.1.1q-.04.02-.01.07l.05.02-.04.06v.05c-.01.06.03.07 0 .12s-.06.1.03.14a.4.4 0 0 0 .2.03m-1.06 1.08c-.15.04-.4-.02-.58 0q-.14 0-.14-.12.03-.13 0-.32 0-.27.19-.69c.12-.27.18-.42.18-.55q-.02-.14.08-.23.07-.05.1-.1.07-.1.09-.04 0 .03-.03.08l.15-.1c.02-.02.12-.08.12-.02q.06-.03.08 0 0 .03-.02.05c.03 0 .06.04 0 .08q.07 0 .01.09l-.13.1-.2.16q-.06.02-.05.13c0 .83-.1.77-.1.97 0 .05-.02.1.04.08q.08-.03.21-.04zm.04 1.8c.24-.12.52-.17.67-.2.15-.04.38-.16.5-.22q.16-.11.27-.16a.3.3 0 0 0 .18-.15q.32-.6.33-1.02c0-.2-.05-.4-.24-.25-.17.14-.36.41-.41.61-.08.3-.14.37-.16.43s-.08.06-.15.08c-.32.07-.4.12-.64.3q-.32.23-.68.43c-.17.1-.2.1-.24.19l-.1.17a.1.1 0 0 0-.04.12l-.02.25q0 .07.04.07.04.02.06-.07c-.01.06.08.04.08 0 0 .06.1.02.1-.04 0 .04.07.01.08-.01l.05-.16q.04-.1.13-.19c.07-.05.04-.1.19-.18m1.76 4.44.06.16q.01.05-.02.08-.09.2-.13.41-.02.1-.06.15t.03.11c.03.02.1 0 .1-.04q.07.03.1-.03.05.03.1-.03.04.01.07-.04.07.04.08-.08l.02-.05.02-.09q0-.06.04-.13.06-.07.05-.18c-.01-.07-.04-.07-.07-.16-.06-.06-.14-.15-.22-.15-.09 0-.14.05-.17.07m-1.55.46c.08.08.25.08.37-.05l-.18-.1z"/>
  <path fill="#955c0f" d="M22.7 7.95c.03-.2.17-.19.26-.17q.1.02.2 0c.16-.05.28.01.27.17q.08.06.08.17-.02.09.06.1c.06 0 .2.08.1.18.1.05.15.18.11.26s-.18.1-.23.02q-.11.05-.22-.03c-.04.05-.14.04-.16 0a.1.1 0 0 0-.1-.08c-.03-.01-.04-.13.03-.14v-.1q.03-.03-.03-.08c-.03-.03-.07-.15-.03-.2-.06.01-.21-.05-.24-.1q-.05-.05-.1 0"/>
  <path fill="#000" d="M23.65 8.74a.1.1 0 0 1-.1-.05q-.11.05-.22-.03l-.09.03h-.02q-.05 0-.06-.04a.1.1 0 0 0-.08-.07q-.04-.02-.04-.08t.05-.08q0-.06.02-.1.01-.01-.04-.06c-.04-.04-.07-.14-.04-.2H23c-.08 0-.19-.06-.21-.1q-.03-.03-.05-.03l-.04.03h-.01q.01-.12.08-.16.06-.05.18-.02.06.01.2-.01.15-.04.23.03.05.05.05.14.08.07.08.18-.01.08.06.1.07 0 .13.08.01.04-.02.1c.08.05.14.18.1.26a.2.2 0 0 1-.12.08zm-.1-.07q.05.06.11.05a.1.1 0 0 0 .11-.06c.04-.08-.02-.2-.1-.25V8.4q.04-.04.02-.1-.04-.06-.12-.07-.1-.02-.07-.11 0-.1-.08-.17.01-.1-.04-.14-.08-.06-.22-.02h-.2q-.11-.03-.17.02-.05.03-.08.12l.04-.01q.03 0 .06.04c.02.03.13.08.2.08h.05-.01c-.04.07 0 .18.03.2l.04.05v.05q-.03.03-.02.09-.05.02-.05.07t.03.07a.1.1 0 0 1 .1.08q0 .02.04.03.06 0 .1-.03h.01q.1.08.22.03m-.8.12.1-.04.1-.04h.02v.02q-.06 0-.1.03zm-.16 2.02c.17-.16.1-.5.06-.74v-.02a.7.7 0 0 1 .1-.54h.02a.7.7 0 0 0-.11.54v.01c.05.25.11.6-.07.76m.27.57-.16-.03v-.02c.11.06.27.05.37-.02s.27-.07.4-.04v.02c-.12-.03-.3-.03-.4.04a.4.4 0 0 1-.2.05"/>
</svg>
