<svg xmlns="http://www.w3.org/2000/svg" width="30" height="24" viewBox="0 0 30 24">
  <path fill="#0e2a68" d="M0 0h26c1 0 1.95.38 2.68 1.05L1.32 22.95A4 4 0 0 1 0 20z"/>
  <path fill="#44994d" d="M30 24H2.8c-1.03 0-2.04-.4-2.8-1.1L28.62 0A4.2 4.2 0 0 1 30 3.08z"/>
  <path fill="#fff" d="M30 0h-5.6L0 19.54V24h5.6L30 4.48z"/>
  <path fill="#b92831" d="M26 0 0 20.75V24h4L30 3.25V0z"/>
  <path fill="#f6ce46" d="M6.34 5.36a1.73 1.73 0 1 0 0 3.45 1.73 1.73 0 0 0 0-3.45m-.53-.28q.54-.15 1.07 0l-.54-1.45z"/>
  <path fill="#f6ce46" d="M8.35 7.62 9.8 7.1l-1.45-.54.99-1.2-1.53.27.26-1.53-1.19 1a2.08 2.08 0 0 1-.54 4.07 2.08 2.08 0 0 1-.53-4.08L4.6 4.1l.27 1.53-1.53-.26.99 1.19-1.46.54 1.46.53-1 1.2 1.54-.27-.27 1.53 1.2-.99.53 1.45.54-1.45 1.2 1-.27-1.54 1.53.26z"/>
</svg>
