<svg xmlns="http://www.w3.org/2000/svg" width="30" height="24" viewBox="0 0 30 24">
  <path fill="#004990" d="M0 24h30V0H0z"/>
  <path fill="#fff" d="M28 11.86v.28h-6v-.28z"/>
  <path fill="#fff" d="M15.14 4.92h-.28V2h.28z"/>
  <path fill="#fff" d="M15 18.29v-6.23l1.11 1.13 4.36-.99c.05 0 .05.05 0 .05l-4.08 1.31z"/>
  <path fill="#fff" d="M15.79 16.79a4.8 4.8 0 0 0 3.9-3.89l-.38.14a4.5 4.5 0 0 1-3.43 3.42z"/>
  <path fill="#fff" d="M15 12.01h6.16L16.5 10.6l-1.3-4.13q-.02-.08-.04 0l.97 4.41z"/>
  <path fill="#fff" d="M15.84 7.27a4.8 4.8 0 0 1 3.84 3.94l-.32-.1a4.5 4.5 0 0 0-3.38-3.47z"/>
  <path fill="#fff" d="M15 5.71v6.23l-1.11-1.13-4.36.99c-.05 0-.05-.05 0-.05l4.08-1.31z"/>
  <path fill="#fff" d="M12.77 8.08a4.5 4.5 0 0 0-2.08 2.88l-.37.14a4.75 4.75 0 0 1 3.88-3.9v.01h.01l-.09.33h-.04l-.01.04q-.7.14-1.3.5"/>
  <path fill="#fff" d="M2 11.86v.28h6v-.28z"/>
  <path fill="#fff" d="M15.14 19.08h-.28V22h.28z"/>
  <path fill="#fff" d="M8.84 11.99h6.15l-1.11 1.13.97 4.4q-.02.09-.04 0l-1.3-4.12z"/>
  <path fill="#fff" d="M10.32 12.79a4.8 4.8 0 0 0 3.84 3.94l-.14-.37a4.5 4.5 0 0 1-3.38-3.48z"/>
</svg>
