<svg xmlns="http://www.w3.org/2000/svg" width="30" height="24" viewBox="0 0 30 24">
  <path fill="#ffe150" d="M0 0h30v24H0z"/>
  <path fill="#071b65" d="M0 0h15v12H0z"/>
  <path fill="#fff" d="M5.5 9.77V12h4V9.77L12.54 12H15v-1.24L11.24 8H15V4h-2.74L15 2V0h-1.44L9.5 2.98V0h-4v2.8L1.75 0H0v1.9L2.99 4H0v4h3.76L0 10.76V12h2.46z"/>
  <path fill="#b92932" d="m0 1 4.09 3h1.36L0 0zm0 11 5.45-4v1l-4.09 3z"/>
  <path fill="#b92932" d="M8.5 12h-2V7H0V5h6.5V0h2v5H15v2H8.5z"/>
  <path fill="#b92932" d="M15 11.67 10 8v1l4.1 3h.9zM15 0h-.25L9.3 4h1.37L15 .82z"/>
  <path fill="#004a77" d="M7.5 8.3a2.25 2.25 0 1 0 0-4.5 2.25 2.25 0 0 0 0 4.5"/>
  <path fill="#ffe150" d="m7.5 3.77.54 1.4 1.64.04-1.3 1.08.47 1.54L7.5 6.9l-1.35.92.48-1.54L5.32 5.2l1.64-.03zM2.4 5.1l.22.62.67.01-.54.4.2.63-.56-.37-.55.37.2-.63-.54-.4.67-.01zm10.2 0 .23.62.67.01-.54.4.2.63-.55-.37-.56.37.2-.63-.54-.4.67-.01zM7.5 1l.22.62.67.02-.53.4.2.62-.56-.37-.55.37.2-.63-.54-.4h.67zm0 8.34.22.62.67.01-.53.4.2.63-.56-.38-.55.38.2-.63-.54-.4.67-.01z"/>
</svg>
