<svg xmlns="http://www.w3.org/2000/svg" width="30" height="24" viewBox="0 0 30 24">
  <path fill="#eee" d="M10 0h10v24H10z"/>
  <path fill="#007934" d="M0 24V0h10v24z"/>
  <path fill="#007934" d="M20 24V0h10v24z"/>
  <path fill="#007934" d="M16.82 14.88c.48-.04 1.22.16 1.76.12.55-.06.46-.1.28-.23-.18-.15-.33-.04-.42.05-.1.1-.26.09-.18 0q.1-.15-.18-.13c-.18.01-.3.08-.42.1-.12.04-.25-.04-.16-.09q.13-.07 0-.08c-.07 0-.07-.06.13-.1q.3-.01.47.08.18.04.34-.06c.08-.06.13-.13.24-.12.1 0 .17-.05.03-.14a.5.5 0 0 0-.45-.05c-.12.06-.18.02-.22-.03s-.21-.05-.38.02c-.16.08-.28.17-.37.04-.05-.07-.4.01-.6.07-.21.06-.25 0-.08-.08.23-.1.37-.03.71-.16.23-.09.56.06 1.1-.25.13-.08.25-.15-.1-.16-.19-.01-.27 0-.33.09s-.14.06-.13 0c0-.06-.17-.1-.3-.01q-.22.15-.32.19-.1.03-.07-.05 0-.07-.1 0-.1.06-.23.08c-.07 0-.14-.06.05-.16s.37-.22.66-.2c.39.03.47-.13.66-.12.18 0 .28-.14.03-.14s-.32.05-.38.1c-.05.03-.17.06-.15-.02q.03-.12-.11-.05a1 1 0 0 1-.42.04c-.1-.03-.2-.09.05-.1s.43-.13.64-.08c.2.05.3-.04.36-.04.07.01.16-.05.03-.15-.12-.1-.44-.1-.55-.1q-.17.03-.15-.03.03-.08-.1-.06c-.1 0-.37.06-.48.11-.15.07-.26-.03-.14-.11a1 1 0 0 1 .41-.1c.12.01.17.03.14-.06-.02-.03-.03-.08.1-.05s.39.04.53-.04.03-.18-.2-.17c-.22 0-.72.07-.92.2s-.22 0-.14-.05q.11-.06.05-.1-.09-.03.08-.1c.22-.08.47-.06.75-.19.21-.1.43-.2.5-.37s-.04-.11-.16-.06-.2.08-.2.17-.1.09-.1-.02q.02-.17-.22-.09a3 3 0 0 1-.74.2c-.14 0-.2-.1-.05-.1.15-.01.36-.08.49-.12.12-.04.2-.11.1-.16s-.02-.11.08-.11.23-.1.37-.08.29-.02.1-.13c-.06-.04-.13-.1-.04-.15.1-.05.04-.18-.1-.2a1 1 0 0 0-.35.04q-.12.04-.16-.05c-.02-.06-.26-.05-.36-.03s-.29.02-.14-.05.44-.11.59-.11q.24-.01.38-.07c.08-.03.1-.2-.08-.2s-.41.02-.37-.05c.05-.07-.11-.11-.28-.07s-.41.07-.27-.02.41-.2.54-.19c.13 0 .22-.02.14-.12-.1-.1-.03-.14.05-.16.09 0 .1-.11-.02-.14-.12-.02-.44-.1-.59-.01-.21.12-.37.11-.3.04q.09-.09-.1-.04c-.24.07-.77.23-.92.22-.07-.01-.16 0-.16-.09s.06-.08.28-.12c.43-.07.9-.2 1.11-.18q.32.04.24-.09c-.06-.09-.22-.02-.15-.13s-.06-.1-.15-.1a.4.4 0 0 1-.24-.1c-.08-.07-.33-.03-.46.02s-.42.12-.53.1c-.14 0-.14 0-.15-.1q-.01-.07.08-.1c.14-.05.71-.07.9-.04.35.07.36-.06.29-.13-.1-.08-.4-.04-.6 0-.19.03-.4.06-.45.02q-.07-.08.14-.12c.16-.03.54 0 .6-.03s.12-.12-.01-.15c-.13-.04-.44 0-.58.05s-.3.03-.34-.02c-.03-.05-.02-.17.22-.15h.75q.12-.04.05-.12c-.04-.06-.09-.11-.04-.15q.04-.06 0-.11-.03-.05.02-.08c.03-.03.06-.08-.03-.06-.15.03-.38-.05-.5 0q-.24.07-.49.06c-.04 0-.06-.09.02-.1.13-.01.38-.05.48-.1q.15-.08.31-.08c.12 0 .2-.04.09-.1a.6.6 0 0 0-.43.01c-.1.05-.3.16-.42.14q-.15-.02-.07-.21c.02-.07.16-.08.26-.06s.39-.06.5-.03.21-.02.09-.11c-.13-.1-.24-.06-.36-.02-.12.05-.4.12-.47.05s-.1-.24.05-.18c.15.07.52-.05.63 0s.15-.04.05-.09-.39 0-.49.02q-.23.08-.23-.05c0-.06.19-.05.24-.04.14.04.34-.13.46-.1.13.03.1-.04.04-.09s-.3-.02-.4.03a1 1 0 0 1-.29.1q-.07 0-.07-.13c0-.1.05-.12.12-.16.12-.06.14-.15.05-.13-.14.04-.19.08-.19-.1 0-.1.01-.17.13-.2.11-.02.13-.1.1-.12-.04-.02-.09.03-.14.05s-.1.05-.1-.1q.01-.14.1-.13a.2.2 0 0 0 .13-.07q.03-.08-.08-.05c-.08.03-.16.04-.16-.05l-.03-.77c-.01-.1-.09-.13-.09 0 0 .12 0 .56-.02.77q-.01.1-.11.04c-.06-.03-.24 0-.12.05s.2.07.21.17q0 .14-.15.06c-.11-.05-.25-.03-.05.09.19.12.2.12.2.25-.01.12-.08.1-.2.05-.15-.07-.27-.01-.1.07q.29.13.29.3c-.01.1-.1.16-.22 0a.6.6 0 0 0-.5-.22c-.15.02-.07.1.1.16.19.07.48.2.55.28.06.07.03.13-.13.07-.17-.07-.53-.2-.64-.16-.12.04-.17.1.03.11s.54.07.69.12c.18.07.2.21.03.16s-.66-.15-.8-.06-.19.17.06.14c.24-.04.54-.04.68.01.07.04.13.04.13.15q-.02.14-.24.04c-.15-.06-.6-.18-.73-.07q-.2.16.09.1c.19-.03.48 0 .62.03.3.05.27.1.08.1-.18 0-.73.03-.86-.02s-.32-.08-.4-.05c-.07.03-.01.06.05.06q.11.01.07.1c-.04.03-.07.11.1.08s.43-.03.55.02.33.1.5.13c.17.01.17.02.17.15 0 .1-.2.04-.4-.09-.2-.12-.56-.19-.74-.07s-.07.14.1.11c.15-.03.6.05.76.1s.27.02.26.18c0 .1-.1.04-.24-.01q-.54-.21-1.12-.17-.17.01-.1.06.04.04-.07.09l-.21.09c-.05.03-.05.07.09.06.13-.01.26 0 .18.06-.07.05-.17.12-.02.14.4.03.97.28 1.17.39s.25.12.25.22-.11.09-.23.03c-.36-.2-.72-.15-.9-.28s-.46-.27-.63-.16c-.18.1-.15.18 0 .16.16-.02.33 0 .27.09s-.1.13.15.16c.35.05.92.27 1.12.36.19.08.26.13.1.16s-.17-.1-.42-.1a1 1 0 0 1-.48-.18c-.1-.09-.18-.13-.37-.11-.18.02-.45.05-.55.1s-.13.14.03.15.23.1.11.14-.25.07-.3.12q-.06.09.19.1c.17 0 .43.05.66.16.22.11.89.45 1.07.46.17.01.2.04.19.13 0 .1-.07.07-.22.03a3 3 0 0 1-.7-.29c-.14-.12-.28-.23-.4-.23-.13-.01-.1.03-.05.08.04.04.04.16-.04.08-.14-.12-.23-.26-.4-.26q-.29-.01-.44.05-.15.1.09.14c.2.03.41.1.51.15q.13.1-.04.11-.13.01.03.11c.1.06.17.15.09.17-.11.02-.3-.2-.4-.19-.06.01 0 .06.04.09.06.03.06.15-.03.08-.11-.09-.27-.2-.45-.14-.18.07-.27.14-.11.2.15.07.26.13.18.23-.03.04-.06.1.15.12.13 0 .28.06.35.13s-.02.1-.1.07c-.08-.04-.26-.05-.35.03q-.1.12.18.15c.5.06 1.02.22 1.31.25s.53.1.66.14c.16.06.07.25-.05.19l-.35-.16q-.1 0-.05.07c0 .06-.07.1-.14.03a1 1 0 0 0-.42-.22c-.13-.03-.11 0-.09.04.02.05.01.12-.07.03a1 1 0 0 0-.52-.2c-.1 0-.09.04-.06.09s-.04.13-.1.04c-.07-.09-.2-.21-.37-.11q-.1.08-.24.11-.14.05.06.1c.36.08.5-.02.73.08.18.07.34.09.4.1.07 0 .12.04.05.07q-.11.04 0 .15c.1.08.03.2-.05.1-.13-.16-.32-.1-.4-.18q-.1-.1-.1 0t-.1.02c-.24-.18-.53-.15-.66-.06q-.2.12.13.15c.65.1 1.45.24 2.14.53.38.16.36.2.34.24s-.1.06-.24-.04c-.18-.12-.63-.19-.83-.31s-.26-.06-.2.02.03.16-.08.05-.36-.23-.5-.23c-.13 0-.03.05.04.1s.08.19-.03.11-.47-.27-.74-.2-.23.11-.1.2c.14.09.27.16.57.15s.58.04.72.13c.13.09 0 .1-.08.05a1 1 0 0 0-.43-.07c-.1 0-.06.05-.02.1s0 .2-.08.1a1 1 0 0 0-.44-.22c-.29-.07-.42.06-.29.1q.13.05.07.14c-.05.06-.07.13.09.1a4 4 0 0 1 1.42.08c.32.1.25.17.16.16-.08 0-.17-.05-.13.03s.04.16-.07.08q-.3-.2-.67-.2c-.08 0-.04.04 0 .08.02.05-.02.12-.1.06a1 1 0 0 0-.35-.17q-.14 0-.05.08c.05.05.04.13-.06.06-.14-.1-.37-.21-.53-.2s-.1.1.06.16c.28.11.58.19.79.2l.48.09c.08 0 .12.05 0 .07-.16.02-.42-.1-.55-.04-.06.03.02.08.03.1.02.04.01.16-.07.09-.25-.2-.41-.18-.5-.25-.09-.06-.18-.02-.12.05s-.07.05-.16 0c-.1-.06-.26-.1-.36-.07s-.15.07.06.18q.28.17.6.23c.2.04.23.17.12.15-.12-.01-.14.06-.06.11q.06.06.05.16-.01.07-.17-.07c-.22-.25-.71-.26-.96-.2-.24.08-.14.2.04.36.18.17.34.34.8.29.45-.06 1.26-.23 1.64-.13s.33.27.21.28c-.2.03-.2-.16-.4-.18-.22 0-.28.1-.35.17s-.12.14-.34.04c-.27-.13-.48.05-.6.03.12.06.3.2.25.26s-.13-.06-.3-.12a.7.7 0 0 0-.6.04c-.18.11.01.22.22.27s.65.05 1.01-.05c.37-.1.82-.17.98-.17q.2.01.1.14c.13.04.28 0 .36-.05.2-.13.17 0 .13.08.13.01.36-.16.46-.1.02.57-.01 1.7-.01 2.09 0 .07.05.05.39.05.4 0 .43.03.42-.17-.02-.19-.13-1.34-.1-1.76.04-.42.16-.4.3-.36.16.03.5.14.68.13-.1-.11-.12-.2-.02-.17a.4.4 0 0 0 .34-.1c-.08 0-.14-.1 0-.13s.2.05.44.13c.25.08 1.18.26 1.71-.08.16-.1.03-.14-.16-.14q-.28.01-.38.08c-.1.04-.18.07-.16 0s-.15-.11-.3-.04-.27.1-.24.02q.07-.11-.22-.09c-.17.01-.68-.05-.66-.13q.01-.08.28-.04c.4.09 1.3.12 1.58.1.45-.03.32-.17.15-.22s-.37-.01-.4.04c-.05.05-.2.09-.16 0 .05-.11-.2-.14-.42-.02-.14.08-.17.04-.12-.03q.06-.1-.2-.1c-.24.02-.67.03-.84-.04q-.29-.1.17-.13m-1.47-6.45q-.1.05-.12-.02c0-.07.07-.04.12-.03.05 0 .1.02 0 .05m0-.29q.1.03.2.02c.07-.02.15.03.05.06-.18.05-.37.09-.37-.03 0-.07.07-.06.12-.05m-.53-.05c-.1-.04-.07-.1-.02-.1.05-.03.15-.02.15.09 0 .06-.09.03-.13 0m-1.68 6.96c-.05-.08.01-.03.12 0q.12.04.13.12c-.01.09-.2-.04-.25-.12m1.24-1.25c.1.07.44.06.44.2 0 .06-.07.02-.15.02a1 1 0 0 1-.37-.16c-.1-.1-.02-.13.08-.06m.42 1.34c-.02.12-.22.03-.38-.05-.15-.09.01-.13.08-.1a.4.4 0 0 0 .22 0q.12-.06.08.15m-.1-.36c-.11 0-.35-.1-.56-.18-.21-.09-.02-.14.1-.09s.34.06.47.06c.14 0 .16.2-.01.2m-.18-2.85c-.18-.02-.34-.16-.83-.27-.2-.04-.15-.07-.01-.07s.55.18 1 .25c.1.02.21.04.2.17 0 .14-.19-.05-.36-.08m.18-.5a2 2 0 0 0-.62-.23c-.14-.03-.22-.08-.09-.1q.23-.02.48.11c.1.05.25.11.31.11.07 0 .12 0 .12.13 0 .15-.09.06-.2-.02m-.64-2.73c.18.07.54.04.78.19.1.06-.04.07-.18.02-.15-.06-.31-.03-.6-.13-.24-.08-.14-.13 0-.08m.47 1.05q-.31-.12-.28-.18c.01-.03.21.02.35.07.25.08.3.08.29.19 0 .09-.14 0-.36-.08m-.5.26c.21 0 .48.12.66.2q.2.08.2.17c0 .07-.08.04-.15 0-.06-.05-.5-.18-.7-.26q-.34-.13-.01-.11m.88.7c0 .05-.06.01-.1.01-.1 0-.32-.17-.62-.22-.15-.02-.33-.15-.5-.2s-.03-.13.06-.08q.06.05.3.09c.16.03.52.16.63.24.05.04.24.03.23.16m.03-1.49q-.01.14-.12.06t-.35-.14c-.15-.05-.09-.14.03-.08q.18.08.4.06c.07 0 .04.05.04.1m.27.32c0-.14.02-.15.11-.13.1.02.41.01.54 0 .12-.01.22.03.01.07q-.22.04-.46.13c-.09.03-.2.07-.2-.07m1.23 2.9c-.09.1-.55.18-.82.31-.23.1-.28.07-.28-.07s.16-.06.24-.12.57-.1.72-.18q.24-.1.14.07m-.38.76c-.15.02-.28.1-.52.18s-.2-.05-.1-.1c.1-.07.42-.14.6-.15.17-.02.17.05.02.07m-.1-.95a1 1 0 0 1-.35.15q-.27.07-.27-.07c0-.1.06-.08.19-.06.13.01.38.02.44-.02m-.42-.55c-.07.04-.22.07-.21 0q0-.07.03-.06c.19-.02.34-.12.44-.13.15-.01.23-.02.15.04-.09.07-.34.1-.41.15m-.13-1.4c.07 0 .28-.04.37-.08q.14-.04.04.03-.16.08-.33.13-.2.07-.2-.03c0-.07.02-.06.12-.06m.02.55c.13.01.39 0 .47-.05a.4.4 0 0 1 .24-.04q.07.02-.05.09c-.08.05-.36.05-.46.11a1 1 0 0 1-.28.08q-.08.02-.07-.07c0-.1.02-.12.15-.12m-.14.47q-.02-.1.07-.09c.17 0 .47-.14.58-.14.12 0 .17.06.04.08-.15.02-.44.1-.5.13-.07.05-.2.1-.2.02m.23.6c.17.02.2.08-.03.12q-.17.05-.17-.08c0-.06.03-.07.2-.04m-.08 1.1c.09 0 .28-.03.34-.05.12-.03.1.01.03.05a1 1 0 0 1-.4.1c-.14-.01-.1-.1.03-.1m.29 2.17a.4.4 0 0 0-.22-.01q-.13 0-.14-.14c.08.06.28-.04.46.06.08.04-.02.11-.1.09m.08-.49c-.1 0-.23.1-.36.07s-.1-.14.02-.1c.1.02.17-.03.3-.06.14-.03.13.09.04.09m-.37-.47.2-.02q.1-.02.01.06c-.05.03-.13.08-.21.06-.09-.03-.07-.1 0-.1m.05-.53c-.24.1-.16-.05-.05-.1l.59-.22c.2-.07.33-.07.48-.09q.2-.04.04.12c-.1.12-.21.08-.37.08s-.45.1-.69.21m.85.2q-.21-.02-.06-.08c.06-.02.17-.04.21 0q.08.06-.15.08"/>
  <path fill="#eee" d="M14.89 9.55a.3.3 0 0 1-.28.28h-.57a.28.28 0 0 1 0-.55h.57c.15 0 .28.12.28.27m1.39 3.85a.4.4 0 0 1-.4.4h-.04a.4.4 0 0 1 0-.8h.04a.4.4 0 0 1 .4.4m-.55 1.62a.15.15 0 0 1-.3 0v-.57a.15.15 0 1 1 .3 0zm-.93-.15a.27.27 0 0 1-.27.27h-.12a.27.27 0 1 1 0-.54h.12a.27.27 0 0 1 .27.27m.1-3.93c0 .22-.13.4-.28.4s-.27-.18-.27-.4v-.43c0-.22.12-.4.27-.4s.28.18.28.4zm.65-1.33a.16.16 0 1 1-.33 0v-.25a.16.16 0 1 1 .33 0zm2.34 5.57c0 .16-.12.3-.26.3h-.54c-.15 0-.27-.14-.27-.3 0-.17.12-.3.27-.3h.54c.14 0 .26.13.26.3m-4.2.48a.26.26 0 0 1-.25.26h-.65a.26.26 0 0 1 0-.52h.65a.26.26 0 0 1 .26.26"/>
</svg>
