<svg xmlns="http://www.w3.org/2000/svg" width="30" height="24" viewBox="0 0 30 24">
  <path fill="#cb2e40" d="M30 24H0V12h30z"/>
  <path fill="#1334a3" d="M30 12H0V0h30z"/>
  <path fill="#fff" d="M0 24V0l15 12z"/>
  <path fill="#f4d24b" d="M7.86 11.63a2 2 0 0 0-.29-.68l1.44-1.02L9 9l-.93-.01-1.02 1.44a2 2 0 0 0-.68-.29l.3-1.49L6 8l-.67.65.3 1.5q-.38.06-.68.28L3.93 8.99 3 9l-.01.93 1.43 1.02q-.2.31-.28.68l-1.49-.3L2 12l.65.67 1.5-.3q.07.38.27.68L3 14.07V15l.93.01 1.02-1.44q.3.21.68.29l-.3 1.49L6 16l.67-.65-.3-1.5q.38-.07.68-.28l1.02 1.44L9 15l.01-.93-1.43-1.02q.2-.31.28-.68l1.49.3L10 12l-.65-.67z"/>
</svg>
