<svg xmlns="http://www.w3.org/2000/svg" width="30" height="24" viewBox="0 0 30 24">
  <path fill="#000" d="M0 0h30v24H0z"/>
  <path fill="#fff" d="M9.92 11.45c.25 0 .46.2.76.67.34.5.85.92 1.44 1.26l.27.13c.72.35 1.93 1.03 2.82 1.54l.44.24.83.47c.21.13.6.3.8.42a5 5 0 0 0 2.59.63l.63.05c.56.06.75.12.93.29l.05.04c.16.12.16.5.08.7-.13.22-.5.38-.68.34q-.1-.04-.21.12l-.04.05c-.43.67-.85.75-1.48.38l-.3-.22-.42-.37-.2-.17c-.33-.27-.65-.5-.78-.54h-.08a25 25 0 0 1-2.92-1.5c-2.04-1.1-4.07-1.9-5.25-2.06-.77-.08-1.1-.25-1.19-.67-.08-.34.34-.96.72-1.05q.2-.01.34-.3c.17-.24.55-.45.85-.45"/>
  <path fill="#fff" d="m13.47 15.6.3.16.29.17.34.2.34.22-.2.08-2.13.92a5 5 0 0 0-1.01.55c-1.06.8-1.7 1-2.16.63a1 1 0 0 1-.3-.42c-.04-.17-.13-.25-.34-.34-.38-.12-.5-.25-.59-.5-.04-.34.04-.5.34-.67.25-.13.42-.17.89-.13l.48.02a5.6 5.6 0 0 0 3.07-.56zm6.72-3.9c.34 0 .75.23.81.48l.01.06c0 .09.13.26.38.38.21.13.42.34.47.46.2.3.17.67 0 .88l-.07.07c-.17.14-.3.16-1.12.27-.79.07-2.12.44-3.22.86l-1.01.4-.93-.54q-.24-.13-.26-.18c-.04-.04.76-.42 2.25-1.09a4.5 4.5 0 0 0 2.03-1.55l.18-.22q.16-.19.24-.24zM14.91 5h.61c.3.01.47.04.66.13.85.25 1.53.92 1.74 1.67.17.59.13 1.89-.09 2.18l-.02.1c-.03.09-.03.15-.03.38v.32c-.01.29-.08.52-.62.74l-.18.07c0 .4-.07 1.1-.16 1.25-.13.3-.72.97-.9 1.05-.24.08-1.3.17-1.64.08l-.16-.05c-.25-.1-.34-.2-.73-.66l-.16-.23c-.2-.32-.24-.49-.3-1.32l-.02-.17-.03-.01c-.55-.23-.77-.43-.77-.69v-.07c0-.12.13-.62.05-.83-.14-.25-.17-.38-.17-.86v-.83c.02-.27.06-.4.17-.62a3.2 3.2 0 0 1 1.36-1.34l.16-.07c.34-.15.5-.18 1.23-.22m-1.27 5.99-.05-.06.05.24c.09.76.38 1 1.31 1 .73 0 1.02-.12 1.2-.5l.09-.27.03-.14v-.11l-.26.26-.84.04h-.63q-.26-.01-.3-.04c-.34-.09-.47-.21-.6-.42M15 9.23c-.08 0-.27.39-.36.7l-.03.1-.06.31-.02.06c-.04.13 0 .17.21 0 .17-.08.21-.08.38 0l.1.07q.09.08.07-.11c0-.3-.2-1.13-.3-1.13m-1.17-1.24c-.38.02-.72.36-.78.9-.04.67.3.97.93.63.55-.29.76-.96.43-1.3a.8.8 0 0 0-.58-.23m2.3 0q-.31.02-.54.23c-.25.26-.25.5 0 .88.3.55.8.72 1.19.34.17-.17.17-.21.12-.54-.05-.58-.4-.92-.78-.91"/>
</svg>
