<svg xmlns="http://www.w3.org/2000/svg" width="30" height="24" viewBox="0 0 30 24">
  <path fill="#305f3e" d="M30 24H0v-6h30z"/>
  <path fill="#f4d548" d="M0 12h30v6H0z"/>
  <path fill="#4aa2dc" d="M30 12H0V0h30z"/>
  <path fill="#f4d548" d="m23.66 6.84 3-.17-3-.18 2.86-.94-2.95.6L26.1 4.5l-2.7 1.35 2-2.25-2.24 2 1.35-2.69-1.65 2.52.6-2.95-.94 2.86-.18-3-.17 3-.95-2.86.61 2.95-1.65-2.52 1.35 2.7-2.25-2 2 2.24-2.69-1.35 2.51 1.65-2.94-.6 2.85.94-3 .18 3 .17-2.85.95 2.94-.61-2.5 1.65 2.68-1.35-2 2.25 2.25-2-1.35 2.69 1.65-2.51-.6 2.94.94-2.85.17 3 .18-3 .94 2.85-.6-2.94 1.65 2.5-1.35-2.68 2.25 2-2-2.25 2.69 1.35-2.52-1.65 2.95.6z"/>
</svg>
