<svg xmlns="http://www.w3.org/2000/svg" width="30" height="24" viewBox="0 0 30 24">
  <path fill="#00268d" d="M0 24h30V0H0z"/>
  <path fill="#e31d1c" d="M0 0h30v24H0zm2 2v20h26V2z"/>
  <path fill="#e31d1c" d="M16 0h-2v24h2z"/>
  <path fill="#e31d1c" d="M0 11v2h30v-2z"/>
  <path fill="#fff" d="M15.45 6.1 15 5.89l-.45.23-10 5-1.79.89 1.8.9 10 5 .44.22.45-.23 10-5 1.79-.89-1.8-.9z"/>
  <path fill="#059334" d="M10.6 16H19l3.58-1.53s-2.83-3.03-3-3.17c-.2-.14-.5-.2-.84.24-.34.45-.53-.24-.82-.24s-.4 0-.82.57l-1.9 2.6H13s-.36-.34-.57-.22-1.4-1.32-1.82-1.42c-.42-.11-.7.39-.7.78 0 .4-.2-.36-.6-.14-.4.23-.28.78-.28.78z"/>
  <path fill="#e31d1c" d="m15 5 11.3 5.27L30 12l-15 7-11.3-5.27L0 12l3.7-1.73 10.37-4.84zm0 2.16L4.64 12 15 16.84 25.36 12z"/>
  <path fill="#feda00" d="m14.7 11.25-1.04.75.38-1.23-1.04-.75h1.3l.4-1.22.44 1.22h1.26l-1.03.75.4 1.23z"/>
</svg>
