<svg xmlns="http://www.w3.org/2000/svg" width="30" height="24" viewBox="0 0 30 24">
  <path fill="#214fb5" d="M30 0H0v24z"/>
  <path fill="#2e5a34" d="M30 0 0 24h30z"/>
  <path fill="#f6d44a" d="M0 22.75V24h1.5L30 1.25V0h-1.48z"/>
  <path fill="#fff" d="M8.17 6.9 7.8 5.79 7.43 6.9h-1.2l.97.7-.37 1.13.97-.7.96.7-.37-1.13.97-.7zm2.27-2.07-.37 1.14.97-.7.96.7-.37-1.14.97-.7h-1.2L11.04 3l-.37 1.13h-1.2zm.96 4.85-.36-1.13-.37 1.13h-1.2l.97.7-.37 1.14.97-.7.96.7-.37-1.13.97-.7zm-6.47 0-.37-1.13-.37 1.13H3l.96.7-.36 1.14.96-.7.96.7-.36-1.13.96-.7zM4.56 3l-.37 1.13H3l.96.7-.36 1.14.96-.7.96.7-.36-1.14.96-.7h-1.2z"/>
</svg>
