<svg xmlns="http://www.w3.org/2000/svg" width="30" height="24" viewBox="0 0 30 24">
  <path fill="#006d21" d="M0 24h30V0H0z"/>
  <path fill="#fff" d="M0 8h30v16H0z"/>
  <path fill="#df0000" d="M0 16h30v8H0z"/>
  <path fill="#fff" d="M12.55.82a.6.6 0 0 0-.27.44v.06c0 .06 0 .07.05.13q.07.1.22.02a.2.2 0 0 0 .11-.16q0-.07-.06-.04c-.04.01-.09.03-.1-.05q-.03-.14.1-.23l.07-.1c0-.08 0-.15-.12-.07"/>
  <path fill="#fff" d="M12.45 3.1c-.32.09-.78-.82-.49-1.65.1-.1.15.2.2.51.04.24.08.49.14.55.07.1.15.19.24-.08.09-.37.23-.82.53-1.1.06-.05.2-.11.3.06.05.1.04.58.03.9v.08c.04.18.1.23.19.28l.02.02c.1.05.24.08.36-.05q.1-.1.13-.18l.04-.06c.05-.36 0-.68-.1-.88-.08-.25 0-.4.06-.5l.03-.07c.14-.24.18-.12.23.02l.01.02c.1.16.12.45.13.73q0 .23.02.42c.07.5.2.53.27.55.19.02.3-.15.3-.15.05-.3-.08-.53-.18-.72l-.05-.09a.5.5 0 0 1-.1-.4l.02-.07q-.01-.11.1-.23.22-.17.4.02c.12.13.3.4.24.5-.01.1-.12.08-.18.06-.1.01-.03.19 0 .25v.02q.05.11.06.24.04.17.1.31c.07.11.21.09.3.07h.05l.07-.06.07-.05c.06-.03.14-.04.13.1 0 0-.13.4-.32.5h-.03q-.04.05-.13-.01-.02-.1.01-.16l.03-.05c0-.03-.13-.08-.2.02l-.08.13-.1.18c-.08.13-.41.18-.57.12q-.15-.1-.19-.2-.02-.07-.07-.11-.14-.1-.23.01l-.28.28a.53.53 0 0 1-.7 0c-.16-.2-.2-.34-.2-.97q-.04-.12-.15.07c-.09.48-.24.92-.46.82"/>
  <path fill="#fff" d="M17.7 3.8c.17.28.42.7.61 1.11.07.1.1.79-.02.85q-.52-1.01-1.05-1.88l.04.82c.02.37.05.9 0 1.23-.07.33-.29.56-.42.56a18 18 0 0 0-.15-3.44q-.44-.67-.93-1.32l-.05-.06a1 1 0 0 1-.18-.28 1 1 0 0 1-.02-.42c.04-.2.26-.07.36 0l.32.27.09.07.12.16q0-.15.06-.3c.12-.16.13-.15.2-.06v.02l.09.12c.21.3.4.54.45.89.02.1-.02.07-.05.04-.05-.04-.1-.08-.08.14l.08.63a11 11 0 0 1 .53.85m-1.2-1.86.02.08-.13-.16c-.12-.15-.06-.15.02-.15h.04l.01.05z"/>
  <path fill="#fff" d="M11.76 1.69s-.74.85-.9.91a2 2 0 0 1-.55 0c-.05 0 .14-.16.38-.35s.51-.4.66-.56c.07-.05-.03-.15-.13-.2-.1-.12-.07-.32.06-.45q.15-.09.4 0c.1.1.16.34-.03.45q-.06.06 0 .1l.06.06z"/>
  <path fill="#fff" d="M6.62 3.54c-.47-.1-.42-1.07-.38-1.63.1-.12.15.2.2.49l.08.34c.1.4.24.25.27.03l.08-.4c.07-.42.3-.67.39-.66q.14-.05.21.13c.06.12.08.6.01.9-.01.23.27.5.26.03l-.02-.15q-.04-.43-.15-.85-.04-.3-.02-.62c.05-.1.17-.16.26-.05.12.1.16.46.18.7l.01.09c0 .17.02.56.1.81q.1.2.18.04.02 0-.03-.1l-.09-.2c-.09-.21-.15-.68-.02-.9.04-.07.14-.07.2 0q.04.07.08.1.08.1.12.27l.01.06c.04.1.07.2.01.6 0 .06.28.27.28.27q.13.14.3.05a1 1 0 0 0-.08-.41c-.2-.26-.32-.57-.29-.84.07-.23.25-.25.38-.14.15.08.24.27.3.47-.02.1-.12.1-.18 0l.02.1q.04.08.03.12.15.38.16.77c0 .27-.22.44-.57.54-.18.04-.26-.03-.35-.11l-.1-.07c-.09-.06-.23-.05-.23.06q-.04.08 0 .41.04.31.04.71c-.02.95-.37.85-.37.85l-.07-1.5c-.06-.15-.16-.16-.3-.14-.15-.06-.34-.15-.33-.43v-.86c0-.12-.08-.12-.12-.03-.07.07-.08.26-.08.46-.01.34-.02.73-.38.7"/>
  <path fill="#fff" d="m6.8 4.67 1-.48-.05-.1c-.03-.07-.05-.13-.27-.14-.47.01-1.16.62-1.18.96z"/>
  <path fill="#fff" d="M7.53 4.66c-.78 2.02 1.84 2.3 2.13.08.03-.09.14-.18.16-.03-.06 2-2.03 2.15-2.36 1.51a2 2 0 0 1-.12-.68c-.05-.39-.26-.24-.29.15a2 2 0 0 0-.02.5c.1 1.58 2.63.9 3.05-.41.13-.45.09-.83.06-1.05q-.04-.21.02-.21c.25.27.6.03.68-.06q.06-.1.17-.02c.2.14.54.08.62-.17q.06-.37.08-.76l-.03.01q-.23.06-.26.14l-.03.22c-.02.07-.16.07-.16-.02-.06-.27-.31-.31-.47.12-.1.08-.28.1-.3-.03q.02-.4-.33-.19l-.1-.84-.12-.84.08.01c.07.01.13.03.2-.05-.1-.3-.3-.92-.42-.96q-.06-.06-.13-.02H9.6c-.12.05-.23.15-.2.36l.2 1.2.19 1.2c.02.11-.07.25-.18.23l-.15-.15c-.1-.12-.19-.23-.4-.22-.23 0-.5.25-.53.5q-.07.3 0 .57c.16.2.36.18.53.13l.17-.1q.09-.08.13-.06c.04.04.01.5-.66.86-.4.18-.73.22-.9-.11q-.05-.13-.06-.39c-.02-.27-.03-.54-.2-.42"/>
  <path fill="#fff" d="M6.35 5.62c-.28.45-.3 1.11-.15 1.31q.15.15.32.1c.18-.07.25-.42.21-.55q-.08-.15-.16-.03c-.13.25-.18.08-.19-.06q-.02-.41.04-.7c.02-.19 0-.16-.05-.1q0 .02-.02.03"/>
  <path fill="#fff" d="M17.12 6.86c-.05.06.13.31.37.31.4-.04.76-.27 1.08-.86.1-.14.25-.44.25-.67a15 15 0 0 0-.27-3.36q-.01-.17.01-.23.02-.03.05-.02.06 0 .11-.06c.07-.07-.18-.65-.32-.87l-.01-.03c-.05-.08-.07-.13-.14.04-.1.14-.15.4-.14.63.13.92.2 1.76.27 2.63l.1 1.18c.01.13 0 .31-.1.39-.3.33-.76.73-1.26.92"/>
  <path fill="#fff" d="M22.48 7.22c-.23-.01-.23-.2.06-.37l.22-.11q.16-.07.28-.15c.1-.08.21-.23.32-.36l.07-.1c.05-.13.06-.2.08-.3V5.8c-.03-1.27-.19-2.35-.4-3.8-.04-.22 0-.48.08-.63s.1-.12.14-.03l.02.02.14.22c.18.24.39.55.34.6q-.05.05-.12.04-.06 0-.09.03l.03.25.01.09c.2.97.25 1.98.22 3.32 0 .23-.1.6-.2.74-.3.47-.75.53-1.14.57z"/>
  <path fill="#fff" d="M22.76 5.56v-.52q.3.48.6 1c.13-.06.09-.74.01-.84-.2-.33-.45-.67-.65-.94l-.06-.08-.05-.13q-.06-.16-.06-.32l-.01-.23-.04-.3q0-.23-.05-.45c-.02-.1-.06-.4-.05-.42q.02-.03.07-.04.05.01.09-.04c.06-.07-.23-.83-.38-1.05q-.08-.15-.27.1c-.12.1-.07.34-.03.56q.16.84.28 1.61l-.51-.7s-.03-.47-.05-.58v-.02q-.01-.04.04-.03l.08.06c.05 0 .1-.08.07-.16l-.47-.86c-.04-.03-.09-.07-.14.01a.3.3 0 0 0-.12.26l.03.3.03.32.02.1-.05-.06c-.22-.22-.15-.23-.08-.23s.12-.01 0-.16l-.05-.05c-.18-.2-.25-.28-.42-.41l-.06-.05c-.06-.05-.1-.08-.12.07q-.03.27-.01.52c0 .08.08.23.15.32l.37.46.44.53.07 1.06.06 1.05c0 .32-.1.6-.2.63 0 0-.14.09-.23 0-.07-.03-.34-.46-.34-.46-.14-.13-.24-.1-.34 0-.18.17-.3.45-.4.72l-.18.38c-.05.08-.19.15-.34 0-.3-.42-.22-.99-.2-1.1v.02c-.35.39-.2 1.02-.12 1.16.12.22.2.37.42.48.2.15.36.05.45-.05.11-.12.16-.36.2-.56a1 1 0 0 1 .1-.28c.06-.2.23-.16.3-.08q.12.17.3.25c.18.16.4.2.62.04q.21-.1.34-.4c.08-.23.05-1.16.03-1.87v-.32l.42.56q.09.9.06 1.81c-.01.12.43-.36.43-.59"/>
  <path fill="#fff" d="M19.96 3.14c.1.2.49.56.67.56l.03-.5v-.08q0-.1.07-.14l.08.01q.07.02.08-.01a1 1 0 0 0-.1-.38c-.1-.13-.33-.1-.38.11l.02.1.01.1c0 .03-.05.06-.15.01.02-.01-.06-.12-.06-.12-.08-.05-.18 0-.25.04a.4.4 0 0 0-.02.3"/>
  <path fill="#fff" d="m12.84 3.26.07-.06c.04-.05.05-.05.2.1.24.42.4.96.42 1.45 0 .12.08.2.12.17.02-.28.7-.67 1.33-.73q.07-.03.06-.2v-.1c-.04-.34.2-.66.52-.69.45.07.6.3.6.67-.05.7-.77.81-1.18.87q-.1.03 0 .08h1.7l.1.06q0 .02-.02.03t-.08.09c-.07.1-.17.36-.17.53-.5.17-1.03.24-1.56.3q-.3.15-.24.36c.05.13.32.25.43.3l.04.02c.08.05.17.16-.02.4-.83-.04-1.48-.4-1.7-.9q-.11-.05-.19.07c-.32.42-.64.8-1.2 1a.8.8 0 0 1-.82-.27q-.09-.12-.1-.2-.01-.07-.04-.09c-.18.08-1.71.73-1.52.43q.4-.37.98-.7l.61-.39.03-.09c.04-.18.13-.5.31-.63v.12l-.03.25v.07q0 .06.02.04c.04-.03.73-.57.78-.74.06-.09.03-.29.02-.34q-.12-.28-.25-.37-.08-.07-.13-.16c-.06-.22-.03-.48.1-.55q.17-.15.36.02c.14.13.27.37.3.56q-.02.04-.12 0-.07-.03-.12-.02.14.15.18.37c.1.38.07.53-.03.77-.26.56-.6.78-.9.99l-.14.09s-.01.16.11.25c.05.05.23.07.44 0 .4-.22.83-.63 1.04-1.08.06-.35-.02-.71-.11-1.03-.14-.31-.3-.76-.3-.76 0-.2.01-.27.1-.36"/>
  <path fill="#fff" d="M8.93 1.2c.02.31-.35.35-.55.26-.14-.06-.14-.28-.13-.29 0-.04 0-.17.1-.17q.04 0 .05.03l.02.08.01.03h.01v.01h.05q.03.01.03-.04l.01-.06v-.01l.01-.01q.01-.02.04-.02h.04l.04.08c0 .1.06.1.07.08q.02-.01.02-.05v-.04c.02-.1.13-.12.17-.03z"/>
  <path fill="#fff" d="M14.12 3.89c.2.1.67.04.55-.26v-.15c-.05-.1-.16-.07-.18.03v.04q0 .03-.02.05c-.01.02-.07.01-.07-.08l-.04-.07-.04-.01q-.02 0-.03.02l-.01.01v.01l-.01.06q0 .04-.04.05h-.04v-.01l-.01-.01-.02-.03-.01-.08-.05-.03c-.1 0-.12.13-.11.17 0 .01-.01.23.13.29"/>
  <path fill="#fff" d="M18.02 2.62c.02.32-.35.36-.55.26-.14-.06-.14-.28-.13-.28 0-.05 0-.17.1-.17q.04 0 .05.02l.02.08q0 .03.02.03v.01l.02.01h.03q.03 0 .03-.04l.01-.06v-.02h.01q.01-.03.04-.03l.04.01q.03.03.04.08c0 .09.06.1.07.08q.03-.02.02-.06V2.5c.02-.1.13-.12.17-.03z"/>
  <path fill="#fff" d="M17.82 1.65c.04-.17-.08-.53-.26-.6-.1-.02-.26.04-.2.18q-.01.07.1.21t.14.22q.04.15.01.28-.03.11.01.13c.07.03.16-.2.2-.42"/>
  <path fill="#fff" d="M19.77 5.62q.03-.43-.02-.7l-.02-.24c0-.25-.28-2.16-.33-2.35-.04-.2.05-.2.13-.18.06 0 .11.01.1-.08q-.1-.2-.25-.44-.16-.25-.25-.43l-.02-.07c-.03-.06-.04-.08-.13.04q-.17.56-.1.9l.1.57c.25 1.26.47 2.36.43 3.6.14 0 .3-.3.36-.62"/>
  <path fill="#fff" d="M23 2.3c.02-.12-.07-.56-.23-.64-.1-.03-.24.04-.2.2q0 .06.12.22.08.13.12.24v.2c-.01.11-.02.22.02.24.06.03.14-.22.18-.45"/>
  <path fill="#fff" d="M10.88 4.81c.15.06.24.39.23.48-.04.17-.12.36-.17.33-.04 0-.03-.09-.02-.17V5.3c-.01-.1-.09-.18-.15-.24q-.06-.06-.07-.1c-.04-.14.09-.17.18-.15"/>
  <path fill="#fff" d="M6.79.94c.23.07.24.4.22.5-.03.18-.1.37-.17.34-.03 0-.03-.1-.02-.18v-.15l-.12-.18q-.09-.11-.1-.18c-.03-.11.1-.17.19-.15"/>
  <path fill="#fff" d="M11.12 3.04c-.11-.16-.04-.44.13-.53q.16-.08.13.06a.4.4 0 0 0-.03.27c.03.05.04.08.12.06.2-.18.2-.08.2-.08s-.1.34-.27.32h-.02c-.05 0-.18.03-.26-.1"/>
  <path fill="#fff" d="M13.52 1.52s.04-.43.07-.52c.1-.22.22-.22.26-.03V1c0 .12-.02.25-.12.54-.08.16-.24.1-.21-.02"/>
  <path fill="#fff" d="m20.2 4.36.92-.67c.1-.03.08.34.03.33.02.08-.89.7-.96.67-.04.03-.09-.25 0-.33"/>
  <path fill="#fff" d="M21.23 5.03c.02-.13-.05-.6-.2-.67-.1-.03-.24.05-.2.2q0 .1.09.29l.07.19v.2c0 .09-.01.19.02.2.06.04.22-.16.22-.41"/>
  <path fill="#fff" d="M15.62 6.37c.07-.1.26-.22.27-.22.08-.05.16.02.17.03l-.02.12-.02.17c.03.05.04.1.13.08.14-.11.27-.12.42-.13.1.01.11.2.04.2-.19.04-.3.09-.43.14l-.14.06c-.1.05-.17-.01-.17-.02q-.04-.03-.01-.17 0-.15-.12-.14-.09.06-.14-.01-.02-.08.02-.1"/>
  <path fill="#fff" d="M21.97 6.8q.09-.11 0-.18l-.04-.02q-.08-.01-.09-.12t.09-.11h.25q.13.04.08.13l-.07.14c-.04.07.05.09.08.09h.06q.07 0 .11.02s.03.1-.03.14c0 0-.4.26-.57.21-.09-.02-.07-.1-.04-.15l.09-.08z"/>
  <path fill="#000" d="m12.72 11.66 1.4 1.02-.53 1.66L15 13.32l1.41 1.02-.54-1.66 1.41-1.02h-1.74L15 10l-.54 1.66z"/>
</svg>
