<svg xmlns="http://www.w3.org/2000/svg" width="30" height="24" viewBox="0 0 30 24">
  <path fill="#c00" d="M0 0h30v24H0z"/>
  <path fill="#093" d="M0 9h30v6H0z"/>
  <path fill="#ffd900" d="m6 1.2-.27.83h-.87l.7.51-.27.83.71-.51.7.51-.26-.83.7-.51h-.87zm0 0-.27.83h-.87l.7.51-.27.83.71-.51.7.51-.26-.83.7-.51h-.87z"/>
  <path fill="#ffd900" d="m4.07 5.54.6.6.56-.56C6.1 6.5 7 7.38 7.83 8.3c.14.13.34.13.47 0a.33.33 0 0 0 0-.46L5.56 5.26l.76-.76-1.05-.14z"/>
  <path fill="#ffd900" d="M6 3.6q.75.44 1.08 1.09c.23.42.33.85.33 1.2a1.3 1.3 0 0 1-2.27.87L5 6.88a.2.2 0 0 0-.22.05.3.3 0 0 0-.2.17q-.16.3-.48.42h-.01q-.16.06-.28.19c-.16.17-.24.38-.2.53a.12.12 0 0 0 .17.15c.15.03.35-.05.5-.2q.14-.15.2-.3a.8.8 0 0 1 .44-.5.3.3 0 0 0 .13-.16c.31.37.77.6 1.29.6.94.03 1.65-.66 1.68-1.66a2.6 2.6 0 0 0-.62-1.68c-.34-.4-.84-.74-1.4-.89"/>
</svg>
