<svg xmlns="http://www.w3.org/2000/svg" width="30" height="24" viewBox="0 0 30 24">
  <path fill="#5b97b1" d="M0 0h30v24H0z"/>
  <path fill="#ffce00" d="M10.5 20.27 10.1 19l-.42 1.27H8.35l1.08.78-.41 1.27 1.07-.78 1.08.78-.4-1.27 1.07-.78zm5.5-.99.4-1.27-1.07.79-1.08-.79.4 1.27-1.07.79h1.33l.42 1.27.4-1.27h1.34zm.4-5.74-1.07.78-1.08-.78.4 1.27-1.07.78h1.33l.42 1.27.4-1.27h1.34L16 14.81zm3.79 4.61.41-1.27-1.08.79-1.08-.79.42 1.27-1.08.79h1.33l.41 1.26.42-1.26h1.33zM19.11 9.2l.41 1.27.42-1.27h1.33l-1.08-.78.41-1.27-1.08.79-1.08-.79.42 1.27-1.08.78zm3.85 5.53-.41-1.26-.42 1.26H20.8l1.08.79-.41 1.27 1.08-.79 1.07.79-.4-1.27 1.07-.79zm.03-6.85.42 1.27.4-1.27h1.34l-1.08-.79.41-1.27-1.07.79-1.08-.79.4 1.27-1.07.79zm3.87 4.34-.41-1.27-.42 1.27H24.7l1.08.79-.41 1.27 1.08-.79 1.08.79L27.1 13l1.08-.79zm-1.08-7.8-.41 1.27 1.08-.78 1.08.78-.42-1.27 1.08-.78h-1.33l-.41-1.27-.42 1.27H24.7z"/>
  <path fill="#071b65" d="M0 0h15v12H0z"/>
  <path fill="#fff" d="M5.5 9.77V12h4V9.77L12.54 12H15v-1.24L11.24 8H15V4h-2.74L15 2V0h-1.44L9.5 2.98V0h-4v2.8L1.75 0H0v1.9L2.99 4H0v4h3.76L0 10.76V12h2.46z"/>
  <path fill="#b92932" d="m0 1 4.09 3h1.36L0 0zm0 11 5.45-4v1l-4.09 3z"/>
  <path fill="#b92932" d="M8.5 12h-2V7H0V5h6.5V0h2v5H15v2H8.5z"/>
  <path fill="#b92932" d="M15 11.67 10 8v1l4.1 3h.9zM15 0h-.25L9.3 4h1.37L15 .82z"/>
</svg>
