<svg xmlns="http://www.w3.org/2000/svg" width="30" height="24" viewBox="0 0 30 24"><path fill="#4b92db" d="M0 0h30v24H0z"/><path fill="#fff" d="M15.73 16.37c.67 0 1.28.32 1.87.57a1.9 1.9 0 0 0 1.72-.15c-.23.3-.55.48-.87.6-.6.24-1.31.06-1.82-.27-.37-.24-.7-.57-1.13-.57q-.12 0-.23.02a6 6 0 0 1 1.61 1.1q-.12.14-.28.26a6 6 0 0 0-1.6-1.28c-.55.23-1.1.78-1.6 1.28l-.28-.25c.44-.42 1-.86 1.61-1.1l-.23-.03c-.44 0-.76.33-1.12.57-.52.33-1.23.51-1.83.27a2 2 0 0 1-.87-.6 1.9 1.9 0 0 0 1.72.15l.6-.26c.4-.17.82-.31 1.27-.31q.38 0 .73.11.36-.1.73-.11m-4.76-1.63c.48.31.88.75 1.32 1.16.32.28.7.4 1.1.49l-.32.05-.56.14a3 3 0 0 1-1.73.07 2.3 2.3 0 0 1-1.26-1.04c.66.75 1.73.5 2.61.7l.18.03q.1.02.2 0-.18-.07-.37-.11c-.69-.26-.8-.99-1.17-1.5m8.06 0c-.38.5-.48 1.23-1.17 1.49-.12.04-.26.05-.36.12q.18.01.37-.05c.88-.19 1.95.06 2.61-.7-.25.5-.76.88-1.26 1.05-.77.25-1.57-.03-2.29-.21-.1-.03-.23-.02-.32-.05.4-.09.79-.2 1.1-.5.44-.4.84-.84 1.32-1.15m-9.05-1.48q.44.49.7 1.05c.25.6.34 1.3.91 1.76-.62-.2-1.33-.16-1.9-.53-.58-.38-1.12-.99-1.23-1.67.38.87 1.3.99 1.99 1.47l.14.1q.2.17.4.28H11a3 3 0 0 1-.45-.5 2 2 0 0 1-.3-.85l-.07-.46a2 2 0 0 0-.2-.65m10.03 0q-.15.31-.19.65l-.07.46q-.06.46-.3.85a3 3 0 0 1-.45.5q.15-.07.28-.17l.13-.1c.68-.58 1.72-.65 2.13-1.58-.11.68-.65 1.29-1.24 1.67-.56.37-1.27.33-1.9.53.58-.46.67-1.16.92-1.76.16-.38.42-.72.7-1.05M15 6.06a4.94 4.94 0 0 1 2.23 9.37l-.26.12a5 5 0 0 1-4.1-.08l-.25-.12a5 5 0 0 1-2.36-2.95l-.07-.27a5 5 0 0 1 .38-3.3l.12-.24a5 5 0 0 1 2.1-2l.25-.12a5 5 0 0 1 1.96-.4m2.74 7.77q-.32.32-.71.55l-.48.4-.07.02-.06.05h-.12l-.03.03h-.04l-.02-.07-.1-.03q-.5.16-1.05.16v.9a5 5 0 0 0 2.11-.52l.26-.15q.52-.3.94-.7zm-5.48 0-.63.63a4.8 4.8 0 0 0 3.31 1.37v-.89a4 4 0 0 1-2.48-.93zm-2.73-1.97c.36.77.25 1.74.46 2.58.04.19.15.35.22.52-.35-.27-.81-.5-1.2-.8-.37-.3-.7-.65-.87-1.1a3 3 0 0 1-.12-1.08c.06.82.93 1.26 1.35 1.94q.13.22.3.4c-.01-.08-.08-.16-.12-.25a2 2 0 0 1-.16-.96c.03-.36.16-.7.16-1.07zm10.94 0c-.07.44.1.83.15 1.25q.04.53-.17.96l-.13.25q.18-.18.31-.4c.42-.68 1.3-1.12 1.35-1.94q.05.57-.12 1.08c-.17.45-.5.8-.87 1.1-.39.3-.85.53-1.2.8.07-.17.18-.34.23-.52.18-.75.11-1.6.34-2.32zm-5 2.12-.41.04v.8q.48 0 .93-.13l-.12-.13h-.08l-.06-.07v-.04l-.04-.02v-.11l.02-.04q.04-.04 0-.09l-.02-.06h-.04l-.02-.09-.06-.01-.09-.03zm-2.3-.59v.03l.02.04c.02 0 .1.17-.03.18h-.25l-.1.09h-.3l-.02-.02-.01-.04-.02-.04-.11.12q.48.46 1.08.73l.23.1q.61.23 1.28.24v-.8a3 3 0 0 1-1.12-.24l-.2-.1a3 3 0 0 1-.45-.29m-2.1-2.32h-.9a4.8 4.8 0 0 0 1.38 3.3l.63-.62-.26-.3-.03-.02-.14-.03-.08-.09-.04-.04-.01-.02c0-.03-.07-.1-.07-.04h-.07l-.04-.02a.2.2 0 0 1-.09-.12c-.04-.12-.06-.13-.14-.12l-.01-.07h-.08l-.06-.07-.03-.03-.04-.07q-.01-.02-.04.04c-.02.07-.1.03-.12-.05 0 0-.05-.01-.06-.04s-.13-.01-.06.07v.12h-.08l-.02-.03v-.06l-.03-.02v-.08s-.06-.03-.03-.08l-.01-.01-.03-.05.03-.02.01-.02h-.01l-.04-.07.03-.05v-.03l-.01-.03s-.03-.06 0-.07l.03-.01v-.09h.07l.02-.03h.19v.04l-.1.02c-.02.01.04.07.05.09 0 .02.1-.06.09-.11h.08l.01-.04h.08v.05l.05.01.01.03h.15l-.01-.03a4 4 0 0 1-.16-.81zm8.75 0h-.89q0 .72-.27 1.4l-.1.21q-.22.46-.56.87l-.18.2.63.63q.56-.57.9-1.27l.1-.24a5 5 0 0 0 .37-1.8m-2.74 2.1-.13.13q-.04.1.04.14l.25.2v.09l-.12.1v.05l-.04.02q-.07.02-.05.07l.03.01c.08.01.08.13-.01.2v.04l.06-.04q.3-.18.54-.43l-.02-.02q-.1 0-.17-.03v-.08l-.05-.02.02-.07zm-3.45-.7-.63.62.1.09q.27.25.6.4l.18.1q.4.16.84.2l.22.02v-.1h-.16q-.05-.04-.03-.04h-.2s-.02-.07-.04-.06h-.06l-.06-.12-.02-.06h-.04v-.08l-.08-.04-.03-.08h.05v-.03h.04v-.05l.03-.02v-.1l.07-.03.03-.04.04-.02.04-.02v-.03l.02-.03-.21-.06-.15-.06a2 2 0 0 1-.55-.37m5.18-1.4h-.8q-.02.61-.26 1.16l-.1.2q-.19.36-.48.66l.3.31c-.01-.04.03-.14.03-.16s.06 0 .07-.02.09.04.1.1l.01.17.03.02v.13l.03.02q.45-.45.71-1.04l.1-.2q.25-.67.26-1.35M8.2 9.93c-.15.77.36 1.33.54 2 .06.25.09.52.19.76l.02-.01c-.25-.72.12-1.38.48-1.94q.13-.23.19-.5c.04.33-.03.7-.09 1.04-.08.43-.22.83-.34 1.24q-.1.4-.02.82l-.03-.03c-.27-.5-.8-.88-.97-1.43a3 3 0 0 1-.13-1.41q.06-.28.16-.54m13.6 0q.12.26.16.54c.09.47 0 .97-.13 1.41-.16.54-.7.93-.96 1.43l-.04.03q.08-.42-.02-.82c-.11-.41-.26-.81-.34-1.24-.06-.33-.13-.7-.09-1.03q.07.26.19.5l.16.26c.3.5.53 1.06.32 1.67h.02c.1-.23.13-.5.2-.75.17-.67.68-1.23.54-2M13 11.07h-.24v.01h-.07l-.03-.01h-.02q-.03 0-.04.04v.13h-.04l-.03.04h-.1v.12l.02.02q.02.03 0 .07s-.03.06 0 .07l.18.26.01.23.08.01v.07l.02.02q.04.03.01.09h-.02c-.03.01-.06.03 0 .08l-.01.11q-.02.07.07.14l.02.05.01.09.03.02q.03.05-.01.08l-.02.04-.01.03.12.13.63-.63a2 2 0 0 1-.3-.4l-.02.01-.48-.17v-.2l.3.05.06-.02-.04-.12-.03-.14-.04.04s.01.06-.04.05l-.03-.01-.03-.03-.01-.02.03-.01c.05.05.06 0 .05-.03l-.02-.01q-.07-.03-.03-.1l.09-.07zm4.9 0h-.7q0 .03.03.07c.02-.01.1.07.1.12l.02.06v.05q.01.06.08.09c0-.03.09.04.1.04l.1.12-.01.04h-.06q-.06 0-.07.03l-.04.02-.04.01h-.03q-.03-.01-.05.04h-.1l-.01-.04-.07.01v.04q0 .03-.03.05h-.13c-.07 0-.11.13-.12.17s-.11.14-.11.14h-.04l-.02.02v.03l-.03.05-.05.03-.07.02-.02.02v.05h.09l.02-.03.07-.02q.02 0 .05-.03c.01-.03-.02-.07 0-.07l.03-.04h.04q.04 0 .04-.03l.07.08v.24h-.02v.12h-.04v.06l-.03.03v.06l-.02.02.05.05.01-.03.09-.11h.05v.12l.04.02.02.15V13q.35-.36.56-.82l.08-.22q.15-.43.17-.9m-3.6.75-.57.57q.43.4 1.01.49l.03-.03h.04l.01.03.04-.02.1-.01v-.03l-.08.02c-.05 0-.1-.06-.1-.1h-.04v-.14h.03v-.1l.03.02h.03l.01-.02.07-.12-.02-.02h.04v-.04h.02v-.23q-.37-.02-.65-.27m1.58.34h-.04v.1h-.13v.03h.03l.01.11-.03.01v.08h-.02q-.06-.06-.04.07l.06.01v.05l.09.02v.04h-.05v.04h-.02q-.04.01-.05.05l.14-.06.17-.1.07-.04v-.01c.03-.04-.04-.13-.08-.1q-.06.03-.1.1l-.06.01-.06-.02.01-.04v-.03c-.02-.04 0-.1.07-.1v-.05h.14v-.03h.06c.02-.02.05-.06 0-.1l-.17-.01zm-2.72-.82v.04l.08.27.27-.05-.03.05-.18.01-.02.09.02.04.18.02-.06.08-.06.03q.12.21.28.38l.57-.57-.14-.2c-.03.01-.08.07-.06.19 0 0-.03-.03-.03.02h-.05v.04c0 .04 0 .1-.08.11v-.11l-.06-.04.03-.05c.05-.1-.12-.08-.05-.03l-.01.07-.01-.02q0-.03-.06-.01v-.02l-.08-.08c.08-.04-.03-.1-.09-.04l-.01-.05-.06-.07h-.2a.2.2 0 0 0-.09-.1M12 11.07h-.8q0 .55.16 1.06l.04.1.03-.04h.13l.02-.02.1-.04v-.03q0-.03.04-.04s0-.05-.02-.05v-.13l.02-.03v-.11l.02-.01v-.01q-.01-.04.07-.09l.02-.05q.03-.04.07-.05l.02-.08.04-.01.07-.02zm3-1.01-.22.03.01.1h.06l-.01.08-.02.01q-.03.03.02.03v.04l-.1.1h-.06l-.02.03-.06.03h-.08v.05h-.03v.06l-.03.03-.03.01c-.03.02.03.08.04 0l.07.01v.08h-.03q-.04 0-.04.05l-.02.03q-.02.01-.01.04l.02.06-.01-.02-.03.04-.03.03c-.03-.03-.1.03-.03.06l-.03.07c-.03-.05-.13-.05-.15.03h-.04l-.01-.05v-.04l.03-.02V11l-.08-.06h-.03v.07l.01.15h.05l.04.04.03.07.02.05h-.02c-.05-.06-.07.01-.03.03v.07q.05.13.16.25l.03-.15.02-.06.04-.02v-.07l.12-.03v-.05l.03-.01.01-.14.05-.01v-.05l.01-.07.06-.05.07.04.01.06v.07h.08l.01.03q.02.02.04 0l.03.03.01.02q-.06 0 0 .04v.04l-.02.02v.03a.1.1 0 0 1-.07.07v.1h-.02v.07h-.06l-.04.05s-.05.02-.05 0-.06-.05-.07.01h-.14l-.01.03h-.03l-.04.05.04.05q.26.19.58.2l.1-.01-.01-.1.06-.05v-.1h.02q.02-.01 0-.05l.04-.04.03-.01q.02 0 0-.04c0-.03.1-.04.14 0q.04-.04.13 0v-.06l.03-.02v-.04l.02-.03v-.05l.01-.06c.03-.02.03-.06-.03-.03l-.03-.04v-.17h-.03V11h-.03v-.04l-.01-.02q-.04-.03-.06.03l-.12-.02.06-.01.03-.03h.02l.04-.04.02-.05.02-.02q.04-.02 0-.08h-.03v-.08q.02 0 .02-.02c0-.03-.03-.08-.08-.05l-.05.09-.04-.02h-.03v-.04h.04l.02-.01.03-.02v-.04l-.13-.15h-.08l-.01-.03h-.13l-.01-.07h-.05l-.02-.03-.03-.02v-.11h.03l.01.03h.04l.05.02zm-2.53 1.01h-.35q0 .2.04.4l.02.02c.02-.01.08.01.08.04s.07.04.09.03c-.04-.03.02-.05.04-.06s.02-.09 0-.08h-.05l.02-.1v-.04l.05-.02v-.08l.07-.08zm8.61-2.95q.02 0 .03.02c.34.43.57.91.57 1.5 0 .72-.41 1.23-.47 1.9-.1-.7-.7-1.2-1-1.83a3 3 0 0 1-.23-.79q.06.19.2.31l.37.35c.28.27.53.57.6.95l.04.23.02-.02-.05-.67c-.04-.65.3-1.37-.08-1.95m-12.14 0c-.38.58-.04 1.3-.08 1.95l-.05.67v.02h.02l.04-.23c.1-.54.57-.92.97-1.3q.14-.13.2-.3-.04.4-.22.78c-.31.62-.9 1.13-1.01 1.84-.06-.68-.47-1.19-.47-1.91 0-.59.23-1.07.57-1.5zm3.33.24q-.44.46-.7 1l-.1.22q-.26.66-.27 1.37h.8a3 3 0 0 1 .28-1.2l.1-.18q.18-.35.46-.64zm.66.65q-.35.35-.54.8l-.1.21q-.15.45-.17.93h.4l.04-.03v-.06l.06-.04v-.14h.03v-.06l.03-.04v-.02l.02-.05.02-.01c.02 0 .03-.05.03-.06 0-.02.05-.06.05-.06h.1l.02-.04h.07l.02-.03h.07c.03 0 .08-.09.04-.08h-.15.06l.01-.04h.05l.01-.03h.06l.02-.03q.01-.03.05-.02l.02-.04q.13-.23.3-.43zm-1.37-1.37a5 5 0 0 0-.88 1.24l-.11.25a5 5 0 0 0-.38 1.82h.89q.01-.86.38-1.64l.12-.23q.25-.44.6-.8zm5.53 1.38-.63.62q.14.15.24.31l.04.01.07.01.01.03.13.02.1.11v.05c0 .02.05.03.05.03h.09v.05l-.02.03c-.05.13.07.05.1.02v-.05l.06-.01.01-.03h.1q.04.01.07.06l.03.04c-.02 0-.03.1-.03.1h-.04l.02.04v.04h-.01c-.03 0-.06.06-.02.08h.14l.02-.02q.02 0 .05-.06v-.05l.02-.02.02-.05.04-.02.02-.02c.02-.02.06.11.05.13l-.06.07-.05.01v.01l-.05.1c-.02.02-.18.02-.2.02s-.08.09-.08.09h.04v.07l-.1.03-.02.07v.01h.6q0-.45-.16-.89h-.03c.02-.09-.11-.15-.1-.18 0-.05-.08-.07-.12-.07h-.02c-.01.03-.01-.03-.01-.03h-.06v-.04l.04-.02v-.05h-.1v-.1h.1v.02l.05.02v.03h.03l.01-.03-.02-.05-.26-.38-.1-.1-.02-.01q-.03-.02-.04-.05m1.37-1.38-.58.58v.09h.05v.05l.12.13h.05l.04.02v.06h.03v.04l.12.15h.06v.05l.08.07.03.05v.03l.05.05.02.03.05.06.01.03c0 .03.07.08.07.08v.11h-.02q-.05 0-.06.05l.09.19q.26.65.27 1.39h.9q-.02-.91-.36-1.75l-.1-.24a5 5 0 0 0-.92-1.32m-.63 2.25v.1l.03.07h.04v.04h-.03l-.06-.18a3 3 0 0 1 .2 1.03h.81q-.01-.7-.26-1.35l-.06-.12-.04.02-.05.04h-.09l-.01-.06h-.06v-.05l-.05-.04-.03-.06c0-.02-.07-.04-.07-.04l-.02-.04-.01-.02q-.02-.04-.06-.05h-.07q-.02 0-.03-.02l-.06-.07-.06-.01-.02-.03h-.05l-.04-.03-.02-.05-.02-.1c0-.02-.1-.05-.1.04h-.04l-.02-.01a.2.2 0 0 0-.11-.16l-.16.15q0 .03.04.03l-.02.06.1.13q.22.26.37.56h.05l.04.07-.02.07.04.01-.01.04zm-4.19-.16a2 2 0 0 0-.3.4q.06.03.07-.02c0-.03.15-.15.25-.05l.21.15q.05.03.06 0l.04-.01H14s.05.06.07.01h.05zm1.31-.6q-.38.01-.73.18l-.13.07q-.2.1-.36.26l.57.57.09-.07.11-.07v-.03h.04v-.02l.05-.01v-.05l.04-.04.04.01-.03.02v.06l.07-.03.12-.02.12-.02zm.12 0v.81l.14.02.1.04v-.03h-.04v-.05h-.05v-.1h.1v.05h.04v.03l.03-.01.02-.01.01-.03c0-.02.09-.02.09-.02l-.02.1-.01.05c-.01.04-.04.03-.06.05q.15.06.27.15l.01-.02h.08l.04-.04h-.04l-.02-.01c-.02-.03.03-.03 0-.04q-.05-.02-.04-.05t.04-.02v-.01q-.03-.06.07-.07l.03-.06h.02l-.02.06c-.02.03.05.08.07.03h.05l.31-.3a2 2 0 0 0-.55-.37l-.16-.06a2 2 0 0 0-.51-.09m-5.1-1.91c-.49.34-.46.94-.6 1.45l-.19.54.01.01q.15-.34.4-.6l.26-.2.27-.19c.22-.16.42-.34.51-.6 0 .66-.57 1.16-1.08 1.55a2 2 0 0 0-.55.66q.03-.26.01-.52c-.05-.57-.09-1.22.31-1.66q.28-.33.65-.44m10.05 0q.38.1.66.44c.4.44.36 1.09.3 1.66l.02.52a2 2 0 0 0-.55-.66L20.21 9c-.43-.36-.84-.81-.84-1.37.17.48.69.67 1.03 1q.27.26.4.6l.02-.02-.18-.54c-.15-.5-.12-1.11-.62-1.45m-4.96.9v.9a2 2 0 0 1 1.3.54l.63-.62v-.02q-.05-.05-.1-.05v-.04l-.05-.04h-.02q-.02 0-.05-.06a3 3 0 0 0-.68-.4l-.2-.07a3 3 0 0 0-.83-.14m-.12 0q-.64.01-1.2.3l-.2.1a3 3 0 0 0-.54.4l.63.64q.24-.22.52-.36l.15-.06q.3-.12.64-.13zm0-.92a4 4 0 0 0-1.63.39l-.21.11q-.41.24-.75.57l.57.57a3 3 0 0 1 .77-.53l.2-.1a3 3 0 0 1 1.05-.2zm.12 0V8a3 3 0 0 1 1.77.62V8.6l-.01-.03c-.02-.04-.08-.07-.08-.07l-.01-.09h-.05l-.04-.04.03-.01.02-.03c.03-.03-.04-.07-.07-.1-.04-.04-.03 0-.06-.02q-.03-.01 0-.06c.01-.03.07 0 .07 0l.1.09.07.1.01.01c0 .05.09.1.12.07.04-.02.23.25.21.23q-.05 0-.06.02v.1l.06.01.17-.17v-.03s.06 0 .06-.04a.4.4 0 0 0-.15-.2c-.02 0-.15 0-.16.07h-.07l-.02-.13c0-.04-.02-.02-.02-.04s-.05-.04-.03-.05c.01 0 .04-.1.02-.14-.02-.03-.1-.04-.08-.06v-.1q-.02 0-.02-.03c0-.02-.02-.12-.1-.12V7.7l-.01-.02h-.09v-.06h.02l.02-.04a4 4 0 0 0-1.62-.38m-3.75-.66c-.36.32-.6.74-.88 1.1-.24.31-.56.5-.83.76.15-.3.18-.66.36-.96.32-.5.86-.7 1.35-.9m7.38 0 .33.14c.39.16.77.37 1.02.76.19.3.21.65.36.96-.27-.26-.6-.45-.83-.76l-.32-.45a4 4 0 0 0-.56-.65m-3.75-.36a5 5 0 0 0-2.1.51l-.26.14q-.53.3-.95.72l.63.64q.45-.43 1-.7l.22-.1q.7-.3 1.46-.31zm.12 0v.9q.9 0 1.72.42l.17-.01v-.03h.1l.02-.03.03.01.05.01.03.03.13.01.07.11h.11v.07l.04.01.03.01v.07h.05v.02l.04.02v.08l.03.08c0 .02.09 0 .09 0l.03.04v.04l-.02.02q-.02 0 0 .03h.05l.54-.54a4.8 4.8 0 0 0-3.31-1.37"/></svg>